999
dxfrw 0.6.3
  0
SECTION
  2
HEADER
  9
$ACADVER
  1
AC1021
  9
$DWGCODEPAGE
  3
ANSI_1252
  9
$INSBASE
 10
0
 20
0
 30
0
  9
$EXTMIN
 10
85.58902581811648
 20
97.52611020379864
 30
0
  9
$EXTMAX
 10
193.5223745733077
 20
160.7095277722761
 30
0
  9
$LIMMIN
 10
0
 20
0
  9
$LIMMAX
 10
420
 20
297
  9
$ORTHOMODE
 70
    0
  9
$REGENMODE
 70
    1
  9
$FILLMODE
 70
    1
  9
$QTEXTMODE
 70
    0
  9
$MIRRTEXT
 70
    0
  9
$LTSCALE
 40
1
  9
$ATTMODE
 70
    0
  9
$TEXTSIZE
 40
2.5
  9
$TRACEWID
 40
15.68
  9
$TEXTSTYLE
  7
STANDARD
  9
$CLAYER
  8
0
  9
$CELTYPE
  6
BYLAYER
  9
$CECOLOR
 62
  256
  9
$CELTSCALE
 40
1
  9
$DISPSILH
 70
    0
  9
$DIMSCALE
 40
2.5
  9
$DIMASZ
 40
2.5
  9
$DIMEXO
 40
0.625
  9
$DIMDLI
 40
3.75
  9
$DIMRND
 40
0
  9
$DIMDLE
 40
0
  9
$DIMEXE
 40
1.25
  9
$DIMTP
 40
0
  9
$DIMTM
 40
0
  9
$DIMTXT
 40
2.5
  9
$DIMCEN
 40
2.5
  9
$DIMTSZ
 40
0
  9
$DIMTOL
 70
    0
  9
$DIMLIM
 70
    0
  9
$DIMTIH
 70
    0
  9
$DIMTOH
 70
    0
  9
$DIMSE1
 70
    0
  9
$DIMSE2
 70
    0
  9
$DIMTAD
 70
    1
  9
$DIMZIN
 70
    8
  9
$DIMBLK
  1

  9
$DIMASO
 70
    1
  9
$DIMSHO
 70
    1
  9
$DIMPOST
  1

  9
$DIMAPOST
  1

  9
$DIMALT
 70
    0
  9
$DIMALTD
 70
    3
  9
$DIMALTF
 40
0.03937
  9
$DIMLFAC
 40
1
  9
$DIMTOFL
 70
    1
  9
$DIMTVP
 40
0
  9
$DIMTIX
 70
    0
  9
$DIMSOXD
 70
    0
  9
$DIMSAH
 70
    0
  9
$DIMBLK1
  1

  9
$DIMBLK2
  1

  9
$DIMSTYLE
  2
STANDARD
  9
$DIMCLRD
 70
    0
  9
$DIMCLRE
 70
    0
  9
$DIMCLRT
 70
    0
  9
$DIMTFAC
 40
1
  9
$DIMGAP
 40
0.625
  9
$DIMJUST
 70
    0
  9
$DIMSD1
 70
    0
  9
$DIMSD2
 70
    0
  9
$DIMTOLJ
 70
    0
  9
$DIMTZIN
 70
    8
  9
$DIMALTZ
 70
    0
  9
$DIMALTTZ
 70
    0
  9
$DIMUPT
 70
    0
  9
$DIMDEC
 70
    2
  9
$DIMTDEC
 70
    2
  9
$DIMALTU
 70
    2
  9
$DIMALTTD
 70
    3
  9
$DIMTXSTY
  7
STANDARD
  9
$DIMAUNIT
 70
    0
  9
$DIMADEC
 70
    0
  9
$DIMALTRND
 40
0
  9
$DIMAZIN
 70
    0
  9
$DIMDSEP
 70
   44
  9
$DIMATFIT
 70
    3
  9
$DIMFRAC
 70
    0
  9
$DIMLDRBLK
  1
STANDARD
  9
$DIMLUNIT
 70
    2
  9
$DIMLWD
 70
   -2
  9
$DIMLWE
 70
   -2
  9
$DIMTMOVE
 70
    0
  9
$DIMFXL
 40
1
  9
$DIMFXLON
 70
    0
  9
$DIMJOGANG
 40
0.7854
  9
$DIMTFILL
 70
    0
  9
$DIMTFILLCLR
 70
    0
  9
$DIMARCSYM
 70
    0
  9
$DIMLTYPE
  6

  9
$DIMLTEX1
  6

  9
$DIMLTEX2
  6

  9
$LUNITS
 70
    2
  9
$LUPREC
 70
    4
  9
$SKETCHINC
 40
1
  9
$FILLETRAD
 40
0
  9
$AUNITS
 70
    0
  9
$AUPREC
 70
    2
  9
$MENU
  1
.
  9
$ELEVATION
 40
0
  9
$PELEVATION
 40
0
  9
$THICKNESS
 40
0
  9
$LIMCHECK
 70
    0
  9
$CHAMFERA
 40
0
  9
$CHAMFERB
 40
0
  9
$CHAMFERC
 40
0
  9
$CHAMFERD
 40
0
  9
$SKPOLY
 70
    0
  9
$USRTIMER
 70
    1
  9
$ANGBASE
 50
0
  9
$ANGDIR
 70
    0
  9
$PDMODE
 70
   34
  9
$PDSIZE
 40
0
  9
$PLINEWID
 40
0
  9
$SPLFRAME
 70
    0
  9
$SPLINETYPE
 70
    2
  9
$SPLINESEGS
 70
    8
  9
$HANDSEED
  5
20000
  9
$SURFTAB1
 70
    6
  9
$SURFTAB2
 70
    6
  9
$SURFTYPE
 70
    6
  9
$SURFU
 70
    6
  9
$SURFV
 70
    6
  9
$UCSBASE
  2

  9
$UCSNAME
  2

  9
$UCSORG
 10
0
 20
0
 30
0
  9
$UCSXDIR
 10
1
 20
0
 30
0
  9
$UCSYDIR
 10
0
 20
1
 30
0
  9
$UCSORTHOREF
  2

  9
$UCSORTHOVIEW
 70
    0
  9
$UCSORGTOP
 10
0
 20
0
 30
0
  9
$UCSORGBOTTOM
 10
0
 20
0
 30
0
  9
$UCSORGLEFT
 10
0
 20
0
 30
0
  9
$UCSORGRIGHT
 10
0
 20
0
 30
0
  9
$UCSORGFRONT
 10
0
 20
0
 30
0
  9
$UCSORGBACK
 10
0
 20
0
 30
0
  9
$PUCSBASE
  2

  9
$PUCSNAME
  2

  9
$PUCSORG
 10
0
 20
0
 30
0
  9
$PUCSXDIR
 10
1
 20
0
 30
0
  9
$PUCSYDIR
 10
0
 20
1
 30
0
  9
$PUCSORTHOREF
  2

  9
$PUCSORTHOVIEW
 70
    0
  9
$PUCSORGTOP
 10
0
 20
0
 30
0
  9
$PUCSORGBOTTOM
 10
0
 20
0
 30
0
  9
$PUCSORGLEFT
 10
0
 20
0
 30
0
  9
$PUCSORGRIGHT
 10
0
 20
0
 30
0
  9
$PUCSORGFRONT
 10
0
 20
0
 30
0
  9
$PUCSORGBACK
 10
0
 20
0
 30
0
  9
$USERI1
 70
    0
  9
$USERI2
 70
    0
  9
$USERI3
 70
    0
  9
$USERI4
 70
    0
  9
$USERI5
 70
    0
  9
$USERR1
 40
0
  9
$USERR2
 40
0
  9
$USERR3
 40
0
  9
$USERR4
 40
0
  9
$USERR5
 40
0
  9
$WORLDVIEW
 70
    1
  9
$SHADEDGE
 70
    3
  9
$SHADEDIF
 70
   70
  9
$TILEMODE
 70
    1
  9
$MAXACTVP
 70
   64
  9
$PINSBASE
 10
0
 20
0
 30
0
  9
$PLIMCHECK
 70
    0
  9
$PEXTMIN
 10
0
 20
0
 30
0
  9
$PEXTMAX
 10
50
 20
50
 30
50
  9
$GRIDMODE
 70
    0
  9
$SNAPSTYLE
 70
    0
  9
$PLIMMIN
 10
0
 20
0
  9
$PLIMMAX
 10
210
 20
297
  9
$UNITMODE
 70
    0
  9
$VISRETAIN
 70
    1
  9
$PLINEGEN
 70
    0
  9
$PSLTSCALE
 70
    1
  9
$TREEDEPTH
 70
 3020
  9
$CMLSTYLE
  2
STANDARD
  9
$CMLJUST
 70
    0
  9
$CMLSCALE
 40
20
  9
$PROXYGRAPHICS
 70
    1
  9
$MEASUREMENT
 70
    1
  9
$CELWEIGHT
370
   -1
  9
$ENDCAPS
280
    0
  9
$JOINSTYLE
280
    0
  9
$LWDISPLAY
290
    0
  9
$INSUNITS
 70
    4
  9
$HYPERLINKBASE
  1

  9
$STYLESHEET
  1

  9
$XEDIT
290
    1
  9
$CEPSNTYPE
380
    0
  9
$PSTYLEMODE
290
    1
  9
$EXTNAMES
290
    1
  9
$PSVPSCALE
 40
1
  9
$OLESTARTUP
290
    0
  9
$SORTENTS
280
  127
  9
$INDEXCTL
280
    0
  9
$HIDETEXT
280
    1
  9
$XCLIPFRAME
290
    0
  9
$HALOGAP
280
    0
  9
$OBSCOLOR
 70
  257
  9
$OBSLTYPE
280
    0
  9
$INTERSECTIONDISPLAY
280
    0
  9
$INTERSECTIONCOLOR
 70
  257
  9
$DIMASSOC
280
    1
  9
$PROJECTNAME
  1

  9
$CAMERADISPLAY
290
    0
  9
$LENSLENGTH
 40
50
  9
$CAMERAHEIGHT
 40
0
  9
$STEPSPERSEC
 40
2
  9
$STEPSIZE
 40
50
  9
$3DDWFPREC
 40
2
  9
$PSOLWIDTH
 40
5
  9
$PSOLHEIGHT
 40
80
  9
$LOFTANG1
 40
1.570796326794897
  9
$LOFTANG2
 40
1.570796326794897
  9
$LOFTMAG1
 40
0
  9
$LOFTMAG2
 40
0
  9
$LOFTPARAM
 70
    7
  9
$LOFTNORMALS
280
    1
  9
$LATITUDE
 40
1
  9
$LONGITUDE
 40
1
  9
$NORTHDIRECTION
 40
0
  9
$TIMEZONE
 70
-8000
  9
$LIGHTGLYPHDISPLAY
280
    1
  9
$TILEMODELIGHTSYNCH
280
    1
  9
$SOLIDHIST
280
    1
  9
$SHOWHIST
280
    1
  9
$DWFFRAME
280
    2
  9
$DGNFRAME
280
    0
  9
$REALWORLDSCALE
290
    1
  9
$INTERFERECOLOR
 62
    1
  9
$CSHADOW
280
    0
  9
$SHADOWPLANELOCATION
 40
0
  0
ENDSEC
  0
SECTION
  2
CLASSES
  0
ENDSEC
  0
SECTION
  2
TABLES
  0
TABLE
  2
VPORT
  5
8
330
0
100
AcDbSymbolTable
 70
    1
  0
VPORT
  5
31
330
2
100
AcDbSymbolTableRecord
100
AcDbViewportTableRecord
  2
*ACTIVE
 70
    0
 10
0
 20
0
 11
1
 21
1
 12
100.3727713200232
 22
80.5186243266063
 13
0
 23
0
 14
10
 24
10
 15
10
 25
10
 16
0
 26
0
 36
1
 17
0
 27
0
 37
0
 40
63.88312318939088
 41
1.916210295728368
 42
50
 43
0
 44
0
 50
0
 51
0
 71
    0
 72
  100
 73
    1
 74
    3
 75
    0
 76
    0
 77
    0
 78
    0
281
    0
 65
    1
110
0
120
0
130
0
111
1
121
0
131
0
112
0
122
1
132
0
 79
    0
146
0
348
10020
 60
    7
 61
    5
292
1
282
    1
141
0
142
0
 63
  250
421
3358443
  0
ENDTAB
  0
TABLE
  2
LTYPE
  5
5
330
0
100
AcDbSymbolTable
 70
    4
  0
LTYPE
  5
14
330
5
100
AcDbSymbolTableRecord
100
AcDbLinetypeTableRecord
  2
ByBlock
 70
    0
  3

 72
   65
 73
    0
 40
0
  0
LTYPE
  5
15
330
5
100
AcDbSymbolTableRecord
100
AcDbLinetypeTableRecord
  2
ByLayer
 70
    0
  3

 72
   65
 73
    0
 40
0
  0
LTYPE
  5
16
330
5
100
AcDbSymbolTableRecord
100
AcDbLinetypeTableRecord
  2
Continuous
 70
    0
  3
Solid line
 72
   65
 73
    0
 40
0
  0
LTYPE
  5
32
330
5
100
AcDbSymbolTableRecord
100
AcDbLinetypeTableRecord
  2
DOT
 70
    0
  3
Dot . . . . . . . . . . . . . . . . . . . . . .
 72
   65
 73
    2
 40
6.35
 49
0
 74
    0
 49
-6.35
 74
    0
  0
LTYPE
  5
33
330
5
100
AcDbSymbolTableRecord
100
AcDbLinetypeTableRecord
  2
DOTTINY
 70
    0
  3
Dot (.15x) .....................................
 72
   65
 73
    2
 40
0.9525
 49
0
 74
    0
 49
-0.9525
 74
    0
  0
LTYPE
  5
34
330
5
100
AcDbSymbolTableRecord
100
AcDbLinetypeTableRecord
  2
DOT2
 70
    0
  3
Dot (.5x) .....................................
 72
   65
 73
    2
 40
3.175
 49
0
 74
    0
 49
-3.175
 74
    0
  0
LTYPE
  5
35
330
5
100
AcDbSymbolTableRecord
100
AcDbLinetypeTableRecord
  2
DOTX2
 70
    0
  3
Dot (2x) .  .  .  .  .  .  .  .  .  .  .  .  .
 72
   65
 73
    2
 40
12.7
 49
0
 74
    0
 49
-12.7
 74
    0
  0
LTYPE
  5
36
330
5
100
AcDbSymbolTableRecord
100
AcDbLinetypeTableRecord
  2
DASHED
 70
    0
  3
Dashed _ _ _ _ _ _ _ _ _ _ _ _ _ _ _ _ _
 72
   65
 73
    2
 40
19.05
 49
12.7
 74
    0
 49
-6.35
 74
    0
  0
LTYPE
  5
37
330
5
100
AcDbSymbolTableRecord
100
AcDbLinetypeTableRecord
  2
DASHEDTINY
 70
    0
  3
Dashed (.15x) _ _ _ _ _ _ _ _ _ _ _ _ _ _ _ _ _
 72
   65
 73
    2
 40
2.8575
 49
1.905
 74
    0
 49
-0.9525
 74
    0
  0
LTYPE
  5
38
330
5
100
AcDbSymbolTableRecord
100
AcDbLinetypeTableRecord
  2
DASHED2
 70
    0
  3
Dashed (.5x) _ _ _ _ _ _ _ _ _ _ _ _ _ _ _ _ _
 72
   65
 73
    2
 40
9.524999999999999
 49
6.35
 74
    0
 49
-3.175
 74
    0
  0
LTYPE
  5
39
330
5
100
AcDbSymbolTableRecord
100
AcDbLinetypeTableRecord
  2
DASHEDX2
 70
    0
  3
Dashed (2x) ____  ____  ____  ____  ____  ___
 72
   65
 73
    2
 40
38.09999999999999
 49
25.4
 74
    0
 49
-12.7
 74
    0
  0
LTYPE
  5
3A
330
5
100
AcDbSymbolTableRecord
100
AcDbLinetypeTableRecord
  2
DASHDOT
 70
    0
  3
Dash dot __ . __ . __ . __ . __ . __ . __ . __
 72
   65
 73
    4
 40
25.4
 49
12.7
 74
    0
 49
-6.35
 74
    0
 49
0
 74
    0
 49
-6.35
 74
    0
  0
LTYPE
  5
3B
330
5
100
AcDbSymbolTableRecord
100
AcDbLinetypeTableRecord
  2
DASHDOTTINY
 70
    0
  3
Dash dot (.15x) _._._._._._._._._._._._._._._.
 72
   65
 73
    4
 40
3.81
 49
1.905
 74
    0
 49
-0.9525
 74
    0
 49
0
 74
    0
 49
-0.9525
 74
    0
  0
LTYPE
  5
3C
330
5
100
AcDbSymbolTableRecord
100
AcDbLinetypeTableRecord
  2
DASHDOT2
 70
    0
  3
Dash dot (.5x) _._._._._._._._._._._._._._._.
 72
   65
 73
    4
 40
12.7
 49
6.35
 74
    0
 49
-3.175
 74
    0
 49
0
 74
    0
 49
-3.175
 74
    0
  0
LTYPE
  5
3D
330
5
100
AcDbSymbolTableRecord
100
AcDbLinetypeTableRecord
  2
DASHDOTX2
 70
    0
  3
Dash dot (2x) ____  .  ____  .  ____  .  ___
 72
   65
 73
    4
 40
50.8
 49
25.4
 74
    0
 49
-12.7
 74
    0
 49
0
 74
    0
 49
-12.7
 74
    0
  0
LTYPE
  5
3E
330
5
100
AcDbSymbolTableRecord
100
AcDbLinetypeTableRecord
  2
DIVIDE
 70
    0
  3
Divide ____ . . ____ . . ____ . . ____ . . ____
 72
   65
 73
    6
 40
31.75
 49
12.7
 74
    0
 49
-6.35
 74
    0
 49
0
 74
    0
 49
-6.35
 74
    0
 49
0
 74
    0
 49
-6.35
 74
    0
  0
LTYPE
  5
3F
330
5
100
AcDbSymbolTableRecord
100
AcDbLinetypeTableRecord
  2
DIVIDETINY
 70
    0
  3
Divide (.15x) __..__..__..__..__..__..__..__.._
 72
   65
 73
    6
 40
4.7625
 49
1.905
 74
    0
 49
-0.9525
 74
    0
 49
0
 74
    0
 49
-0.9525
 74
    0
 49
0
 74
    0
 49
-0.9525
 74
    0
  0
LTYPE
  5
40
330
5
100
AcDbSymbolTableRecord
100
AcDbLinetypeTableRecord
  2
DIVIDE2
 70
    0
  3
Divide (.5x) __..__..__..__..__..__..__..__.._
 72
   65
 73
    6
 40
15.875
 49
6.35
 74
    0
 49
-3.175
 74
    0
 49
0
 74
    0
 49
-3.175
 74
    0
 49
0
 74
    0
 49
-3.175
 74
    0
  0
LTYPE
  5
41
330
5
100
AcDbSymbolTableRecord
100
AcDbLinetypeTableRecord
  2
DIVIDEX2
 70
    0
  3
Divide (2x) ________  .  .  ________  .  .  _
 72
   65
 73
    6
 40
63.5
 49
25.4
 74
    0
 49
-12.7
 74
    0
 49
0
 74
    0
 49
-12.7
 74
    0
 49
0
 74
    0
 49
-12.7
 74
    0
  0
LTYPE
  5
42
330
5
100
AcDbSymbolTableRecord
100
AcDbLinetypeTableRecord
  2
BORDER
 70
    0
  3
Border __ __ . __ __ . __ __ . __ __ . __ __ .
 72
   65
 73
    6
 40
44.45
 49
12.7
 74
    0
 49
-6.35
 74
    0
 49
12.7
 74
    0
 49
-6.35
 74
    0
 49
0
 74
    0
 49
-6.35
 74
    0
  0
LTYPE
  5
43
330
5
100
AcDbSymbolTableRecord
100
AcDbLinetypeTableRecord
  2
BORDERTINY
 70
    0
  3
Border (.15x) __.__.__.__.__.__.__.__.__.__.__.
 72
   65
 73
    6
 40
6.6675
 49
1.905
 74
    0
 49
-0.9525
 74
    0
 49
1.905
 74
    0
 49
-0.9525
 74
    0
 49
0
 74
    0
 49
-0.9525
 74
    0
  0
LTYPE
  5
44
330
5
100
AcDbSymbolTableRecord
100
AcDbLinetypeTableRecord
  2
BORDER2
 70
    0
  3
Border (.5x) __.__.__.__.__.__.__.__.__.__.__.
 72
   65
 73
    6
 40
22.225
 49
6.35
 74
    0
 49
-3.175
 74
    0
 49
6.35
 74
    0
 49
-3.175
 74
    0
 49
0
 74
    0
 49
-3.175
 74
    0
  0
LTYPE
  5
45
330
5
100
AcDbSymbolTableRecord
100
AcDbLinetypeTableRecord
  2
BORDERX2
 70
    0
  3
Border (2x) ____  ____  .  ____  ____  .  ___
 72
   65
 73
    6
 40
88.89999999999999
 49
25.4
 74
    0
 49
-12.7
 74
    0
 49
25.4
 74
    0
 49
-12.7
 74
    0
 49
0
 74
    0
 49
-12.7
 74
    0
  0
LTYPE
  5
46
330
5
100
AcDbSymbolTableRecord
100
AcDbLinetypeTableRecord
  2
CENTER
 70
    0
  3
Center ____ _ ____ _ ____ _ ____ _ ____ _ ____
 72
   65
 73
    4
 40
50.8
 49
31.75
 74
    0
 49
-6.35
 74
    0
 49
6.35
 74
    0
 49
-6.35
 74
    0
  0
LTYPE
  5
47
330
5
100
AcDbSymbolTableRecord
100
AcDbLinetypeTableRecord
  2
CENTERTINY
 70
    0
  3
Center (.15x) ___ _ ___ _ ___ _ ___ _ ___ _ ___
 72
   65
 73
    4
 40
7.62
 49
4.7625
 74
    0
 49
-0.9525
 74
    0
 49
0.9525
 74
    0
 49
-0.9525
 74
    0
  0
LTYPE
  5
48
330
5
100
AcDbSymbolTableRecord
100
AcDbLinetypeTableRecord
  2
CENTER2
 70
    0
  3
Center (.5x) ___ _ ___ _ ___ _ ___ _ ___ _ ___
 72
   65
 73
    4
 40
28.575
 49
19.05
 74
    0
 49
-3.175
 74
    0
 49
3.175
 74
    0
 49
-3.175
 74
    0
  0
LTYPE
  5
49
330
5
100
AcDbSymbolTableRecord
100
AcDbLinetypeTableRecord
  2
CENTERX2
 70
    0
  3
Center (2x) ________  __  ________  __  _____
 72
   65
 73
    4
 40
101.6
 49
63.5
 74
    0
 49
-12.7
 74
    0
 49
12.7
 74
    0
 49
-12.7
 74
    0
  0
ENDTAB
  0
TABLE
  2
LAYER
  5
2
330
0
100
AcDbSymbolTable
 70
    1
  0
LAYER
  5
10
330
2
100
AcDbSymbolTableRecord
100
AcDbLayerTableRecord
  2
0
 70
    0
 62
    7
  6
CONTINUOUS
370
   -3
390
F
  0
LAYER
  5
4A
330
2
100
AcDbSymbolTableRecord
100
AcDbLayerTableRecord
  2
View
 70
    0
 62
    7
  6
CONTINUOUS
370
   -3
390
F
  0
LAYER
  5
4B
330
2
100
AcDbSymbolTableRecord
100
AcDbLayerTableRecord
  2
View002
 70
    0
 62
    7
  6
CONTINUOUS
370
   -3
390
F
  0
LAYER
  5
4C
330
2
100
AcDbSymbolTableRecord
100
AcDbLayerTableRecord
  2
View003
 70
    0
 62
    7
  6
CONTINUOUS
370
   -3
390
F
  0
ENDTAB
  0
TABLE
  2
STYLE
  5
3
330
0
100
AcDbSymbolTable
 70
    3
  0
STYLE
  5
4D
330
2
100
AcDbSymbolTableRecord
100
AcDbTextStyleTableRecord
  2
Standard
 70
    0
 40
0
 41
1
 50
0
 71
    0
 42
1
  3
txt
  4

  0
ENDTAB
  0
TABLE
  2
VIEW
  5
6
330
0
100
AcDbSymbolTable
 70
    0
  0
ENDTAB
  0
TABLE
  2
UCS
  5
7
330
0
100
AcDbSymbolTable
 70
    0
  0
ENDTAB
  0
TABLE
  2
APPID
  5
9
330
0
100
AcDbSymbolTable
 70
    1
  0
APPID
  5
12
330
9
100
AcDbSymbolTableRecord
100
AcDbRegAppTableRecord
  2
ACAD
 70
    0
  0
APPID
  5
4E
330
9
100
AcDbSymbolTableRecord
100
AcDbRegAppTableRecord
  2
LibreCad
 70
    0
  0
ENDTAB
  0
TABLE
  2
DIMSTYLE
  5
A
330
0
100
AcDbSymbolTable
 70
    1
100
AcDbDimStyleTable
 71
    1
  0
DIMSTYLE
105
4F
330
A
100
AcDbSymbolTableRecord
100
AcDbDimStyleTableRecord
  2
Standard
 70
    0
 40
1
 41
2.5
 42
0.625
 43
0.38
 44
1.25
 45
0
 46
0
 47
0
 48
0
 49
1
140
2.5
141
0.09
142
2.5
143
25.4
144
1
145
0
146
1
147
0.625
148
0
 71
    0
 72
    0
 73
    0
 74
    1
 75
    0
 76
    0
 77
    0
 78
    1
 79
    0
170
    0
171
    2
172
    0
173
    0
174
    0
175
    0
176
    0
177
    0
178
    0
179
    0
271
    2
272
    4
273
    2
274
    2
275
    0
276
    0
277
    2
278
    0
279
    0
280
    0
281
    0
282
    0
283
    1
284
    0
285
    0
286
    0
288
    0
289
    3
340
STANDARD
341

371
   -2
372
   -2
  0
ENDTAB
  0
TABLE
  2
BLOCK_RECORD
  5
1
330
0
100
AcDbSymbolTable
 70
    2
  0
BLOCK_RECORD
  5
1F
330
1
100
AcDbSymbolTableRecord
100
AcDbBlockTableRecord
  2
*Model_Space
 70
    0
280
    1
281
    0
  0
BLOCK_RECORD
  5
1E
330
1
100
AcDbSymbolTableRecord
100
AcDbBlockTableRecord
  2
*Paper_Space
 70
    0
280
    1
281
    0
  0
ENDTAB
  0
ENDSEC
  0
SECTION
  2
BLOCKS
  0
BLOCK
  5
20
330
1F
100
AcDbEntity
  8
0
100
AcDbBlockBegin
  2
*Model_Space
 70
    0
 10
0
 20
0
 30
0
  3
*Model_Space
  1

  0
ENDBLK
  5
21
330
1F
100
AcDbEntity
  8
0
100
AcDbBlockEnd
  0
BLOCK
  5
1C
330
1B
100
AcDbEntity
  8
0
100
AcDbBlockBegin
  2
*Paper_Space
 70
    0
 10
0
 20
0
 30
0
  3
*Paper_Space
  1

  0
ENDBLK
  5
1D
330
1F
100
AcDbEntity
  8
0
100
AcDbBlockEnd
  0
ENDSEC
  0
SECTION
  2
ENTITIES
  0
CIRCLE
  5
50
100
AcDbEntity
  8
View
  6
ByLayer
 62
  256
370
   -1
100
AcDbCircle
 10
139.556
 20
123.641
 40
5.5
  0
CIRCLE
  5
51
100
AcDbEntity
  8
View
  6
ByLayer
 62
  256
370
   -1
100
AcDbCircle
 10
133.056
 20
130.141
 40
1.6
  0
CIRCLE
  5
52
100
AcDbEntity
  8
View
  6
ByLayer
 62
  256
370
   -1
100
AcDbCircle
 10
146.056
 20
130.141
 40
1.6
  0
CIRCLE
  5
53
100
AcDbEntity
  8
View
  6
ByLayer
 62
  256
370
   -1
100
AcDbCircle
 10
146.056
 20
117.141
 40
1.6
  0
CIRCLE
  5
54
100
AcDbEntity
  8
View
  6
ByLayer
 62
  256
370
   -1
100
AcDbCircle
 10
133.056
 20
117.141
 40
1.6
  0
ARC
  5
55
100
AcDbEntity
  8
View
  6
ByLayer
 62
  256
370
   -1
100
AcDbCircle
 10
139.556
 20
85.3489
 40
23.248
100
AcDbArc
 50
49.818
 51
130.182
  0
SPLINE
  5
56
100
AcDbEntity
  8
View
  6
ByLayer
 62
  256
370
   -1
100
AcDbSpline
210
0
220
0
230
0
 70
    8
 71
    3
 72
   23
 73
   19
 74
    0
 42
1e-007
 43
1e-007
 40
0
 40
0
 40
0
 40
0
 40
0.166667
 40
0.166667
 40
0.166667
 40
0.333333
 40
0.333333
 40
0.333333
 40
0.5
 40
0.5
 40
0.5
 40
0.666667
 40
0.666667
 40
0.666667
 40
0.833333
 40
0.833333
 40
0.833333
 40
1
 40
1
 40
1
 40
1
 10
124.556
 20
103.11
 30
0
 10
89.5556
 20
80.8122
 30
0
 10
83.3056
 20
130.812
 30
0
 10
86.2123
 20
145.77
 30
0
 10
89.119
 20
160.727
 30
0
 10
101.182
 20
140.642
 30
0
 10
111.599
 20
140.644
 30
0
 10
122.016
 20
140.645
 30
0
 10
130.786
 20
160.733
 30
0
 10
139.556
 20
160.733
 30
0
 10
148.325
 20
160.733
 30
0
 10
157.095
 20
140.645
 30
0
 10
167.512
 20
140.644
 30
0
 10
177.929
 20
140.642
 30
0
 10
189.992
 20
160.727
 30
0
 10
192.899
 20
145.77
 30
0
 10
195.806
 20
130.812
 30
0
 10
189.556
 20
80.8122
 30
0
 10
154.556
 20
103.11
 30
0
  0
CIRCLE
  5
57
100
AcDbEntity
  8
View
  6
ByLayer
 62
  256
370
   -1
100
AcDbCircle
 10
139.556
 20
146.733
 40
7
  0
CIRCLE
  5
58
100
AcDbEntity
  8
View
  6
ByLayer
 62
  256
370
   -1
100
AcDbCircle
 10
96.7452
 20
138.609
 40
2.2
  0
CIRCLE
  5
59
100
AcDbEntity
  8
View
  6
ByLayer
 62
  256
370
   -1
100
AcDbCircle
 10
94.8907
 20
123.086
 40
2.2
  0
CIRCLE
  5
5A
100
AcDbEntity
  8
View
  6
ByLayer
 62
  256
370
   -1
100
AcDbCircle
 10
104.556
 20
110.799
 40
2.2
  0
CIRCLE
  5
5B
100
AcDbEntity
  8
View
  6
ByLayer
 62
  256
370
   -1
100
AcDbCircle
 10
120.078
 20
108.944
 40
2.2
  0
CIRCLE
  5
5C
100
AcDbEntity
  8
View
  6
ByLayer
 62
  256
370
   -1
100
AcDbCircle
 10
184.22
 20
123.086
 40
2.2
  0
CIRCLE
  5
5D
100
AcDbEntity
  8
View
  6
ByLayer
 62
  256
370
   -1
100
AcDbCircle
 10
174.556
 20
110.799
 40
2.2
  0
CIRCLE
  5
5E
100
AcDbEntity
  8
View
  6
ByLayer
 62
  256
370
   -1
100
AcDbCircle
 10
159.033
 20
108.944
 40
2.2
  0
CIRCLE
  5
5F
100
AcDbEntity
  8
View
  6
ByLayer
 62
  256
370
   -1
100
AcDbCircle
 10
164.556
 20
128.609
 40
2.2
  0
CIRCLE
  5
60
100
AcDbEntity
  8
View
  6
ByLayer
 62
  256
370
   -1
100
AcDbCircle
 10
114.556
 20
128.609
 40
2.2
  0
CIRCLE
  5
61
100
AcDbEntity
  8
View
  6
ByLayer
 62
  256
370
   -1
100
AcDbCircle
 10
182.366
 20
138.609
 40
2.2
  0
LINE
  5
62
100
AcDbEntity
  8
View002
  6
ByLayer
 62
  256
370
   -1
100
AcDbLine
 10
121.367
 20
140.503
 11
125.606
 21
140.503
  0
LINE
  5
63
100
AcDbEntity
  8
View002
  6
ByLayer
 62
  256
370
   -1
100
AcDbLine
 10
121.367
 20
139.43
 11
121.367
 21
140.503
  0
LINE
  5
64
100
AcDbEntity
  8
View002
  6
ByLayer
 62
  256
370
   -1
100
AcDbLine
 10
125.606
 20
139.43
 11
121.367
 21
139.43
  0
LINE
  5
65
100
AcDbEntity
  8
View002
  6
ByLayer
 62
  256
370
   -1
100
AcDbLine
 10
125.606
 20
140.503
 11
125.606
 21
139.43
  0
LINE
  5
66
100
AcDbEntity
  8
View002
  6
ByLayer
 62
  256
370
   -1
100
AcDbLine
 10
126.095
 20
140.503
 11
127.074
 21
140.503
  0
LINE
  5
67
100
AcDbEntity
  8
View002
  6
ByLayer
 62
  256
370
   -1
100
AcDbLine
 10
126.095
 20
139.43
 11
126.095
 21
140.503
  0
LINE
  5
68
100
AcDbEntity
  8
View002
  6
ByLayer
 62
  256
370
   -1
100
AcDbLine
 10
127.074
 20
139.43
 11
126.095
 21
139.43
  0
LINE
  5
69
100
AcDbEntity
  8
View002
  6
ByLayer
 62
  256
370
   -1
100
AcDbLine
 10
127.074
 20
140.503
 11
127.074
 21
139.43
  0
LINE
  5
6A
100
AcDbEntity
  8
View002
  6
ByLayer
 62
  256
370
   -1
100
AcDbLine
 10
121.367
 20
135.713
 11
121.976
 21
135.713
  0
LINE
  5
6B
100
AcDbEntity
  8
View002
  6
ByLayer
 62
  256
370
   -1
100
AcDbLine
 10
121.367
 20
134.714
 11
121.367
 21
135.713
  0
LINE
  5
6C
100
AcDbEntity
  8
View002
  6
ByLayer
 62
  256
370
   -1
100
AcDbLine
 10
125.606
 20
134.714
 11
121.367
 21
134.714
  0
LINE
  5
6D
100
AcDbEntity
  8
View002
  6
ByLayer
 62
  256
370
   -1
100
AcDbLine
 10
125.606
 20
135.789
 11
125.606
 21
134.714
  0
LINE
  5
6E
100
AcDbEntity
  8
View002
  6
ByLayer
 62
  256
370
   -1
100
AcDbLine
 10
123.848
 20
135.789
 11
125.606
 21
135.789
  0
SPLINE
  5
6F
100
AcDbEntity
  8
View002
  6
ByLayer
 62
  256
370
   -1
100
AcDbSpline
210
0
220
0
230
0
 70
    8
 71
    2
 72
    6
 73
    3
 74
    0
 42
1e-007
 43
1e-007
 40
0
 40
0
 40
0
 40
1
 40
1
 40
1
 10
122.722
 20
135.871
 30
0
 10
122.951
 20
135.789
 30
0
 10
123.848
 20
135.789
 30
0
  0
SPLINE
  5
70
100
AcDbEntity
  8
View002
  6
ByLayer
 62
  256
370
   -1
100
AcDbSpline
210
0
220
0
230
0
 70
    8
 71
    2
 72
    6
 73
    3
 74
    0
 42
1e-007
 43
1e-007
 40
0
 40
0
 40
0
 40
1
 40
1
 40
1
 10
122.337
 20
136.169
 30
0
 10
122.493
 20
135.95
 30
0
 10
122.722
 20
135.871
 30
0
  0
SPLINE
  5
71
100
AcDbEntity
  8
View002
  6
ByLayer
 62
  256
370
   -1
100
AcDbSpline
210
0
220
0
230
0
 70
    8
 71
    2
 72
    6
 73
    3
 74
    0
 42
1e-007
 43
1e-007
 40
0
 40
0
 40
0
 40
1
 40
1
 40
1
 10
122.182
 20
136.661
 30
0
 10
122.182
 20
136.386
 30
0
 10
122.337
 20
136.169
 30
0
  0
SPLINE
  5
72
100
AcDbEntity
  8
View002
  6
ByLayer
 62
  256
370
   -1
100
AcDbSpline
210
0
220
0
230
0
 70
    8
 71
    2
 72
    6
 73
    3
 74
    0
 42
1e-007
 43
1e-007
 40
0
 40
0
 40
0
 40
1
 40
1
 40
1
 10
122.297
 20
137.058
 30
0
 10
122.182
 20
136.9
 30
0
 10
122.182
 20
136.661
 30
0
  0
SPLINE
  5
73
100
AcDbEntity
  8
View002
  6
ByLayer
 62
  256
370
   -1
100
AcDbSpline
210
0
220
0
230
0
 70
    8
 71
    2
 72
    6
 73
    3
 74
    0
 42
1e-007
 43
1e-007
 40
0
 40
0
 40
0
 40
1
 40
1
 40
1
 10
122.613
 20
137.275
 30
0
 10
122.414
 20
137.214
 30
0
 10
122.297
 20
137.058
 30
0
  0
SPLINE
  5
74
100
AcDbEntity
  8
View002
  6
ByLayer
 62
  256
370
   -1
100
AcDbSpline
210
0
220
0
230
0
 70
    8
 71
    2
 72
    6
 73
    3
 74
    0
 42
1e-007
 43
1e-007
 40
0
 40
0
 40
0
 40
1
 40
1
 40
1
 10
123.69
 20
137.333
 30
0
 10
122.811
 20
137.333
 30
0
 10
122.613
 20
137.275
 30
0
  0
LINE
  5
75
100
AcDbEntity
  8
View002
  6
ByLayer
 62
  256
370
   -1
100
AcDbLine
 10
125.606
 20
137.333
 11
123.69
 21
137.333
  0
LINE
  5
76
100
AcDbEntity
  8
View002
  6
ByLayer
 62
  256
370
   -1
100
AcDbLine
 10
125.606
 20
138.406
 11
125.606
 21
137.333
  0
LINE
  5
77
100
AcDbEntity
  8
View002
  6
ByLayer
 62
  256
370
   -1
100
AcDbLine
 10
122.982
 20
138.406
 11
125.606
 21
138.406
  0
SPLINE
  5
78
100
AcDbEntity
  8
View002
  6
ByLayer
 62
  256
370
   -1
100
AcDbSpline
210
0
220
0
230
0
 70
    8
 71
    2
 72
    6
 73
    3
 74
    0
 42
1e-007
 43
1e-007
 40
0
 40
0
 40
0
 40
1
 40
1
 40
1
 10
122.065
 20
138.261
 30
0
 10
122.399
 20
138.406
 30
0
 10
122.982
 20
138.406
 30
0
  0
SPLINE
  5
79
100
AcDbEntity
  8
View002
  6
ByLayer
 62
  256
370
   -1
100
AcDbSpline
210
0
220
0
230
0
 70
    8
 71
    2
 72
    6
 73
    3
 74
    0
 42
1e-007
 43
1e-007
 40
0
 40
0
 40
0
 40
1
 40
1
 40
1
 10
121.55
 20
137.792
 30
0
 10
121.734
 20
138.115
 30
0
 10
122.065
 20
138.261
 30
0
  0
SPLINE
  5
7A
100
AcDbEntity
  8
View002
  6
ByLayer
 62
  256
370
   -1
100
AcDbSpline
210
0
220
0
230
0
 70
    8
 71
    2
 72
    6
 73
    3
 74
    0
 42
1e-007
 43
1e-007
 40
0
 40
0
 40
0
 40
1
 40
1
 40
1
 10
121.367
 20
137.058
 30
0
 10
121.367
 20
137.466
 30
0
 10
121.55
 20
137.792
 30
0
  0
SPLINE
  5
7B
100
AcDbEntity
  8
View002
  6
ByLayer
 62
  256
370
   -1
100
AcDbSpline
210
0
220
0
230
0
 70
    8
 71
    2
 72
    6
 73
    3
 74
    0
 42
1e-007
 43
1e-007
 40
0
 40
0
 40
0
 40
1
 40
1
 40
1
 10
121.507
 20
136.296
 30
0
 10
121.367
 20
136.656
 30
0
 10
121.367
 20
137.058
 30
0
  0
SPLINE
  5
7C
100
AcDbEntity
  8
View002
  6
ByLayer
 62
  256
370
   -1
100
AcDbSpline
210
0
220
0
230
0
 70
    8
 71
    2
 72
    6
 73
    3
 74
    0
 42
1e-007
 43
1e-007
 40
0
 40
0
 40
0
 40
1
 40
1
 40
1
 10
121.976
 20
135.713
 30
0
 10
121.649
 20
135.935
 30
0
 10
121.507
 20
136.296
 30
0
  0
SPLINE
  5
7D
100
AcDbEntity
  8
View002
  6
ByLayer
 62
  256
370
   -1
100
AcDbSpline
210
0
220
0
230
0
 70
    8
 71
    2
 72
    6
 73
    3
 74
    0
 42
1e-007
 43
1e-007
 40
0
 40
0
 40
0
 40
1
 40
1
 40
1
 10
127.074
 20
132.07
 30
0
 10
127.074
 20
131.254
 30
0
 10
126.495
 20
130.796
 30
0
  0
SPLINE
  5
7E
100
AcDbEntity
  8
View002
  6
ByLayer
 62
  256
370
   -1
100
AcDbSpline
210
0
220
0
230
0
 70
    8
 71
    2
 72
    6
 73
    3
 74
    0
 42
1e-007
 43
1e-007
 40
0
 40
0
 40
0
 40
1
 40
1
 40
1
 10
126.503
 20
133.338
 30
0
 10
127.074
 20
132.882
 30
0
 10
127.074
 20
132.07
 30
0
  0
SPLINE
  5
7F
100
AcDbEntity
  8
View002
  6
ByLayer
 62
  256
370
   -1
100
AcDbSpline
210
0
220
0
230
0
 70
    8
 71
    2
 72
    6
 73
    3
 74
    0
 42
1e-007
 43
1e-007
 40
0
 40
0
 40
0
 40
1
 40
1
 40
1
 10
124.23
 20
133.889
 30
0
 10
125.807
 20
133.889
 30
0
 10
126.503
 20
133.338
 30
0
  0
SPLINE
  5
80
100
AcDbEntity
  8
View002
  6
ByLayer
 62
  256
370
   -1
100
AcDbSpline
210
0
220
0
230
0
 70
    8
 71
    2
 72
    6
 73
    3
 74
    0
 42
1e-007
 43
1e-007
 40
0
 40
0
 40
0
 40
1
 40
1
 40
1
 10
121.993
 20
133.389
 30
0
 10
122.62
 20
133.889
 30
0
 10
124.23
 20
133.889
 30
0
  0
SPLINE
  5
81
100
AcDbEntity
  8
View002
  6
ByLayer
 62
  256
370
   -1
100
AcDbSpline
210
0
220
0
230
0
 70
    8
 71
    2
 72
    6
 73
    3
 74
    0
 42
1e-007
 43
1e-007
 40
0
 40
0
 40
0
 40
1
 40
1
 40
1
 10
121.367
 20
132.07
 30
0
 10
121.367
 20
132.887
 30
0
 10
121.993
 20
133.389
 30
0
  0
SPLINE
  5
82
100
AcDbEntity
  8
View002
  6
ByLayer
 62
  256
370
   -1
100
AcDbSpline
210
0
220
0
230
0
 70
    8
 71
    2
 72
    6
 73
    3
 74
    0
 42
1e-007
 43
1e-007
 40
0
 40
0
 40
0
 40
1
 40
1
 40
1
 10
121.937
 20
130.801
 30
0
 10
121.367
 20
131.254
 30
0
 10
121.367
 20
132.07
 30
0
  0
SPLINE
  5
83
100
AcDbEntity
  8
View002
  6
ByLayer
 62
  256
370
   -1
100
AcDbSpline
210
0
220
0
230
0
 70
    8
 71
    2
 72
    6
 73
    3
 74
    0
 42
1e-007
 43
1e-007
 40
0
 40
0
 40
0
 40
1
 40
1
 40
1
 10
124.218
 20
130.25
 30
0
 10
122.633
 20
130.25
 30
0
 10
121.937
 20
130.801
 30
0
  0
SPLINE
  5
84
100
AcDbEntity
  8
View002
  6
ByLayer
 62
  256
370
   -1
100
AcDbSpline
210
0
220
0
230
0
 70
    8
 71
    2
 72
    6
 73
    3
 74
    0
 42
1e-007
 43
1e-007
 40
0
 40
0
 40
0
 40
1
 40
1
 40
1
 10
126.495
 20
130.796
 30
0
 10
125.807
 20
130.25
 30
0
 10
124.218
 20
130.25
 30
0
  0
SPLINE
  5
85
100
AcDbEntity
  8
View002
  6
ByLayer
 62
  256
370
   -1
100
AcDbSpline
210
0
220
0
230
0
 70
    8
 71
    2
 72
    6
 73
    3
 74
    0
 42
1e-007
 43
1e-007
 40
0
 40
0
 40
0
 40
1
 40
1
 40
1
 10
126.095
 20
132.07
 30
0
 10
126.095
 20
132.263
 30
0
 10
125.976
 20
132.416
 30
0
  0
SPLINE
  5
86
100
AcDbEntity
  8
View002
  6
ByLayer
 62
  256
370
   -1
100
AcDbSpline
210
0
220
0
230
0
 70
    8
 71
    2
 72
    6
 73
    3
 74
    0
 42
1e-007
 43
1e-007
 40
0
 40
0
 40
0
 40
1
 40
1
 40
1
 10
125.976
 20
131.723
 30
0
 10
126.095
 20
131.873
 30
0
 10
126.095
 20
132.07
 30
0
  0
SPLINE
  5
87
100
AcDbEntity
  8
View002
  6
ByLayer
 62
  256
370
   -1
100
AcDbSpline
210
0
220
0
230
0
 70
    8
 71
    2
 72
    6
 73
    3
 74
    0
 42
1e-007
 43
1e-007
 40
0
 40
0
 40
0
 40
1
 40
1
 40
1
 10
125.507
 20
131.473
 30
0
 10
125.858
 20
131.573
 30
0
 10
125.976
 20
131.723
 30
0
  0
SPLINE
  5
88
100
AcDbEntity
  8
View002
  6
ByLayer
 62
  256
370
   -1
100
AcDbSpline
210
0
220
0
230
0
 70
    8
 71
    2
 72
    6
 73
    3
 74
    0
 42
1e-007
 43
1e-007
 40
0
 40
0
 40
0
 40
1
 40
1
 40
1
 10
124.218
 20
131.374
 30
0
 10
125.158
 20
131.374
 30
0
 10
125.507
 20
131.473
 30
0
  0
SPLINE
  5
89
100
AcDbEntity
  8
View002
  6
ByLayer
 62
  256
370
   -1
100
AcDbSpline
210
0
220
0
230
0
 70
    8
 71
    2
 72
    6
 73
    3
 74
    0
 42
1e-007
 43
1e-007
 40
0
 40
0
 40
0
 40
1
 40
1
 40
1
 10
122.888
 20
131.484
 30
0
 10
123.28
 20
131.374
 30
0
 10
124.218
 20
131.374
 30
0
  0
SPLINE
  5
8A
100
AcDbEntity
  8
View002
  6
ByLayer
 62
  256
370
   -1
100
AcDbSpline
210
0
220
0
230
0
 70
    8
 71
    2
 72
    6
 73
    3
 74
    0
 42
1e-007
 43
1e-007
 40
0
 40
0
 40
0
 40
1
 40
1
 40
1
 10
122.462
 20
131.721
 30
0
 10
122.582
 20
131.568
 30
0
 10
122.888
 20
131.484
 30
0
  0
SPLINE
  5
8B
100
AcDbEntity
  8
View002
  6
ByLayer
 62
  256
370
   -1
100
AcDbSpline
210
0
220
0
230
0
 70
    8
 71
    2
 72
    6
 73
    3
 74
    0
 42
1e-007
 43
1e-007
 40
0
 40
0
 40
0
 40
1
 40
1
 40
1
 10
122.345
 20
132.07
 30
0
 10
122.345
 20
131.873
 30
0
 10
122.462
 20
131.721
 30
0
  0
SPLINE
  5
8C
100
AcDbEntity
  8
View002
  6
ByLayer
 62
  256
370
   -1
100
AcDbSpline
210
0
220
0
230
0
 70
    8
 71
    2
 72
    6
 73
    3
 74
    0
 42
1e-007
 43
1e-007
 40
0
 40
0
 40
0
 40
1
 40
1
 40
1
 10
122.46
 20
132.416
 30
0
 10
122.345
 20
132.263
 30
0
 10
122.345
 20
132.07
 30
0
  0
SPLINE
  5
8D
100
AcDbEntity
  8
View002
  6
ByLayer
 62
  256
370
   -1
100
AcDbSpline
210
0
220
0
230
0
 70
    8
 71
    2
 72
    6
 73
    3
 74
    0
 42
1e-007
 43
1e-007
 40
0
 40
0
 40
0
 40
1
 40
1
 40
1
 10
122.928
 20
132.666
 30
0
 10
122.577
 20
132.566
 30
0
 10
122.46
 20
132.416
 30
0
  0
SPLINE
  5
8E
100
AcDbEntity
  8
View002
  6
ByLayer
 62
  256
370
   -1
100
AcDbSpline
210
0
220
0
230
0
 70
    8
 71
    2
 72
    6
 73
    3
 74
    0
 42
1e-007
 43
1e-007
 40
0
 40
0
 40
0
 40
1
 40
1
 40
1
 10
124.218
 20
132.765
 30
0
 10
123.28
 20
132.765
 30
0
 10
122.928
 20
132.666
 30
0
  0
SPLINE
  5
8F
100
AcDbEntity
  8
View002
  6
ByLayer
 62
  256
370
   -1
100
AcDbSpline
210
0
220
0
230
0
 70
    8
 71
    2
 72
    6
 73
    3
 74
    0
 42
1e-007
 43
1e-007
 40
0
 40
0
 40
0
 40
1
 40
1
 40
1
 10
125.553
 20
132.653
 30
0
 10
125.158
 20
132.765
 30
0
 10
124.218
 20
132.765
 30
0
  0
SPLINE
  5
90
100
AcDbEntity
  8
View002
  6
ByLayer
 62
  256
370
   -1
100
AcDbSpline
210
0
220
0
230
0
 70
    8
 71
    2
 72
    6
 73
    3
 74
    0
 42
1e-007
 43
1e-007
 40
0
 40
0
 40
0
 40
1
 40
1
 40
1
 10
125.976
 20
132.416
 30
0
 10
125.858
 20
132.569
 30
0
 10
125.553
 20
132.653
 30
0
  0
LINE
  5
91
100
AcDbEntity
  8
View002
  6
ByLayer
 62
  256
370
   -1
100
AcDbLine
 10
121.367
 20
125.56
 11
121.367
 21
126.635
  0
LINE
  5
92
100
AcDbEntity
  8
View002
  6
ByLayer
 62
  256
370
   -1
100
AcDbLine
 10
124.042
 20
125.56
 11
121.367
 21
125.56
  0
SPLINE
  5
93
100
AcDbEntity
  8
View002
  6
ByLayer
 62
  256
370
   -1
100
AcDbSpline
210
0
220
0
230
0
 70
    8
 71
    2
 72
    6
 73
    3
 74
    0
 42
1e-007
 43
1e-007
 40
0
 40
0
 40
0
 40
1
 40
1
 40
1
 10
124.809
 20
125.621
 30
0
 10
124.541
 20
125.56
 30
0
 10
124.042
 20
125.56
 30
0
  0
SPLINE
  5
94
100
AcDbEntity
  8
View002
  6
ByLayer
 62
  256
370
   -1
100
AcDbSpline
210
0
220
0
230
0
 70
    8
 71
    2
 72
    6
 73
    3
 74
    0
 42
1e-007
 43
1e-007
 40
0
 40
0
 40
0
 40
1
 40
1
 40
1
 10
125.285
 20
125.83
 30
0
 10
125.076
 20
125.68
 30
0
 10
124.809
 20
125.621
 30
0
  0
SPLINE
  5
95
100
AcDbEntity
  8
View002
  6
ByLayer
 62
  256
370
   -1
100
AcDbSpline
210
0
220
0
230
0
 70
    8
 71
    2
 72
    6
 73
    3
 74
    0
 42
1e-007
 43
1e-007
 40
0
 40
0
 40
0
 40
1
 40
1
 40
1
 10
125.632
 20
126.276
 30
0
 10
125.497
 20
125.98
 30
0
 10
125.285
 20
125.83
 30
0
  0
SPLINE
  5
96
100
AcDbEntity
  8
View002
  6
ByLayer
 62
  256
370
   -1
100
AcDbSpline
210
0
220
0
230
0
 70
    8
 71
    2
 72
    6
 73
    3
 74
    0
 42
1e-007
 43
1e-007
 40
0
 40
0
 40
0
 40
1
 40
1
 40
1
 10
125.769
 20
126.926
 30
0
 10
125.769
 20
126.569
 30
0
 10
125.632
 20
126.276
 30
0
  0
SPLINE
  5
97
100
AcDbEntity
  8
View002
  6
ByLayer
 62
  256
370
   -1
100
AcDbSpline
210
0
220
0
230
0
 70
    8
 71
    2
 72
    6
 73
    3
 74
    0
 42
1e-007
 43
1e-007
 40
0
 40
0
 40
0
 40
1
 40
1
 40
1
 10
125.01
 20
128.263
 30
0
 10
125.769
 20
127.731
 30
0
 10
125.769
 20
126.926
 30
0
  0
LINE
  5
98
100
AcDbEntity
  8
View002
  6
ByLayer
 62
  256
370
   -1
100
AcDbLine
 10
125.606
 20
128.263
 11
125.01
 21
128.263
  0
LINE
  5
99
100
AcDbEntity
  8
View002
  6
ByLayer
 62
  256
370
   -1
100
AcDbLine
 10
125.606
 20
129.259
 11
125.606
 21
128.263
  0
LINE
  5
9A
100
AcDbEntity
  8
View002
  6
ByLayer
 62
  256
370
   -1
100
AcDbLine
 10
121.367
 20
129.259
 11
125.606
 21
129.259
  0
LINE
  5
9B
100
AcDbEntity
  8
View002
  6
ByLayer
 62
  256
370
   -1
100
AcDbLine
 10
121.367
 20
128.187
 11
121.367
 21
129.259
  0
LINE
  5
9C
100
AcDbEntity
  8
View002
  6
ByLayer
 62
  256
370
   -1
100
AcDbLine
 10
123.349
 20
128.187
 11
121.367
 21
128.187
  0
SPLINE
  5
9D
100
AcDbEntity
  8
View002
  6
ByLayer
 62
  256
370
   -1
100
AcDbSpline
210
0
220
0
230
0
 70
    8
 71
    2
 72
    6
 73
    3
 74
    0
 42
1e-007
 43
1e-007
 40
0
 40
0
 40
0
 40
1
 40
1
 40
1
 10
124.353
 20
128.105
 30
0
 10
124.08
 20
128.187
 30
0
 10
123.349
 20
128.187
 30
0
  0
SPLINE
  5
9E
100
AcDbEntity
  8
View002
  6
ByLayer
 62
  256
370
   -1
100
AcDbSpline
210
0
220
0
230
0
 70
    8
 71
    2
 72
    6
 73
    3
 74
    0
 42
1e-007
 43
1e-007
 40
0
 40
0
 40
0
 40
1
 40
1
 40
1
 10
124.788
 20
127.8
 30
0
 10
124.625
 20
128.021
 30
0
 10
124.353
 20
128.105
 30
0
  0
SPLINE
  5
9F
100
AcDbEntity
  8
View002
  6
ByLayer
 62
  256
370
   -1
100
AcDbSpline
210
0
220
0
230
0
 70
    8
 71
    2
 72
    6
 73
    3
 74
    0
 42
1e-007
 43
1e-007
 40
0
 40
0
 40
0
 40
1
 40
1
 40
1
 10
124.954
 20
127.3
 30
0
 10
124.954
 20
127.578
 30
0
 10
124.788
 20
127.8
 30
0
  0
SPLINE
  5
A0
100
AcDbEntity
  8
View002
  6
ByLayer
 62
  256
370
   -1
100
AcDbSpline
210
0
220
0
230
0
 70
    8
 71
    2
 72
    6
 73
    3
 74
    0
 42
1e-007
 43
1e-007
 40
0
 40
0
 40
0
 40
1
 40
1
 40
1
 10
124.837
 20
126.928
 30
0
 10
124.954
 20
127.081
 30
0
 10
124.954
 20
127.3
 30
0
  0
SPLINE
  5
A1
100
AcDbEntity
  8
View002
  6
ByLayer
 62
  256
370
   -1
100
AcDbSpline
210
0
220
0
230
0
 70
    8
 71
    2
 72
    6
 73
    3
 74
    0
 42
1e-007
 43
1e-007
 40
0
 40
0
 40
0
 40
1
 40
1
 40
1
 10
124.513
 20
126.704
 30
0
 10
124.722
 20
126.773
 30
0
 10
124.837
 20
126.928
 30
0
  0
SPLINE
  5
A2
100
AcDbEntity
  8
View002
  6
ByLayer
 62
  256
370
   -1
100
AcDbSpline
210
0
220
0
230
0
 70
    8
 71
    2
 72
    6
 73
    3
 74
    0
 42
1e-007
 43
1e-007
 40
0
 40
0
 40
0
 40
1
 40
1
 40
1
 10
123.599
 20
126.635
 30
0
 10
124.307
 20
126.635
 30
0
 10
124.513
 20
126.704
 30
0
  0
LINE
  5
A3
100
AcDbEntity
  8
View002
  6
ByLayer
 62
  256
370
   -1
100
AcDbLine
 10
121.367
 20
126.635
 11
123.599
 21
126.635
  0
LINE
  5
A4
100
AcDbEntity
  8
View002
  6
ByLayer
 62
  256
370
   -1
100
AcDbLine
 10
121.367
 20
120.801
 11
121.367
 21
121.8
  0
LINE
  5
A5
100
AcDbEntity
  8
View002
  6
ByLayer
 62
  256
370
   -1
100
AcDbLine
 10
127.074
 20
120.801
 11
121.367
 21
120.801
  0
LINE
  5
A6
100
AcDbEntity
  8
View002
  6
ByLayer
 62
  256
370
   -1
100
AcDbLine
 10
127.074
 20
121.876
 11
127.074
 21
120.801
  0
LINE
  5
A7
100
AcDbEntity
  8
View002
  6
ByLayer
 62
  256
370
   -1
100
AcDbLine
 10
125.204
 20
121.876
 11
127.074
 21
121.876
  0
SPLINE
  5
A8
100
AcDbEntity
  8
View002
  6
ByLayer
 62
  256
370
   -1
100
AcDbSpline
210
0
220
0
230
0
 70
    8
 71
    2
 72
    6
 73
    3
 74
    0
 42
1e-007
 43
1e-007
 40
0
 40
0
 40
0
 40
1
 40
1
 40
1
 10
125.769
 20
123.053
 30
0
 10
125.769
 20
122.373
 30
0
 10
125.204
 20
121.876
 30
0
  0
SPLINE
  5
A9
100
AcDbEntity
  8
View002
  6
ByLayer
 62
  256
370
   -1
100
AcDbSpline
210
0
220
0
230
0
 70
    8
 71
    2
 72
    6
 73
    3
 74
    0
 42
1e-007
 43
1e-007
 40
0
 40
0
 40
0
 40
1
 40
1
 40
1
 10
125.211
 20
124.281
 30
0
 10
125.769
 20
123.794
 30
0
 10
125.769
 20
123.053
 30
0
  0
SPLINE
  5
AA
100
AcDbEntity
  8
View002
  6
ByLayer
 62
  256
370
   -1
100
AcDbSpline
210
0
220
0
230
0
 70
    8
 71
    2
 72
    6
 73
    3
 74
    0
 42
1e-007
 43
1e-007
 40
0
 40
0
 40
0
 40
1
 40
1
 40
1
 10
123.583
 20
124.765
 30
0
 10
124.656
 20
124.765
 30
0
 10
125.211
 20
124.281
 30
0
  0
SPLINE
  5
AB
100
AcDbEntity
  8
View002
  6
ByLayer
 62
  256
370
   -1
100
AcDbSpline
210
0
220
0
230
0
 70
    8
 71
    2
 72
    6
 73
    3
 74
    0
 42
1e-007
 43
1e-007
 40
0
 40
0
 40
0
 40
1
 40
1
 40
1
 10
121.95
 20
124.266
 30
0
 10
122.536
 20
124.765
 30
0
 10
123.583
 20
124.765
 30
0
  0
SPLINE
  5
AC
100
AcDbEntity
  8
View002
  6
ByLayer
 62
  256
370
   -1
100
AcDbSpline
210
0
220
0
230
0
 70
    8
 71
    2
 72
    6
 73
    3
 74
    0
 42
1e-007
 43
1e-007
 40
0
 40
0
 40
0
 40
1
 40
1
 40
1
 10
121.367
 20
123.068
 30
0
 10
121.367
 20
123.766
 30
0
 10
121.95
 20
124.266
 30
0
  0
SPLINE
  5
AD
100
AcDbEntity
  8
View002
  6
ByLayer
 62
  256
370
   -1
100
AcDbSpline
210
0
220
0
230
0
 70
    8
 71
    2
 72
    6
 73
    3
 74
    0
 42
1e-007
 43
1e-007
 40
0
 40
0
 40
0
 40
1
 40
1
 40
1
 10
121.492
 20
122.386
 30
0
 10
121.367
 20
122.724
 30
0
 10
121.367
 20
123.068
 30
0
  0
SPLINE
  5
AE
100
AcDbEntity
  8
View002
  6
ByLayer
 62
  256
370
   -1
100
AcDbSpline
210
0
220
0
230
0
 70
    8
 71
    2
 72
    6
 73
    3
 74
    0
 42
1e-007
 43
1e-007
 40
0
 40
0
 40
0
 40
1
 40
1
 40
1
 10
121.963
 20
121.8
 30
0
 10
121.616
 20
122.047
 30
0
 10
121.492
 20
122.386
 30
0
  0
LINE
  5
AF
100
AcDbEntity
  8
View002
  6
ByLayer
 62
  256
370
   -1
100
AcDbLine
 10
121.367
 20
121.8
 11
121.963
 21
121.8
  0
SPLINE
  5
B0
100
AcDbEntity
  8
View002
  6
ByLayer
 62
  256
370
   -1
100
AcDbSpline
210
0
220
0
230
0
 70
    8
 71
    2
 72
    6
 73
    3
 74
    0
 42
1e-007
 43
1e-007
 40
0
 40
0
 40
0
 40
1
 40
1
 40
1
 10
123.649
 20
123.667
 30
0
 10
122.949
 20
123.667
 30
0
 10
122.635
 20
123.486
 30
0
  0
SPLINE
  5
B1
100
AcDbEntity
  8
View002
  6
ByLayer
 62
  256
370
   -1
100
AcDbSpline
210
0
220
0
230
0
 70
    8
 71
    2
 72
    6
 73
    3
 74
    0
 42
1e-007
 43
1e-007
 40
0
 40
0
 40
0
 40
1
 40
1
 40
1
 10
124.625
 20
123.41
 30
0
 10
124.299
 20
123.667
 30
0
 10
123.649
 20
123.667
 30
0
  0
SPLINE
  5
B2
100
AcDbEntity
  8
View002
  6
ByLayer
 62
  256
370
   -1
100
AcDbSpline
210
0
220
0
230
0
 70
    8
 71
    2
 72
    6
 73
    3
 74
    0
 42
1e-007
 43
1e-007
 40
0
 40
0
 40
0
 40
1
 40
1
 40
1
 10
124.954
 20
122.768
 30
0
 10
124.954
 20
123.15
 30
0
 10
124.625
 20
123.41
 30
0
  0
SPLINE
  5
B3
100
AcDbEntity
  8
View002
  6
ByLayer
 62
  256
370
   -1
100
AcDbSpline
210
0
220
0
230
0
 70
    8
 71
    2
 72
    6
 73
    3
 74
    0
 42
1e-007
 43
1e-007
 40
0
 40
0
 40
0
 40
1
 40
1
 40
1
 10
124.623
 20
122.123
 30
0
 10
124.954
 20
122.375
 30
0
 10
124.954
 20
122.768
 30
0
  0
SPLINE
  5
B4
100
AcDbEntity
  8
View002
  6
ByLayer
 62
  256
370
   -1
100
AcDbSpline
210
0
220
0
230
0
 70
    8
 71
    2
 72
    6
 73
    3
 74
    0
 42
1e-007
 43
1e-007
 40
0
 40
0
 40
0
 40
1
 40
1
 40
1
 10
123.537
 20
121.871
 30
0
 10
124.292
 20
121.871
 30
0
 10
124.623
 20
122.123
 30
0
  0
SPLINE
  5
B5
100
AcDbEntity
  8
View002
  6
ByLayer
 62
  256
370
   -1
100
AcDbSpline
210
0
220
0
230
0
 70
    8
 71
    2
 72
    6
 73
    3
 74
    0
 42
1e-007
 43
1e-007
 40
0
 40
0
 40
0
 40
1
 40
1
 40
1
 10
122.521
 20
122.131
 30
0
 10
122.862
 20
121.871
 30
0
 10
123.537
 20
121.871
 30
0
  0
SPLINE
  5
B6
100
AcDbEntity
  8
View002
  6
ByLayer
 62
  256
370
   -1
100
AcDbSpline
210
0
220
0
230
0
 70
    8
 71
    2
 72
    6
 73
    3
 74
    0
 42
1e-007
 43
1e-007
 40
0
 40
0
 40
0
 40
1
 40
1
 40
1
 10
122.182
 20
122.76
 30
0
 10
122.182
 20
122.391
 30
0
 10
122.521
 20
122.131
 30
0
  0
SPLINE
  5
B7
100
AcDbEntity
  8
View002
  6
ByLayer
 62
  256
370
   -1
100
AcDbSpline
210
0
220
0
230
0
 70
    8
 71
    2
 72
    6
 73
    3
 74
    0
 42
1e-007
 43
1e-007
 40
0
 40
0
 40
0
 40
1
 40
1
 40
1
 10
122.635
 20
123.486
 30
0
 10
122.182
 20
123.226
 30
0
 10
122.182
 20
122.76
 30
0
  0
SPLINE
  5
B8
100
AcDbEntity
  8
View002
  6
ByLayer
 62
  256
370
   -1
100
AcDbSpline
210
0
220
0
230
0
 70
    8
 71
    2
 72
    6
 73
    3
 74
    0
 42
1e-007
 43
1e-007
 40
0
 40
0
 40
0
 40
1
 40
1
 40
1
 10
123.627
 20
120.044
 30
0
 10
124.182
 20
120.044
 30
0
 10
124.702
 20
119.782
 30
0
  0
SPLINE
  5
B9
100
AcDbEntity
  8
View002
  6
ByLayer
 62
  256
370
   -1
100
AcDbSpline
210
0
220
0
230
0
 70
    8
 71
    2
 72
    6
 73
    3
 74
    0
 42
1e-007
 43
1e-007
 40
0
 40
0
 40
0
 40
1
 40
1
 40
1
 10
122.393
 20
119.782
 30
0
 10
122.9
 20
120.044
 30
0
 10
123.627
 20
120.044
 30
0
  0
SPLINE
  5
BA
100
AcDbEntity
  8
View002
  6
ByLayer
 62
  256
370
   -1
100
AcDbSpline
210
0
220
0
230
0
 70
    8
 71
    2
 72
    6
 73
    3
 74
    0
 42
1e-007
 43
1e-007
 40
0
 40
0
 40
0
 40
1
 40
1
 40
1
 10
121.627
 20
119.01
 30
0
 10
121.889
 20
119.517
 30
0
 10
122.393
 20
119.782
 30
0
  0
SPLINE
  5
BB
100
AcDbEntity
  8
View002
  6
ByLayer
 62
  256
370
   -1
100
AcDbSpline
210
0
220
0
230
0
 70
    8
 71
    2
 72
    6
 73
    3
 74
    0
 42
1e-007
 43
1e-007
 40
0
 40
0
 40
0
 40
1
 40
1
 40
1
 10
121.367
 20
117.945
 30
0
 10
121.367
 20
118.503
 30
0
 10
121.627
 20
119.01
 30
0
  0
SPLINE
  5
BC
100
AcDbEntity
  8
View002
  6
ByLayer
 62
  256
370
   -1
100
AcDbSpline
210
0
220
0
230
0
 70
    8
 71
    2
 72
    6
 73
    3
 74
    0
 42
1e-007
 43
1e-007
 40
0
 40
0
 40
0
 40
1
 40
1
 40
1
 10
121.993
 20
116.449
 30
0
 10
121.367
 20
117.043
 30
0
 10
121.367
 20
117.945
 30
0
  0
SPLINE
  5
BD
100
AcDbEntity
  8
View002
  6
ByLayer
 62
  256
370
   -1
100
AcDbSpline
210
0
220
0
230
0
 70
    8
 71
    2
 72
    6
 73
    3
 74
    0
 42
1e-007
 43
1e-007
 40
0
 40
0
 40
0
 40
1
 40
1
 40
1
 10
123.581
 20
115.856
 30
0
 10
122.623
 20
115.856
 30
0
 10
121.993
 20
116.449
 30
0
  0
SPLINE
  5
BE
100
AcDbEntity
  8
View002
  6
ByLayer
 62
  256
370
   -1
100
AcDbSpline
210
0
220
0
230
0
 70
    8
 71
    2
 72
    6
 73
    3
 74
    0
 42
1e-007
 43
1e-007
 40
0
 40
0
 40
0
 40
1
 40
1
 40
1
 10
125.148
 20
116.444
 30
0
 10
124.528
 20
115.856
 30
0
 10
123.581
 20
115.856
 30
0
  0
SPLINE
  5
BF
100
AcDbEntity
  8
View002
  6
ByLayer
 62
  256
370
   -1
100
AcDbSpline
210
0
220
0
230
0
 70
    8
 71
    2
 72
    6
 73
    3
 74
    0
 42
1e-007
 43
1e-007
 40
0
 40
0
 40
0
 40
1
 40
1
 40
1
 10
125.769
 20
117.952
 30
0
 10
125.769
 20
117.033
 30
0
 10
125.148
 20
116.444
 30
0
  0
SPLINE
  5
C0
100
AcDbEntity
  8
View002
  6
ByLayer
 62
  256
370
   -1
100
AcDbSpline
210
0
220
0
230
0
 70
    8
 71
    2
 72
    6
 73
    3
 74
    0
 42
1e-007
 43
1e-007
 40
0
 40
0
 40
0
 40
1
 40
1
 40
1
 10
125.494
 20
119.033
 30
0
 10
125.769
 20
118.549
 30
0
 10
125.769
 20
117.952
 30
0
  0
SPLINE
  5
C1
100
AcDbEntity
  8
View002
  6
ByLayer
 62
  256
370
   -1
100
AcDbSpline
210
0
220
0
230
0
 70
    8
 71
    2
 72
    6
 73
    3
 74
    0
 42
1e-007
 43
1e-007
 40
0
 40
0
 40
0
 40
1
 40
1
 40
1
 10
124.702
 20
119.782
 30
0
 10
125.221
 20
119.517
 30
0
 10
125.494
 20
119.033
 30
0
  0
SPLINE
  5
C2
100
AcDbEntity
  8
View002
  6
ByLayer
 62
  256
370
   -1
100
AcDbSpline
210
0
220
0
230
0
 70
    8
 71
    2
 72
    6
 73
    3
 74
    0
 42
1e-007
 43
1e-007
 40
0
 40
0
 40
0
 40
1
 40
1
 40
1
 10
123.568
 20
118.943
 30
0
 10
122.895
 20
118.943
 30
0
 10
122.539
 20
118.658
 30
0
  0
SPLINE
  5
C3
100
AcDbEntity
  8
View002
  6
ByLayer
 62
  256
370
   -1
100
AcDbSpline
210
0
220
0
230
0
 70
    8
 71
    2
 72
    6
 73
    3
 74
    0
 42
1e-007
 43
1e-007
 40
0
 40
0
 40
0
 40
1
 40
1
 40
1
 10
124.597
 20
118.658
 30
0
 10
124.241
 20
118.943
 30
0
 10
123.568
 20
118.943
 30
0
  0
SPLINE
  5
C4
100
AcDbEntity
  8
View002
  6
ByLayer
 62
  256
370
   -1
100
AcDbSpline
210
0
220
0
230
0
 70
    8
 71
    2
 72
    6
 73
    3
 74
    0
 42
1e-007
 43
1e-007
 40
0
 40
0
 40
0
 40
1
 40
1
 40
1
 10
124.954
 20
117.95
 30
0
 10
124.954
 20
118.37
 30
0
 10
124.597
 20
118.658
 30
0
  0
SPLINE
  5
C5
100
AcDbEntity
  8
View002
  6
ByLayer
 62
  256
370
   -1
100
AcDbSpline
210
0
220
0
230
0
 70
    8
 71
    2
 72
    6
 73
    3
 74
    0
 42
1e-007
 43
1e-007
 40
0
 40
0
 40
0
 40
1
 40
1
 40
1
 10
124.597
 20
117.244
 30
0
 10
124.954
 20
117.529
 30
0
 10
124.954
 20
117.95
 30
0
  0
SPLINE
  5
C6
100
AcDbEntity
  8
View002
  6
ByLayer
 62
  256
370
   -1
100
AcDbSpline
210
0
220
0
230
0
 70
    8
 71
    2
 72
    6
 73
    3
 74
    0
 42
1e-007
 43
1e-007
 40
0
 40
0
 40
0
 40
1
 40
1
 40
1
 10
123.576
 20
116.959
 30
0
 10
124.241
 20
116.959
 30
0
 10
124.597
 20
117.244
 30
0
  0
SPLINE
  5
C7
100
AcDbEntity
  8
View002
  6
ByLayer
 62
  256
370
   -1
100
AcDbSpline
210
0
220
0
230
0
 70
    8
 71
    2
 72
    6
 73
    3
 74
    0
 42
1e-007
 43
1e-007
 40
0
 40
0
 40
0
 40
1
 40
1
 40
1
 10
122.539
 20
117.244
 30
0
 10
122.895
 20
116.959
 30
0
 10
123.576
 20
116.959
 30
0
  0
SPLINE
  5
C8
100
AcDbEntity
  8
View002
  6
ByLayer
 62
  256
370
   -1
100
AcDbSpline
210
0
220
0
230
0
 70
    8
 71
    2
 72
    6
 73
    3
 74
    0
 42
1e-007
 43
1e-007
 40
0
 40
0
 40
0
 40
1
 40
1
 40
1
 10
122.182
 20
117.95
 30
0
 10
122.182
 20
117.529
 30
0
 10
122.539
 20
117.244
 30
0
  0
SPLINE
  5
C9
100
AcDbEntity
  8
View002
  6
ByLayer
 62
  256
370
   -1
100
AcDbSpline
210
0
220
0
230
0
 70
    8
 71
    2
 72
    6
 73
    3
 74
    0
 42
1e-007
 43
1e-007
 40
0
 40
0
 40
0
 40
1
 40
1
 40
1
 10
122.539
 20
118.658
 30
0
 10
122.182
 20
118.37
 30
0
 10
122.182
 20
117.95
 30
0
  0
LINE
  5
CA
100
AcDbEntity
  8
View003
  6
ByLayer
 62
  256
370
   -1
100
AcDbLine
 10
158.647
 20
115.481
 11
154.407
 21
115.481
  0
LINE
  5
CB
100
AcDbEntity
  8
View003
  6
ByLayer
 62
  256
370
   -1
100
AcDbLine
 10
158.647
 20
116.553
 11
158.647
 21
115.481
  0
LINE
  5
CC
100
AcDbEntity
  8
View003
  6
ByLayer
 62
  256
370
   -1
100
AcDbLine
 10
154.407
 20
116.553
 11
158.647
 21
116.553
  0
LINE
  5
CD
100
AcDbEntity
  8
View003
  6
ByLayer
 62
  256
370
   -1
100
AcDbLine
 10
154.407
 20
115.481
 11
154.407
 21
116.553
  0
LINE
  5
CE
100
AcDbEntity
  8
View003
  6
ByLayer
 62
  256
370
   -1
100
AcDbLine
 10
153.918
 20
115.481
 11
152.94
 21
115.481
  0
LINE
  5
CF
100
AcDbEntity
  8
View003
  6
ByLayer
 62
  256
370
   -1
100
AcDbLine
 10
153.918
 20
116.553
 11
153.918
 21
115.481
  0
LINE
  5
D0
100
AcDbEntity
  8
View003
  6
ByLayer
 62
  256
370
   -1
100
AcDbLine
 10
152.94
 20
116.553
 11
153.918
 21
116.553
  0
LINE
  5
D1
100
AcDbEntity
  8
View003
  6
ByLayer
 62
  256
370
   -1
100
AcDbLine
 10
152.94
 20
115.481
 11
152.94
 21
116.553
  0
LINE
  5
D2
100
AcDbEntity
  8
View003
  6
ByLayer
 62
  256
370
   -1
100
AcDbLine
 10
158.647
 20
120.27
 11
158.038
 21
120.27
  0
LINE
  5
D3
100
AcDbEntity
  8
View003
  6
ByLayer
 62
  256
370
   -1
100
AcDbLine
 10
158.647
 20
121.269
 11
158.647
 21
120.27
  0
LINE
  5
D4
100
AcDbEntity
  8
View003
  6
ByLayer
 62
  256
370
   -1
100
AcDbLine
 10
154.407
 20
121.269
 11
158.647
 21
121.269
  0
LINE
  5
D5
100
AcDbEntity
  8
View003
  6
ByLayer
 62
  256
370
   -1
100
AcDbLine
 10
154.407
 20
120.194
 11
154.407
 21
121.269
  0
LINE
  5
D6
100
AcDbEntity
  8
View003
  6
ByLayer
 62
  256
370
   -1
100
AcDbLine
 10
156.165
 20
120.194
 11
154.407
 21
120.194
  0
SPLINE
  5
D7
100
AcDbEntity
  8
View003
  6
ByLayer
 62
  256
370
   -1
100
AcDbSpline
210
0
220
0
230
0
 70
    8
 71
    2
 72
    6
 73
    3
 74
    0
 42
1e-007
 43
1e-007
 40
0
 40
0
 40
0
 40
1
 40
1
 40
1
 10
157.291
 20
120.112
 30
0
 10
157.062
 20
120.194
 30
0
 10
156.165
 20
120.194
 30
0
  0
SPLINE
  5
D8
100
AcDbEntity
  8
View003
  6
ByLayer
 62
  256
370
   -1
100
AcDbSpline
210
0
220
0
230
0
 70
    8
 71
    2
 72
    6
 73
    3
 74
    0
 42
1e-007
 43
1e-007
 40
0
 40
0
 40
0
 40
1
 40
1
 40
1
 10
157.676
 20
119.814
 30
0
 10
157.521
 20
120.033
 30
0
 10
157.291
 20
120.112
 30
0
  0
SPLINE
  5
D9
100
AcDbEntity
  8
View003
  6
ByLayer
 62
  256
370
   -1
100
AcDbSpline
210
0
220
0
230
0
 70
    8
 71
    2
 72
    6
 73
    3
 74
    0
 42
1e-007
 43
1e-007
 40
0
 40
0
 40
0
 40
1
 40
1
 40
1
 10
157.831
 20
119.323
 30
0
 10
157.831
 20
119.598
 30
0
 10
157.676
 20
119.814
 30
0
  0
SPLINE
  5
DA
100
AcDbEntity
  8
View003
  6
ByLayer
 62
  256
370
   -1
100
AcDbSpline
210
0
220
0
230
0
 70
    8
 71
    2
 72
    6
 73
    3
 74
    0
 42
1e-007
 43
1e-007
 40
0
 40
0
 40
0
 40
1
 40
1
 40
1
 10
157.717
 20
118.925
 30
0
 10
157.831
 20
119.083
 30
0
 10
157.831
 20
119.323
 30
0
  0
SPLINE
  5
DB
100
AcDbEntity
  8
View003
  6
ByLayer
 62
  256
370
   -1
100
AcDbSpline
210
0
220
0
230
0
 70
    8
 71
    2
 72
    6
 73
    3
 74
    0
 42
1e-007
 43
1e-007
 40
0
 40
0
 40
0
 40
1
 40
1
 40
1
 10
157.401
 20
118.709
 30
0
 10
157.6
 20
118.77
 30
0
 10
157.717
 20
118.925
 30
0
  0
SPLINE
  5
DC
100
AcDbEntity
  8
View003
  6
ByLayer
 62
  256
370
   -1
100
AcDbSpline
210
0
220
0
230
0
 70
    8
 71
    2
 72
    6
 73
    3
 74
    0
 42
1e-007
 43
1e-007
 40
0
 40
0
 40
0
 40
1
 40
1
 40
1
 10
156.323
 20
118.65
 30
0
 10
157.202
 20
118.65
 30
0
 10
157.401
 20
118.709
 30
0
  0
LINE
  5
DD
100
AcDbEntity
  8
View003
  6
ByLayer
 62
  256
370
   -1
100
AcDbLine
 10
154.407
 20
118.65
 11
156.323
 21
118.65
  0
LINE
  5
DE
100
AcDbEntity
  8
View003
  6
ByLayer
 62
  256
370
   -1
100
AcDbLine
 10
154.407
 20
117.577
 11
154.407
 21
118.65
  0
LINE
  5
DF
100
AcDbEntity
  8
View003
  6
ByLayer
 62
  256
370
   -1
100
AcDbLine
 10
157.031
 20
117.577
 11
154.407
 21
117.577
  0
SPLINE
  5
E0
100
AcDbEntity
  8
View003
  6
ByLayer
 62
  256
370
   -1
100
AcDbSpline
210
0
220
0
230
0
 70
    8
 71
    2
 72
    6
 73
    3
 74
    0
 42
1e-007
 43
1e-007
 40
0
 40
0
 40
0
 40
1
 40
1
 40
1
 10
157.949
 20
117.723
 30
0
 10
157.615
 20
117.577
 30
0
 10
157.031
 20
117.577
 30
0
  0
SPLINE
  5
E1
100
AcDbEntity
  8
View003
  6
ByLayer
 62
  256
370
   -1
100
AcDbSpline
210
0
220
0
230
0
 70
    8
 71
    2
 72
    6
 73
    3
 74
    0
 42
1e-007
 43
1e-007
 40
0
 40
0
 40
0
 40
1
 40
1
 40
1
 10
158.463
 20
118.191
 30
0
 10
158.28
 20
117.868
 30
0
 10
157.949
 20
117.723
 30
0
  0
SPLINE
  5
E2
100
AcDbEntity
  8
View003
  6
ByLayer
 62
  256
370
   -1
100
AcDbSpline
210
0
220
0
230
0
 70
    8
 71
    2
 72
    6
 73
    3
 74
    0
 42
1e-007
 43
1e-007
 40
0
 40
0
 40
0
 40
1
 40
1
 40
1
 10
158.647
 20
118.925
 30
0
 10
158.647
 20
118.518
 30
0
 10
158.463
 20
118.191
 30
0
  0
SPLINE
  5
E3
100
AcDbEntity
  8
View003
  6
ByLayer
 62
  256
370
   -1
100
AcDbSpline
210
0
220
0
230
0
 70
    8
 71
    2
 72
    6
 73
    3
 74
    0
 42
1e-007
 43
1e-007
 40
0
 40
0
 40
0
 40
1
 40
1
 40
1
 10
158.507
 20
119.687
 30
0
 10
158.647
 20
119.328
 30
0
 10
158.647
 20
118.925
 30
0
  0
SPLINE
  5
E4
100
AcDbEntity
  8
View003
  6
ByLayer
 62
  256
370
   -1
100
AcDbSpline
210
0
220
0
230
0
 70
    8
 71
    2
 72
    6
 73
    3
 74
    0
 42
1e-007
 43
1e-007
 40
0
 40
0
 40
0
 40
1
 40
1
 40
1
 10
158.038
 20
120.27
 30
0
 10
158.364
 20
120.049
 30
0
 10
158.507
 20
119.687
 30
0
  0
SPLINE
  5
E5
100
AcDbEntity
  8
View003
  6
ByLayer
 62
  256
370
   -1
100
AcDbSpline
210
0
220
0
230
0
 70
    8
 71
    2
 72
    6
 73
    3
 74
    0
 42
1e-007
 43
1e-007
 40
0
 40
0
 40
0
 40
1
 40
1
 40
1
 10
152.94
 20
123.914
 30
0
 10
152.94
 20
124.729
 30
0
 10
153.518
 20
125.188
 30
0
  0
SPLINE
  5
E6
100
AcDbEntity
  8
View003
  6
ByLayer
 62
  256
370
   -1
100
AcDbSpline
210
0
220
0
230
0
 70
    8
 71
    2
 72
    6
 73
    3
 74
    0
 42
1e-007
 43
1e-007
 40
0
 40
0
 40
0
 40
1
 40
1
 40
1
 10
153.51
 20
122.645
 30
0
 10
152.94
 20
123.101
 30
0
 10
152.94
 20
123.914
 30
0
  0
SPLINE
  5
E7
100
AcDbEntity
  8
View003
  6
ByLayer
 62
  256
370
   -1
100
AcDbSpline
210
0
220
0
230
0
 70
    8
 71
    2
 72
    6
 73
    3
 74
    0
 42
1e-007
 43
1e-007
 40
0
 40
0
 40
0
 40
1
 40
1
 40
1
 10
155.783
 20
122.095
 30
0
 10
154.206
 20
122.095
 30
0
 10
153.51
 20
122.645
 30
0
  0
SPLINE
  5
E8
100
AcDbEntity
  8
View003
  6
ByLayer
 62
  256
370
   -1
100
AcDbSpline
210
0
220
0
230
0
 70
    8
 71
    2
 72
    6
 73
    3
 74
    0
 42
1e-007
 43
1e-007
 40
0
 40
0
 40
0
 40
1
 40
1
 40
1
 10
158.02
 20
122.594
 30
0
 10
157.393
 20
122.095
 30
0
 10
155.783
 20
122.095
 30
0
  0
SPLINE
  5
E9
100
AcDbEntity
  8
View003
  6
ByLayer
 62
  256
370
   -1
100
AcDbSpline
210
0
220
0
230
0
 70
    8
 71
    2
 72
    6
 73
    3
 74
    0
 42
1e-007
 43
1e-007
 40
0
 40
0
 40
0
 40
1
 40
1
 40
1
 10
158.647
 20
123.914
 30
0
 10
158.647
 20
123.096
 30
0
 10
158.02
 20
122.594
 30
0
  0
SPLINE
  5
EA
100
AcDbEntity
  8
View003
  6
ByLayer
 62
  256
370
   -1
100
AcDbSpline
210
0
220
0
230
0
 70
    8
 71
    2
 72
    6
 73
    3
 74
    0
 42
1e-007
 43
1e-007
 40
0
 40
0
 40
0
 40
1
 40
1
 40
1
 10
158.076
 20
125.183
 30
0
 10
158.647
 20
124.729
 30
0
 10
158.647
 20
123.914
 30
0
  0
SPLINE
  5
EB
100
AcDbEntity
  8
View003
  6
ByLayer
 62
  256
370
   -1
100
AcDbSpline
210
0
220
0
230
0
 70
    8
 71
    2
 72
    6
 73
    3
 74
    0
 42
1e-007
 43
1e-007
 40
0
 40
0
 40
0
 40
1
 40
1
 40
1
 10
155.796
 20
125.733
 30
0
 10
157.38
 20
125.733
 30
0
 10
158.076
 20
125.183
 30
0
  0
SPLINE
  5
EC
100
AcDbEntity
  8
View003
  6
ByLayer
 62
  256
370
   -1
100
AcDbSpline
210
0
220
0
230
0
 70
    8
 71
    2
 72
    6
 73
    3
 74
    0
 42
1e-007
 43
1e-007
 40
0
 40
0
 40
0
 40
1
 40
1
 40
1
 10
153.518
 20
125.188
 30
0
 10
154.206
 20
125.733
 30
0
 10
155.796
 20
125.733
 30
0
  0
SPLINE
  5
ED
100
AcDbEntity
  8
View003
  6
ByLayer
 62
  256
370
   -1
100
AcDbSpline
210
0
220
0
230
0
 70
    8
 71
    2
 72
    6
 73
    3
 74
    0
 42
1e-007
 43
1e-007
 40
0
 40
0
 40
0
 40
1
 40
1
 40
1
 10
153.918
 20
123.914
 30
0
 10
153.918
 20
123.72
 30
0
 10
154.038
 20
123.567
 30
0
  0
SPLINE
  5
EE
100
AcDbEntity
  8
View003
  6
ByLayer
 62
  256
370
   -1
100
AcDbSpline
210
0
220
0
230
0
 70
    8
 71
    2
 72
    6
 73
    3
 74
    0
 42
1e-007
 43
1e-007
 40
0
 40
0
 40
0
 40
1
 40
1
 40
1
 10
154.038
 20
124.26
 30
0
 10
153.918
 20
124.11
 30
0
 10
153.918
 20
123.914
 30
0
  0
SPLINE
  5
EF
100
AcDbEntity
  8
View003
  6
ByLayer
 62
  256
370
   -1
100
AcDbSpline
210
0
220
0
230
0
 70
    8
 71
    2
 72
    6
 73
    3
 74
    0
 42
1e-007
 43
1e-007
 40
0
 40
0
 40
0
 40
1
 40
1
 40
1
 10
154.507
 20
124.51
 30
0
 10
154.155
 20
124.411
 30
0
 10
154.038
 20
124.26
 30
0
  0
SPLINE
  5
F0
100
AcDbEntity
  8
View003
  6
ByLayer
 62
  256
370
   -1
100
AcDbSpline
210
0
220
0
230
0
 70
    8
 71
    2
 72
    6
 73
    3
 74
    0
 42
1e-007
 43
1e-007
 40
0
 40
0
 40
0
 40
1
 40
1
 40
1
 10
155.796
 20
124.609
 30
0
 10
154.856
 20
124.609
 30
0
 10
154.507
 20
124.51
 30
0
  0
SPLINE
  5
F1
100
AcDbEntity
  8
View003
  6
ByLayer
 62
  256
370
   -1
100
AcDbSpline
210
0
220
0
230
0
 70
    8
 71
    2
 72
    6
 73
    3
 74
    0
 42
1e-007
 43
1e-007
 40
0
 40
0
 40
0
 40
1
 40
1
 40
1
 10
157.126
 20
124.5
 30
0
 10
156.733
 20
124.609
 30
0
 10
155.796
 20
124.609
 30
0
  0
SPLINE
  5
F2
100
AcDbEntity
  8
View003
  6
ByLayer
 62
  256
370
   -1
100
AcDbSpline
210
0
220
0
230
0
 70
    8
 71
    2
 72
    6
 73
    3
 74
    0
 42
1e-007
 43
1e-007
 40
0
 40
0
 40
0
 40
1
 40
1
 40
1
 10
157.551
 20
124.263
 30
0
 10
157.431
 20
124.416
 30
0
 10
157.126
 20
124.5
 30
0
  0
SPLINE
  5
F3
100
AcDbEntity
  8
View003
  6
ByLayer
 62
  256
370
   -1
100
AcDbSpline
210
0
220
0
230
0
 70
    8
 71
    2
 72
    6
 73
    3
 74
    0
 42
1e-007
 43
1e-007
 40
0
 40
0
 40
0
 40
1
 40
1
 40
1
 10
157.668
 20
123.914
 30
0
 10
157.668
 20
124.11
 30
0
 10
157.551
 20
124.263
 30
0
  0
SPLINE
  5
F4
100
AcDbEntity
  8
View003
  6
ByLayer
 62
  256
370
   -1
100
AcDbSpline
210
0
220
0
230
0
 70
    8
 71
    2
 72
    6
 73
    3
 74
    0
 42
1e-007
 43
1e-007
 40
0
 40
0
 40
0
 40
1
 40
1
 40
1
 10
157.554
 20
123.567
 30
0
 10
157.668
 20
123.72
 30
0
 10
157.668
 20
123.914
 30
0
  0
SPLINE
  5
F5
100
AcDbEntity
  8
View003
  6
ByLayer
 62
  256
370
   -1
100
AcDbSpline
210
0
220
0
230
0
 70
    8
 71
    2
 72
    6
 73
    3
 74
    0
 42
1e-007
 43
1e-007
 40
0
 40
0
 40
0
 40
1
 40
1
 40
1
 10
157.085
 20
123.318
 30
0
 10
157.437
 20
123.417
 30
0
 10
157.554
 20
123.567
 30
0
  0
SPLINE
  5
F6
100
AcDbEntity
  8
View003
  6
ByLayer
 62
  256
370
   -1
100
AcDbSpline
210
0
220
0
230
0
 70
    8
 71
    2
 72
    6
 73
    3
 74
    0
 42
1e-007
 43
1e-007
 40
0
 40
0
 40
0
 40
1
 40
1
 40
1
 10
155.796
 20
123.218
 30
0
 10
156.733
 20
123.218
 30
0
 10
157.085
 20
123.318
 30
0
  0
SPLINE
  5
F7
100
AcDbEntity
  8
View003
  6
ByLayer
 62
  256
370
   -1
100
AcDbSpline
210
0
220
0
230
0
 70
    8
 71
    2
 72
    6
 73
    3
 74
    0
 42
1e-007
 43
1e-007
 40
0
 40
0
 40
0
 40
1
 40
1
 40
1
 10
154.461
 20
123.33
 30
0
 10
154.856
 20
123.218
 30
0
 10
155.796
 20
123.218
 30
0
  0
SPLINE
  5
F8
100
AcDbEntity
  8
View003
  6
ByLayer
 62
  256
370
   -1
100
AcDbSpline
210
0
220
0
230
0
 70
    8
 71
    2
 72
    6
 73
    3
 74
    0
 42
1e-007
 43
1e-007
 40
0
 40
0
 40
0
 40
1
 40
1
 40
1
 10
154.038
 20
123.567
 30
0
 10
154.155
 20
123.414
 30
0
 10
154.461
 20
123.33
 30
0
  0
LINE
  5
F9
100
AcDbEntity
  8
View003
  6
ByLayer
 62
  256
370
   -1
100
AcDbLine
 10
158.647
 20
130.423
 11
158.647
 21
129.348
  0
LINE
  5
FA
100
AcDbEntity
  8
View003
  6
ByLayer
 62
  256
370
   -1
100
AcDbLine
 10
155.972
 20
130.423
 11
158.647
 21
130.423
  0
SPLINE
  5
FB
100
AcDbEntity
  8
View003
  6
ByLayer
 62
  256
370
   -1
100
AcDbSpline
210
0
220
0
230
0
 70
    8
 71
    2
 72
    6
 73
    3
 74
    0
 42
1e-007
 43
1e-007
 40
0
 40
0
 40
0
 40
1
 40
1
 40
1
 10
155.205
 20
130.362
 30
0
 10
155.472
 20
130.423
 30
0
 10
155.972
 20
130.423
 30
0
  0
SPLINE
  5
FC
100
AcDbEntity
  8
View003
  6
ByLayer
 62
  256
370
   -1
100
AcDbSpline
210
0
220
0
230
0
 70
    8
 71
    2
 72
    6
 73
    3
 74
    0
 42
1e-007
 43
1e-007
 40
0
 40
0
 40
0
 40
1
 40
1
 40
1
 10
154.728
 20
130.153
 30
0
 10
154.937
 20
130.304
 30
0
 10
155.205
 20
130.362
 30
0
  0
SPLINE
  5
FD
100
AcDbEntity
  8
View003
  6
ByLayer
 62
  256
370
   -1
100
AcDbSpline
210
0
220
0
230
0
 70
    8
 71
    2
 72
    6
 73
    3
 74
    0
 42
1e-007
 43
1e-007
 40
0
 40
0
 40
0
 40
1
 40
1
 40
1
 10
154.382
 20
129.707
 30
0
 10
154.517
 20
130.003
 30
0
 10
154.728
 20
130.153
 30
0
  0
SPLINE
  5
FE
100
AcDbEntity
  8
View003
  6
ByLayer
 62
  256
370
   -1
100
AcDbSpline
210
0
220
0
230
0
 70
    8
 71
    2
 72
    6
 73
    3
 74
    0
 42
1e-007
 43
1e-007
 40
0
 40
0
 40
0
 40
1
 40
1
 40
1
 10
154.244
 20
129.058
 30
0
 10
154.244
 20
129.414
 30
0
 10
154.382
 20
129.707
 30
0
  0
SPLINE
  5
FF
100
AcDbEntity
  8
View003
  6
ByLayer
 62
  256
370
   -1
100
AcDbSpline
210
0
220
0
230
0
 70
    8
 71
    2
 72
    6
 73
    3
 74
    0
 42
1e-007
 43
1e-007
 40
0
 40
0
 40
0
 40
1
 40
1
 40
1
 10
155.003
 20
127.72
 30
0
 10
154.244
 20
128.253
 30
0
 10
154.244
 20
129.058
 30
0
  0
LINE
  5
100
100
AcDbEntity
  8
View003
  6
ByLayer
 62
  256
370
   -1
100
AcDbLine
 10
154.407
 20
127.72
 11
155.003
 21
127.72
  0
LINE
  5
101
100
AcDbEntity
  8
View003
  6
ByLayer
 62
  256
370
   -1
100
AcDbLine
 10
154.407
 20
126.724
 11
154.407
 21
127.72
  0
LINE
  5
102
100
AcDbEntity
  8
View003
  6
ByLayer
 62
  256
370
   -1
100
AcDbLine
 10
158.647
 20
126.724
 11
154.407
 21
126.724
  0
LINE
  5
103
100
AcDbEntity
  8
View003
  6
ByLayer
 62
  256
370
   -1
100
AcDbLine
 10
158.647
 20
127.797
 11
158.647
 21
126.724
  0
LINE
  5
104
100
AcDbEntity
  8
View003
  6
ByLayer
 62
  256
370
   -1
100
AcDbLine
 10
156.665
 20
127.797
 11
158.647
 21
127.797
  0
SPLINE
  5
105
100
AcDbEntity
  8
View003
  6
ByLayer
 62
  256
370
   -1
100
AcDbSpline
210
0
220
0
230
0
 70
    8
 71
    2
 72
    6
 73
    3
 74
    0
 42
1e-007
 43
1e-007
 40
0
 40
0
 40
0
 40
1
 40
1
 40
1
 10
155.661
 20
127.878
 30
0
 10
155.933
 20
127.797
 30
0
 10
156.665
 20
127.797
 30
0
  0
SPLINE
  5
106
100
AcDbEntity
  8
View003
  6
ByLayer
 62
  256
370
   -1
100
AcDbSpline
210
0
220
0
230
0
 70
    8
 71
    2
 72
    6
 73
    3
 74
    0
 42
1e-007
 43
1e-007
 40
0
 40
0
 40
0
 40
1
 40
1
 40
1
 10
155.225
 20
128.184
 30
0
 10
155.388
 20
127.962
 30
0
 10
155.661
 20
127.878
 30
0
  0
SPLINE
  5
107
100
AcDbEntity
  8
View003
  6
ByLayer
 62
  256
370
   -1
100
AcDbSpline
210
0
220
0
230
0
 70
    8
 71
    2
 72
    6
 73
    3
 74
    0
 42
1e-007
 43
1e-007
 40
0
 40
0
 40
0
 40
1
 40
1
 40
1
 10
155.059
 20
128.683
 30
0
 10
155.059
 20
128.405
 30
0
 10
155.225
 20
128.184
 30
0
  0
SPLINE
  5
108
100
AcDbEntity
  8
View003
  6
ByLayer
 62
  256
370
   -1
100
AcDbSpline
210
0
220
0
230
0
 70
    8
 71
    2
 72
    6
 73
    3
 74
    0
 42
1e-007
 43
1e-007
 40
0
 40
0
 40
0
 40
1
 40
1
 40
1
 10
155.177
 20
129.055
 30
0
 10
155.059
 20
128.902
 30
0
 10
155.059
 20
128.683
 30
0
  0
SPLINE
  5
109
100
AcDbEntity
  8
View003
  6
ByLayer
 62
  256
370
   -1
100
AcDbSpline
210
0
220
0
230
0
 70
    8
 71
    2
 72
    6
 73
    3
 74
    0
 42
1e-007
 43
1e-007
 40
0
 40
0
 40
0
 40
1
 40
1
 40
1
 10
155.5
 20
129.279
 30
0
 10
155.291
 20
129.211
 30
0
 10
155.177
 20
129.055
 30
0
  0
SPLINE
  5
10A
100
AcDbEntity
  8
View003
  6
ByLayer
 62
  256
370
   -1
100
AcDbSpline
210
0
220
0
230
0
 70
    8
 71
    2
 72
    6
 73
    3
 74
    0
 42
1e-007
 43
1e-007
 40
0
 40
0
 40
0
 40
1
 40
1
 40
1
 10
156.415
 20
129.348
 30
0
 10
155.707
 20
129.348
 30
0
 10
155.5
 20
129.279
 30
0
  0
LINE
  5
10B
100
AcDbEntity
  8
View003
  6
ByLayer
 62
  256
370
   -1
100
AcDbLine
 10
158.647
 20
129.348
 11
156.415
 21
129.348
  0
LINE
  5
10C
100
AcDbEntity
  8
View003
  6
ByLayer
 62
  256
370
   -1
100
AcDbLine
 10
158.647
 20
135.183
 11
158.647
 21
134.184
  0
LINE
  5
10D
100
AcDbEntity
  8
View003
  6
ByLayer
 62
  256
370
   -1
100
AcDbLine
 10
152.94
 20
135.183
 11
158.647
 21
135.183
  0
LINE
  5
10E
100
AcDbEntity
  8
View003
  6
ByLayer
 62
  256
370
   -1
100
AcDbLine
 10
152.94
 20
134.107
 11
152.94
 21
135.183
  0
LINE
  5
10F
100
AcDbEntity
  8
View003
  6
ByLayer
 62
  256
370
   -1
100
AcDbLine
 10
154.81
 20
134.107
 11
152.94
 21
134.107
  0
SPLINE
  5
110
100
AcDbEntity
  8
View003
  6
ByLayer
 62
  256
370
   -1
100
AcDbSpline
210
0
220
0
230
0
 70
    8
 71
    2
 72
    6
 73
    3
 74
    0
 42
1e-007
 43
1e-007
 40
0
 40
0
 40
0
 40
1
 40
1
 40
1
 10
154.244
 20
132.93
 30
0
 10
154.244
 20
133.611
 30
0
 10
154.81
 20
134.107
 30
0
  0
SPLINE
  5
111
100
AcDbEntity
  8
View003
  6
ByLayer
 62
  256
370
   -1
100
AcDbSpline
210
0
220
0
230
0
 70
    8
 71
    2
 72
    6
 73
    3
 74
    0
 42
1e-007
 43
1e-007
 40
0
 40
0
 40
0
 40
1
 40
1
 40
1
 10
154.802
 20
131.702
 30
0
 10
154.244
 20
132.189
 30
0
 10
154.244
 20
132.93
 30
0
  0
SPLINE
  5
112
100
AcDbEntity
  8
View003
  6
ByLayer
 62
  256
370
   -1
100
AcDbSpline
210
0
220
0
230
0
 70
    8
 71
    2
 72
    6
 73
    3
 74
    0
 42
1e-007
 43
1e-007
 40
0
 40
0
 40
0
 40
1
 40
1
 40
1
 10
156.43
 20
131.218
 30
0
 10
155.358
 20
131.218
 30
0
 10
154.802
 20
131.702
 30
0
  0
SPLINE
  5
113
100
AcDbEntity
  8
View003
  6
ByLayer
 62
  256
370
   -1
100
AcDbSpline
210
0
220
0
230
0
 70
    8
 71
    2
 72
    6
 73
    3
 74
    0
 42
1e-007
 43
1e-007
 40
0
 40
0
 40
0
 40
1
 40
1
 40
1
 10
158.063
 20
131.718
 30
0
 10
157.477
 20
131.218
 30
0
 10
156.43
 20
131.218
 30
0
  0
SPLINE
  5
114
100
AcDbEntity
  8
View003
  6
ByLayer
 62
  256
370
   -1
100
AcDbSpline
210
0
220
0
230
0
 70
    8
 71
    2
 72
    6
 73
    3
 74
    0
 42
1e-007
 43
1e-007
 40
0
 40
0
 40
0
 40
1
 40
1
 40
1
 10
158.647
 20
132.915
 30
0
 10
158.647
 20
132.217
 30
0
 10
158.063
 20
131.718
 30
0
  0
SPLINE
  5
115
100
AcDbEntity
  8
View003
  6
ByLayer
 62
  256
370
   -1
100
AcDbSpline
210
0
220
0
230
0
 70
    8
 71
    2
 72
    6
 73
    3
 74
    0
 42
1e-007
 43
1e-007
 40
0
 40
0
 40
0
 40
1
 40
1
 40
1
 10
158.522
 20
133.598
 30
0
 10
158.647
 20
133.259
 30
0
 10
158.647
 20
132.915
 30
0
  0
SPLINE
  5
116
100
AcDbEntity
  8
View003
  6
ByLayer
 62
  256
370
   -1
100
AcDbSpline
210
0
220
0
230
0
 70
    8
 71
    2
 72
    6
 73
    3
 74
    0
 42
1e-007
 43
1e-007
 40
0
 40
0
 40
0
 40
1
 40
1
 40
1
 10
158.051
 20
134.184
 30
0
 10
158.397
 20
133.937
 30
0
 10
158.522
 20
133.598
 30
0
  0
LINE
  5
117
100
AcDbEntity
  8
View003
  6
ByLayer
 62
  256
370
   -1
100
AcDbLine
 10
158.647
 20
134.184
 11
158.051
 21
134.184
  0
SPLINE
  5
118
100
AcDbEntity
  8
View003
  6
ByLayer
 62
  256
370
   -1
100
AcDbSpline
210
0
220
0
230
0
 70
    8
 71
    2
 72
    6
 73
    3
 74
    0
 42
1e-007
 43
1e-007
 40
0
 40
0
 40
0
 40
1
 40
1
 40
1
 10
156.364
 20
132.316
 30
0
 10
157.065
 20
132.316
 30
0
 10
157.378
 20
132.497
 30
0
  0
SPLINE
  5
119
100
AcDbEntity
  8
View003
  6
ByLayer
 62
  256
370
   -1
100
AcDbSpline
210
0
220
0
230
0
 70
    8
 71
    2
 72
    6
 73
    3
 74
    0
 42
1e-007
 43
1e-007
 40
0
 40
0
 40
0
 40
1
 40
1
 40
1
 10
155.388
 20
132.574
 30
0
 10
155.714
 20
132.316
 30
0
 10
156.364
 20
132.316
 30
0
  0
SPLINE
  5
11A
100
AcDbEntity
  8
View003
  6
ByLayer
 62
  256
370
   -1
100
AcDbSpline
210
0
220
0
230
0
 70
    8
 71
    2
 72
    6
 73
    3
 74
    0
 42
1e-007
 43
1e-007
 40
0
 40
0
 40
0
 40
1
 40
1
 40
1
 10
155.059
 20
133.216
 30
0
 10
155.059
 20
132.833
 30
0
 10
155.388
 20
132.574
 30
0
  0
SPLINE
  5
11B
100
AcDbEntity
  8
View003
  6
ByLayer
 62
  256
370
   -1
100
AcDbSpline
210
0
220
0
230
0
 70
    8
 71
    2
 72
    6
 73
    3
 74
    0
 42
1e-007
 43
1e-007
 40
0
 40
0
 40
0
 40
1
 40
1
 40
1
 10
155.391
 20
133.86
 30
0
 10
155.059
 20
133.608
 30
0
 10
155.059
 20
133.216
 30
0
  0
SPLINE
  5
11C
100
AcDbEntity
  8
View003
  6
ByLayer
 62
  256
370
   -1
100
AcDbSpline
210
0
220
0
230
0
 70
    8
 71
    2
 72
    6
 73
    3
 74
    0
 42
1e-007
 43
1e-007
 40
0
 40
0
 40
0
 40
1
 40
1
 40
1
 10
156.476
 20
134.112
 30
0
 10
155.722
 20
134.112
 30
0
 10
155.391
 20
133.86
 30
0
  0
SPLINE
  5
11D
100
AcDbEntity
  8
View003
  6
ByLayer
 62
  256
370
   -1
100
AcDbSpline
210
0
220
0
230
0
 70
    8
 71
    2
 72
    6
 73
    3
 74
    0
 42
1e-007
 43
1e-007
 40
0
 40
0
 40
0
 40
1
 40
1
 40
1
 10
157.493
 20
133.853
 30
0
 10
157.151
 20
134.112
 30
0
 10
156.476
 20
134.112
 30
0
  0
SPLINE
  5
11E
100
AcDbEntity
  8
View003
  6
ByLayer
 62
  256
370
   -1
100
AcDbSpline
210
0
220
0
230
0
 70
    8
 71
    2
 72
    6
 73
    3
 74
    0
 42
1e-007
 43
1e-007
 40
0
 40
0
 40
0
 40
1
 40
1
 40
1
 10
157.831
 20
133.223
 30
0
 10
157.831
 20
133.593
 30
0
 10
157.493
 20
133.853
 30
0
  0
SPLINE
  5
11F
100
AcDbEntity
  8
View003
  6
ByLayer
 62
  256
370
   -1
100
AcDbSpline
210
0
220
0
230
0
 70
    8
 71
    2
 72
    6
 73
    3
 74
    0
 42
1e-007
 43
1e-007
 40
0
 40
0
 40
0
 40
1
 40
1
 40
1
 10
157.378
 20
132.497
 30
0
 10
157.831
 20
132.757
 30
0
 10
157.831
 20
133.223
 30
0
  0
SPLINE
  5
120
100
AcDbEntity
  8
View003
  6
ByLayer
 62
  256
370
   -1
100
AcDbSpline
210
0
220
0
230
0
 70
    8
 71
    2
 72
    6
 73
    3
 74
    0
 42
1e-007
 43
1e-007
 40
0
 40
0
 40
0
 40
1
 40
1
 40
1
 10
156.387
 20
135.939
 30
0
 10
155.831
 20
135.939
 30
0
 10
155.312
 20
136.202
 30
0
  0
SPLINE
  5
121
100
AcDbEntity
  8
View003
  6
ByLayer
 62
  256
370
   -1
100
AcDbSpline
210
0
220
0
230
0
 70
    8
 71
    2
 72
    6
 73
    3
 74
    0
 42
1e-007
 43
1e-007
 40
0
 40
0
 40
0
 40
1
 40
1
 40
1
 10
157.62
 20
136.202
 30
0
 10
157.113
 20
135.939
 30
0
 10
156.387
 20
135.939
 30
0
  0
SPLINE
  5
122
100
AcDbEntity
  8
View003
  6
ByLayer
 62
  256
370
   -1
100
AcDbSpline
210
0
220
0
230
0
 70
    8
 71
    2
 72
    6
 73
    3
 74
    0
 42
1e-007
 43
1e-007
 40
0
 40
0
 40
0
 40
1
 40
1
 40
1
 10
158.387
 20
136.974
 30
0
 10
158.124
 20
136.467
 30
0
 10
157.62
 20
136.202
 30
0
  0
SPLINE
  5
123
100
AcDbEntity
  8
View003
  6
ByLayer
 62
  256
370
   -1
100
AcDbSpline
210
0
220
0
230
0
 70
    8
 71
    2
 72
    6
 73
    3
 74
    0
 42
1e-007
 43
1e-007
 40
0
 40
0
 40
0
 40
1
 40
1
 40
1
 10
158.647
 20
138.039
 30
0
 10
158.647
 20
137.481
 30
0
 10
158.387
 20
136.974
 30
0
  0
SPLINE
  5
124
100
AcDbEntity
  8
View003
  6
ByLayer
 62
  256
370
   -1
100
AcDbSpline
210
0
220
0
230
0
 70
    8
 71
    2
 72
    6
 73
    3
 74
    0
 42
1e-007
 43
1e-007
 40
0
 40
0
 40
0
 40
1
 40
1
 40
1
 10
158.02
 20
139.534
 30
0
 10
158.647
 20
138.94
 30
0
 10
158.647
 20
138.039
 30
0
  0
SPLINE
  5
125
100
AcDbEntity
  8
View003
  6
ByLayer
 62
  256
370
   -1
100
AcDbSpline
210
0
220
0
230
0
 70
    8
 71
    2
 72
    6
 73
    3
 74
    0
 42
1e-007
 43
1e-007
 40
0
 40
0
 40
0
 40
1
 40
1
 40
1
 10
156.433
 20
140.128
 30
0
 10
157.391
 20
140.128
 30
0
 10
158.02
 20
139.534
 30
0
  0
SPLINE
  5
126
100
AcDbEntity
  8
View003
  6
ByLayer
 62
  256
370
   -1
100
AcDbSpline
210
0
220
0
230
0
 70
    8
 71
    2
 72
    6
 73
    3
 74
    0
 42
1e-007
 43
1e-007
 40
0
 40
0
 40
0
 40
1
 40
1
 40
1
 10
154.866
 20
139.539
 30
0
 10
155.485
 20
140.128
 30
0
 10
156.433
 20
140.128
 30
0
  0
SPLINE
  5
127
100
AcDbEntity
  8
View003
  6
ByLayer
 62
  256
370
   -1
100
AcDbSpline
210
0
220
0
230
0
 70
    8
 71
    2
 72
    6
 73
    3
 74
    0
 42
1e-007
 43
1e-007
 40
0
 40
0
 40
0
 40
1
 40
1
 40
1
 10
154.244
 20
138.031
 30
0
 10
154.244
 20
138.951
 30
0
 10
154.866
 20
139.539
 30
0
  0
SPLINE
  5
128
100
AcDbEntity
  8
View003
  6
ByLayer
 62
  256
370
   -1
100
AcDbSpline
210
0
220
0
230
0
 70
    8
 71
    2
 72
    6
 73
    3
 74
    0
 42
1e-007
 43
1e-007
 40
0
 40
0
 40
0
 40
1
 40
1
 40
1
 10
154.519
 20
136.951
 30
0
 10
154.244
 20
137.435
 30
0
 10
154.244
 20
138.031
 30
0
  0
SPLINE
  5
129
100
AcDbEntity
  8
View003
  6
ByLayer
 62
  256
370
   -1
100
AcDbSpline
210
0
220
0
230
0
 70
    8
 71
    2
 72
    6
 73
    3
 74
    0
 42
1e-007
 43
1e-007
 40
0
 40
0
 40
0
 40
1
 40
1
 40
1
 10
155.312
 20
136.202
 30
0
 10
154.792
 20
136.467
 30
0
 10
154.519
 20
136.951
 30
0
  0
SPLINE
  5
12A
100
AcDbEntity
  8
View003
  6
ByLayer
 62
  256
370
   -1
100
AcDbSpline
210
0
220
0
230
0
 70
    8
 71
    2
 72
    6
 73
    3
 74
    0
 42
1e-007
 43
1e-007
 40
0
 40
0
 40
0
 40
1
 40
1
 40
1
 10
156.445
 20
137.04
 30
0
 10
157.118
 20
137.04
 30
0
 10
157.475
 20
137.325
 30
0
  0
SPLINE
  5
12B
100
AcDbEntity
  8
View003
  6
ByLayer
 62
  256
370
   -1
100
AcDbSpline
210
0
220
0
230
0
 70
    8
 71
    2
 72
    6
 73
    3
 74
    0
 42
1e-007
 43
1e-007
 40
0
 40
0
 40
0
 40
1
 40
1
 40
1
 10
155.416
 20
137.325
 30
0
 10
155.773
 20
137.04
 30
0
 10
156.445
 20
137.04
 30
0
  0
SPLINE
  5
12C
100
AcDbEntity
  8
View003
  6
ByLayer
 62
  256
370
   -1
100
AcDbSpline
210
0
220
0
230
0
 70
    8
 71
    2
 72
    6
 73
    3
 74
    0
 42
1e-007
 43
1e-007
 40
0
 40
0
 40
0
 40
1
 40
1
 40
1
 10
155.059
 20
138.033
 30
0
 10
155.059
 20
137.613
 30
0
 10
155.416
 20
137.325
 30
0
  0
SPLINE
  5
12D
100
AcDbEntity
  8
View003
  6
ByLayer
 62
  256
370
   -1
100
AcDbSpline
210
0
220
0
230
0
 70
    8
 71
    2
 72
    6
 73
    3
 74
    0
 42
1e-007
 43
1e-007
 40
0
 40
0
 40
0
 40
1
 40
1
 40
1
 10
155.416
 20
138.739
 30
0
 10
155.059
 20
138.454
 30
0
 10
155.059
 20
138.033
 30
0
  0
SPLINE
  5
12E
100
AcDbEntity
  8
View003
  6
ByLayer
 62
  256
370
   -1
100
AcDbSpline
210
0
220
0
230
0
 70
    8
 71
    2
 72
    6
 73
    3
 74
    0
 42
1e-007
 43
1e-007
 40
0
 40
0
 40
0
 40
1
 40
1
 40
1
 10
156.438
 20
139.025
 30
0
 10
155.773
 20
139.025
 30
0
 10
155.416
 20
138.739
 30
0
  0
SPLINE
  5
12F
100
AcDbEntity
  8
View003
  6
ByLayer
 62
  256
370
   -1
100
AcDbSpline
210
0
220
0
230
0
 70
    8
 71
    2
 72
    6
 73
    3
 74
    0
 42
1e-007
 43
1e-007
 40
0
 40
0
 40
0
 40
1
 40
1
 40
1
 10
157.475
 20
138.739
 30
0
 10
157.118
 20
139.025
 30
0
 10
156.438
 20
139.025
 30
0
  0
SPLINE
  5
130
100
AcDbEntity
  8
View003
  6
ByLayer
 62
  256
370
   -1
100
AcDbSpline
210
0
220
0
230
0
 70
    8
 71
    2
 72
    6
 73
    3
 74
    0
 42
1e-007
 43
1e-007
 40
0
 40
0
 40
0
 40
1
 40
1
 40
1
 10
157.831
 20
138.033
 30
0
 10
157.831
 20
138.454
 30
0
 10
157.475
 20
138.739
 30
0
  0
SPLINE
  5
131
100
AcDbEntity
  8
View003
  6
ByLayer
 62
  256
370
   -1
100
AcDbSpline
210
0
220
0
230
0
 70
    8
 71
    2
 72
    6
 73
    3
 74
    0
 42
1e-007
 43
1e-007
 40
0
 40
0
 40
0
 40
1
 40
1
 40
1
 10
157.475
 20
137.325
 30
0
 10
157.831
 20
137.613
 30
0
 10
157.831
 20
138.033
 30
0
  0
ENDSEC
  0
SECTION
  2
OBJECTS
  0
DICTIONARY
  5
C
330
0
100
AcDbDictionary
281
    1
  3
ACAD_GROUP
350
D
  0
DICTIONARY
  5
D
330
C
100
AcDbDictionary
281
    1
  0
ENDSEC
  0
EOF
