M48
; DRILL file {KiCad (6.0.1)} date Sat Jan 29 22:44:20 2022
; FORMAT={-:-/ absolute / metric / decimal}
; #@! TF.CreationDate,2022-01-29T22:44:20+01:00
; #@! TF.GenerationSoftware,Kicad,Pcbnew,(6.0.1)
; #@! TF.FileFunction,Plated,1,2,PTH
FMAT,2
METRIC
; #@! TA.AperFunction,Plated,PTH,ViaDrill
T1C0.400
; #@! TA.AperFunction,Plated,PTH,ComponentDrill
T2C0.500
; #@! TA.AperFunction,Plated,PTH,ComponentDrill
T3C0.600
; #@! TA.AperFunction,Plated,PTH,ComponentDrill
T4C0.900
; #@! TA.AperFunction,Plated,PTH,ComponentDrill
T5C1.000
; #@! TA.AperFunction,Plated,PTH,ComponentDrill
T6C1.200
; #@! TA.AperFunction,Plated,PTH,ComponentDrill
T7C1.300
; #@! TA.AperFunction,Plated,PTH,ComponentDrill
T8C2.500
; #@! TA.AperFunction,Plated,PTH,ComponentDrill
T9C4.300
; #@! TA.AperFunction,Plated,PTH,ComponentDrill
T10C4.500
%
G90
G05
T1
X108.616Y-80.787
X110.956Y-81.998
X111.591Y-93.127
X120.907Y-100.162
X123.462Y-86.353
X125.172Y-97.964
X131.58Y-108.846
X135.407Y-100.739
X146.493Y-114.004
X148.938Y-113.826
X154.887Y-114.882
X162.082Y-117.814
X163.22Y-86.246
X164.719Y-95.219
X164.756Y-79.668
X165.081Y-97.848
X165.09Y-89.188
X169.494Y-104.896
X177.32Y-96.787
X185.331Y-88.705
T2
X119.359Y-117.043
X119.908Y-115.717
X119.908Y-118.369
X121.234Y-115.168
X121.234Y-118.918
X122.56Y-115.717
X122.56Y-118.369
X123.109Y-117.043
T3
X100.663Y-100.787
X101.652Y-98.401
X101.652Y-103.174
X102.492Y-85.293
X103.481Y-82.907
X103.481Y-87.68
X104.038Y-97.412
X104.038Y-104.162
X105.867Y-81.918
X105.867Y-88.668
X106.425Y-98.401
X106.425Y-103.174
X107.413Y-100.787
X108.254Y-82.907
X108.254Y-87.68
X109.242Y-85.293
X110.315Y-113.182
X111.304Y-110.796
X111.304Y-115.569
X113.69Y-109.807
X113.69Y-116.557
X116.077Y-110.796
X116.077Y-115.569
X117.065Y-113.182
X125.86Y-115.011
X126.849Y-112.625
X126.849Y-117.398
X129.235Y-111.636
X129.235Y-118.386
X131.622Y-112.625
X131.622Y-117.398
X132.61Y-115.011
X137.081Y-92.284
X137.165Y-108.393
X137.215Y-90.904
X137.299Y-109.774
X137.636Y-93.73
X137.72Y-106.947
X137.994Y-89.632
X138.077Y-111.046
X138.648Y-94.847
X138.731Y-105.831
X139.266Y-88.853
X139.349Y-111.824
X139.764Y-95.859
X139.848Y-104.819
X140.646Y-88.719
X140.73Y-111.959
X141.21Y-96.414
X141.294Y-104.264
X142.092Y-89.274
X142.176Y-111.404
X142.591Y-96.28
X142.674Y-104.398
X143.209Y-90.286
X143.292Y-110.392
X143.863Y-95.501
X143.946Y-105.177
X144.22Y-91.403
X144.304Y-109.275
X144.641Y-94.229
X144.725Y-106.449
X144.775Y-92.849
X144.859Y-107.829
X152.566Y-92.84
X152.617Y-107.719
X152.7Y-94.22
X152.751Y-106.338
X153.121Y-91.394
X153.172Y-109.165
X153.479Y-95.492
X153.53Y-105.066
X154.133Y-90.277
X154.184Y-110.281
X154.751Y-96.271
X154.802Y-104.288
X155.249Y-89.265
X155.3Y-111.293
X156.131Y-96.405
X156.182Y-104.153
X156.695Y-88.71
X156.746Y-111.848
X157.577Y-95.85
X157.628Y-104.709
X158.076Y-88.845
X158.126Y-111.714
X158.694Y-94.838
X158.744Y-105.72
X159.348Y-89.623
X159.398Y-110.935
X159.705Y-93.721
X159.756Y-106.837
X160.126Y-90.895
X160.177Y-109.663
X160.261Y-92.275
X160.311Y-108.283
X164.671Y-115.011
X165.66Y-112.625
X165.66Y-117.398
X168.046Y-111.636
X168.046Y-118.386
X170.433Y-112.625
X170.433Y-117.398
X171.421Y-115.011
X180.216Y-113.132
X181.205Y-110.745
X181.205Y-115.518
X183.591Y-109.757
X183.591Y-116.507
X185.978Y-110.745
X185.978Y-115.518
X186.966Y-113.132
X188.141Y-85.293
X189.13Y-82.907
X189.13Y-87.68
X189.97Y-100.889
X190.958Y-98.502
X190.958Y-103.275
X191.516Y-81.918
X191.516Y-88.668
X193.345Y-97.514
X193.345Y-104.264
X193.902Y-82.907
X193.902Y-87.68
X194.891Y-85.293
X195.731Y-98.502
X195.731Y-103.275
X196.72Y-100.889
T4
X98.127Y-85.851
X99.891Y-75.845
X117.445Y-124.479
X127.259Y-121.85
T5
X124.928Y-99.441
X127.468Y-99.441
X130.008Y-99.441
X199.213Y-80.798
X199.213Y-83.338
X199.213Y-85.878
X199.213Y-88.418
X199.213Y-90.958
X199.213Y-93.498
T6
X102.062Y-109.653
X103.967Y-112.952
T7
X114.015Y-93.851
X116.603Y-84.191
X120.138Y-90.315
T8
X121.234Y-117.043
T10
X104.038Y-100.787
X105.867Y-85.293
X113.69Y-113.182
X129.235Y-115.011
X168.046Y-115.011
X183.591Y-113.132
X191.516Y-85.293
X193.345Y-100.889
T9
X139.938Y-91.577G85X141.918Y-93.556
G05
X142.002Y-107.121G85X140.022Y-109.101
G05
X155.423Y-93.548G85X157.403Y-91.568
G05
X157.454Y-108.991G85X155.474Y-107.011
G05
T0
M30
