G04 #@! TF.GenerationSoftware,KiCad,Pcbnew,(6.0.1)*
G04 #@! TF.CreationDate,2022-01-29T22:50:14+01:00*
G04 #@! TF.ProjectId,AntenneCentraleDipoloStrumentato,416e7465-6e6e-4654-9365-6e7472616c65,rev?*
G04 #@! TF.SameCoordinates,Original*
G04 #@! TF.FileFunction,Soldermask,Top*
G04 #@! TF.FilePolarity,Negative*
%FSLAX46Y46*%
G04 Gerber Fmt 4.6, Leading zero omitted, Abs format (unit mm)*
G04 Created by KiCad (PCBNEW (6.0.1)) date 2022-01-29 22:50:14*
%MOMM*%
%LPD*%
G01*
G04 APERTURE LIST*
G04 Aperture macros list*
%AMRoundRect*
0 Rectangle with rounded corners*
0 $1 Rounding radius*
0 $2 $3 $4 $5 $6 $7 $8 $9 X,Y pos of 4 corners*
0 Add a 4 corners polygon primitive as box body*
4,1,4,$2,$3,$4,$5,$6,$7,$8,$9,$2,$3,0*
0 Add four circle primitives for the rounded corners*
1,1,$1+$1,$2,$3*
1,1,$1+$1,$4,$5*
1,1,$1+$1,$6,$7*
1,1,$1+$1,$8,$9*
0 Add four rect primitives between the rounded corners*
20,1,$1+$1,$2,$3,$4,$5,0*
20,1,$1+$1,$4,$5,$6,$7,0*
20,1,$1+$1,$6,$7,$8,$9,0*
20,1,$1+$1,$8,$9,$2,$3,0*%
%AMHorizOval*
0 Thick line with rounded ends*
0 $1 width*
0 $2 $3 position (X,Y) of the first rounded end (center of the circle)*
0 $4 $5 position (X,Y) of the second rounded end (center of the circle)*
0 Add line between two ends*
20,1,$1,$2,$3,$4,$5,0*
0 Add two circle primitives to create the rounded ends*
1,1,$1,$2,$3*
1,1,$1,$4,$5*%
%AMRotRect*
0 Rectangle, with rotation*
0 The origin of the aperture is its center*
0 $1 length*
0 $2 width*
0 $3 Rotation angle, in degrees counterclockwise*
0 Add horizontal line*
21,1,$1,$2,0,0,$3*%
G04 Aperture macros list end*
%ADD10C,0.100000*%
%ADD11C,0.150000*%
%ADD12C,0.300000*%
%ADD13C,0.400000*%
%ADD14RoundRect,0.250000X-0.312500X-0.625000X0.312500X-0.625000X0.312500X0.625000X-0.312500X0.625000X0*%
%ADD15RoundRect,0.250000X0.547358X0.434374X-0.019085X0.698511X-0.547358X-0.434374X0.019085X-0.698511X0*%
%ADD16RoundRect,0.250000X0.641131X0.277907X0.162353X0.679649X-0.641131X-0.277907X-0.162353X-0.679649X0*%
%ADD17RoundRect,0.250000X0.625000X-0.312500X0.625000X0.312500X-0.625000X0.312500X-0.625000X-0.312500X0*%
%ADD18RoundRect,0.250000X0.743718X0.111843X0.468718X0.588157X-0.743718X-0.111843X-0.468718X-0.588157X0*%
%ADD19RoundRect,0.250000X0.312500X0.625000X-0.312500X0.625000X-0.312500X-0.625000X0.312500X-0.625000X0*%
%ADD20RoundRect,0.250000X-0.625000X0.312500X-0.625000X-0.312500X0.625000X-0.312500X0.625000X0.312500X0*%
%ADD21RoundRect,0.250000X1.451171X-0.236924X1.387983X0.485318X-1.451171X0.236924X-1.387983X-0.485318X0*%
%ADD22HorizOval,7.500000X1.060660X-1.060660X-1.060660X1.060660X0*%
%ADD23C,0.900000*%
%ADD24C,9.000000*%
%ADD25R,1.500000X2.000000*%
%ADD26R,3.800000X2.000000*%
%ADD27HorizOval,7.500000X-1.060660X1.060660X1.060660X-1.060660X0*%
%ADD28RoundRect,0.250000X-0.041867X0.697516X-0.583133X0.385016X0.041867X-0.697516X0.583133X-0.385016X0*%
%ADD29C,3.000000*%
%ADD30C,1.950000*%
%ADD31RotRect,1.800000X1.800000X195.000000*%
%ADD32HorizOval,1.800000X0.000000X0.000000X0.000000X0.000000X0*%
%ADD33RoundRect,0.250000X0.614470X0.332727X0.102500X0.691213X-0.614470X-0.332727X-0.102500X-0.691213X0*%
%ADD34RoundRect,0.250000X0.828017X1.215080X0.146740X1.463044X-0.828017X-1.215080X-0.146740X-1.463044X0*%
%ADD35RoundRect,0.250000X-0.398566X1.415336X-1.026434X1.052836X0.398566X-1.415336X1.026434X-1.052836X0*%
%ADD36HorizOval,7.500000X1.060660X1.060660X-1.060660X-1.060660X0*%
%ADD37R,1.700000X1.700000*%
%ADD38O,1.700000X1.700000*%
%ADD39RoundRect,0.250000X0.561240X-0.416283X0.669770X0.199222X-0.561240X0.416283X-0.669770X-0.199222X0*%
%ADD40RoundRect,0.250000X0.480427X-0.507417X0.694189X0.079891X-0.480427X0.507417X-0.694189X-0.079891X0*%
%ADD41RoundRect,0.250000X0.140090X0.684585X-0.463614X0.522823X-0.140090X-0.684585X0.463614X-0.522823X0*%
%ADD42RoundRect,0.250000X0.463614X0.522823X-0.140090X0.684585X-0.463614X-0.522823X0.140090X-0.684585X0*%
%ADD43HorizOval,7.500000X-1.060660X-1.060660X1.060660X1.060660X0*%
%ADD44RoundRect,0.250000X-0.362500X-1.425000X0.362500X-1.425000X0.362500X1.425000X-0.362500X1.425000X0*%
%ADD45RoundRect,0.250000X-1.667339X-0.212083X-1.017339X-1.337917X1.667339X0.212083X1.017339X1.337917X0*%
%ADD46HorizOval,1.800000X-0.779423X-0.450000X0.779423X0.450000X0*%
%ADD47RoundRect,0.250000X1.075000X-0.375000X1.075000X0.375000X-1.075000X0.375000X-1.075000X-0.375000X0*%
%ADD48RotRect,1.800000X1.800000X260.000000*%
%ADD49HorizOval,1.800000X0.000000X0.000000X0.000000X0.000000X0*%
%ADD50R,5.000000X5.000000*%
%ADD51R,2.000000X0.900000*%
%ADD52R,0.900000X2.000000*%
%ADD53RoundRect,0.250000X-0.375000X-1.075000X0.375000X-1.075000X0.375000X1.075000X-0.375000X1.075000X0*%
%ADD54RoundRect,0.250000X0.626770X0.415673X0.176237X0.731140X-0.626770X-0.415673X-0.176237X-0.731140X0*%
%ADD55C,0.800000*%
%ADD56C,5.000000*%
G04 APERTURE END LIST*
D10*
D11*
X177002200Y-166007200D02*
X177002200Y-198007200D01*
X285002200Y-198007200D01*
X285002200Y-166007200D01*
X177002200Y-166007200D01*
D10*
D11*
X10000000Y-10000000D02*
X10000000Y-200007200D01*
X287002200Y-200007200D01*
X287002200Y-10000000D01*
X10000000Y-10000000D01*
D10*
D11*
X12000000Y-12000000D02*
X12000000Y-198007200D01*
X285002200Y-198007200D01*
X285002200Y-12000000D01*
X12000000Y-12000000D01*
D10*
D11*
X60000000Y-12000000D02*
X60000000Y-10000000D01*
D10*
D11*
X110000000Y-12000000D02*
X110000000Y-10000000D01*
D10*
D11*
X160000000Y-12000000D02*
X160000000Y-10000000D01*
D10*
D11*
X210000000Y-12000000D02*
X210000000Y-10000000D01*
D10*
D11*
X260000000Y-12000000D02*
X260000000Y-10000000D01*
D10*
D11*
X36065476Y-11588095D02*
X35322619Y-11588095D01*
X35694047Y-11588095D02*
X35694047Y-10288095D01*
X35570238Y-10473809D01*
X35446428Y-10597619D01*
X35322619Y-10659523D01*
D10*
D11*
X85322619Y-10411904D02*
X85384523Y-10350000D01*
X85508333Y-10288095D01*
X85817857Y-10288095D01*
X85941666Y-10350000D01*
X86003571Y-10411904D01*
X86065476Y-10535714D01*
X86065476Y-10659523D01*
X86003571Y-10845238D01*
X85260714Y-11588095D01*
X86065476Y-11588095D01*
D10*
D11*
X135260714Y-10288095D02*
X136065476Y-10288095D01*
X135632142Y-10783333D01*
X135817857Y-10783333D01*
X135941666Y-10845238D01*
X136003571Y-10907142D01*
X136065476Y-11030952D01*
X136065476Y-11340476D01*
X136003571Y-11464285D01*
X135941666Y-11526190D01*
X135817857Y-11588095D01*
X135446428Y-11588095D01*
X135322619Y-11526190D01*
X135260714Y-11464285D01*
D10*
D11*
X185941666Y-10721428D02*
X185941666Y-11588095D01*
X185632142Y-10226190D02*
X185322619Y-11154761D01*
X186127380Y-11154761D01*
D10*
D11*
X236003571Y-10288095D02*
X235384523Y-10288095D01*
X235322619Y-10907142D01*
X235384523Y-10845238D01*
X235508333Y-10783333D01*
X235817857Y-10783333D01*
X235941666Y-10845238D01*
X236003571Y-10907142D01*
X236065476Y-11030952D01*
X236065476Y-11340476D01*
X236003571Y-11464285D01*
X235941666Y-11526190D01*
X235817857Y-11588095D01*
X235508333Y-11588095D01*
X235384523Y-11526190D01*
X235322619Y-11464285D01*
D10*
D11*
X285941666Y-10288095D02*
X285694047Y-10288095D01*
X285570238Y-10350000D01*
X285508333Y-10411904D01*
X285384523Y-10597619D01*
X285322619Y-10845238D01*
X285322619Y-11340476D01*
X285384523Y-11464285D01*
X285446428Y-11526190D01*
X285570238Y-11588095D01*
X285817857Y-11588095D01*
X285941666Y-11526190D01*
X286003571Y-11464285D01*
X286065476Y-11340476D01*
X286065476Y-11030952D01*
X286003571Y-10907142D01*
X285941666Y-10845238D01*
X285817857Y-10783333D01*
X285570238Y-10783333D01*
X285446428Y-10845238D01*
X285384523Y-10907142D01*
X285322619Y-11030952D01*
D10*
D11*
X60000000Y-198007200D02*
X60000000Y-200007200D01*
D10*
D11*
X110000000Y-198007200D02*
X110000000Y-200007200D01*
D10*
D11*
X160000000Y-198007200D02*
X160000000Y-200007200D01*
D10*
D11*
X210000000Y-198007200D02*
X210000000Y-200007200D01*
D10*
D11*
X260000000Y-198007200D02*
X260000000Y-200007200D01*
D10*
D11*
X36065476Y-199595295D02*
X35322619Y-199595295D01*
X35694047Y-199595295D02*
X35694047Y-198295295D01*
X35570238Y-198481009D01*
X35446428Y-198604819D01*
X35322619Y-198666723D01*
D10*
D11*
X85322619Y-198419104D02*
X85384523Y-198357200D01*
X85508333Y-198295295D01*
X85817857Y-198295295D01*
X85941666Y-198357200D01*
X86003571Y-198419104D01*
X86065476Y-198542914D01*
X86065476Y-198666723D01*
X86003571Y-198852438D01*
X85260714Y-199595295D01*
X86065476Y-199595295D01*
D10*
D11*
X135260714Y-198295295D02*
X136065476Y-198295295D01*
X135632142Y-198790533D01*
X135817857Y-198790533D01*
X135941666Y-198852438D01*
X136003571Y-198914342D01*
X136065476Y-199038152D01*
X136065476Y-199347676D01*
X136003571Y-199471485D01*
X135941666Y-199533390D01*
X135817857Y-199595295D01*
X135446428Y-199595295D01*
X135322619Y-199533390D01*
X135260714Y-199471485D01*
D10*
D11*
X185941666Y-198728628D02*
X185941666Y-199595295D01*
X185632142Y-198233390D02*
X185322619Y-199161961D01*
X186127380Y-199161961D01*
D10*
D11*
X236003571Y-198295295D02*
X235384523Y-198295295D01*
X235322619Y-198914342D01*
X235384523Y-198852438D01*
X235508333Y-198790533D01*
X235817857Y-198790533D01*
X235941666Y-198852438D01*
X236003571Y-198914342D01*
X236065476Y-199038152D01*
X236065476Y-199347676D01*
X236003571Y-199471485D01*
X235941666Y-199533390D01*
X235817857Y-199595295D01*
X235508333Y-199595295D01*
X235384523Y-199533390D01*
X235322619Y-199471485D01*
D10*
D11*
X285941666Y-198295295D02*
X285694047Y-198295295D01*
X285570238Y-198357200D01*
X285508333Y-198419104D01*
X285384523Y-198604819D01*
X285322619Y-198852438D01*
X285322619Y-199347676D01*
X285384523Y-199471485D01*
X285446428Y-199533390D01*
X285570238Y-199595295D01*
X285817857Y-199595295D01*
X285941666Y-199533390D01*
X286003571Y-199471485D01*
X286065476Y-199347676D01*
X286065476Y-199038152D01*
X286003571Y-198914342D01*
X285941666Y-198852438D01*
X285817857Y-198790533D01*
X285570238Y-198790533D01*
X285446428Y-198852438D01*
X285384523Y-198914342D01*
X285322619Y-199038152D01*
D10*
D11*
X10000000Y-60000000D02*
X12000000Y-60000000D01*
D10*
D11*
X10000000Y-110000000D02*
X12000000Y-110000000D01*
D10*
D11*
X10000000Y-160000000D02*
X12000000Y-160000000D01*
D10*
D11*
X10690476Y-35216666D02*
X11309523Y-35216666D01*
X10566666Y-35588095D02*
X11000000Y-34288095D01*
X11433333Y-35588095D01*
D10*
D11*
X11092857Y-84907142D02*
X11278571Y-84969047D01*
X11340476Y-85030952D01*
X11402380Y-85154761D01*
X11402380Y-85340476D01*
X11340476Y-85464285D01*
X11278571Y-85526190D01*
X11154761Y-85588095D01*
X10659523Y-85588095D01*
X10659523Y-84288095D01*
X11092857Y-84288095D01*
X11216666Y-84350000D01*
X11278571Y-84411904D01*
X11340476Y-84535714D01*
X11340476Y-84659523D01*
X11278571Y-84783333D01*
X11216666Y-84845238D01*
X11092857Y-84907142D01*
X10659523Y-84907142D01*
D10*
D11*
X11402380Y-135464285D02*
X11340476Y-135526190D01*
X11154761Y-135588095D01*
X11030952Y-135588095D01*
X10845238Y-135526190D01*
X10721428Y-135402380D01*
X10659523Y-135278571D01*
X10597619Y-135030952D01*
X10597619Y-134845238D01*
X10659523Y-134597619D01*
X10721428Y-134473809D01*
X10845238Y-134350000D01*
X11030952Y-134288095D01*
X11154761Y-134288095D01*
X11340476Y-134350000D01*
X11402380Y-134411904D01*
D10*
D11*
X10659523Y-185588095D02*
X10659523Y-184288095D01*
X10969047Y-184288095D01*
X11154761Y-184350000D01*
X11278571Y-184473809D01*
X11340476Y-184597619D01*
X11402380Y-184845238D01*
X11402380Y-185030952D01*
X11340476Y-185278571D01*
X11278571Y-185402380D01*
X11154761Y-185526190D01*
X10969047Y-185588095D01*
X10659523Y-185588095D01*
D10*
D11*
X287002200Y-60000000D02*
X285002200Y-60000000D01*
D10*
D11*
X287002200Y-110000000D02*
X285002200Y-110000000D01*
D10*
D11*
X287002200Y-160000000D02*
X285002200Y-160000000D01*
D10*
D11*
X285692676Y-35216666D02*
X286311723Y-35216666D01*
X285568866Y-35588095D02*
X286002200Y-34288095D01*
X286435533Y-35588095D01*
D10*
D11*
X286095057Y-84907142D02*
X286280771Y-84969047D01*
X286342676Y-85030952D01*
X286404580Y-85154761D01*
X286404580Y-85340476D01*
X286342676Y-85464285D01*
X286280771Y-85526190D01*
X286156961Y-85588095D01*
X285661723Y-85588095D01*
X285661723Y-84288095D01*
X286095057Y-84288095D01*
X286218866Y-84350000D01*
X286280771Y-84411904D01*
X286342676Y-84535714D01*
X286342676Y-84659523D01*
X286280771Y-84783333D01*
X286218866Y-84845238D01*
X286095057Y-84907142D01*
X285661723Y-84907142D01*
D10*
D11*
X286404580Y-135464285D02*
X286342676Y-135526190D01*
X286156961Y-135588095D01*
X286033152Y-135588095D01*
X285847438Y-135526190D01*
X285723628Y-135402380D01*
X285661723Y-135278571D01*
X285599819Y-135030952D01*
X285599819Y-134845238D01*
X285661723Y-134597619D01*
X285723628Y-134473809D01*
X285847438Y-134350000D01*
X286033152Y-134288095D01*
X286156961Y-134288095D01*
X286342676Y-134350000D01*
X286404580Y-134411904D01*
D10*
D11*
X285661723Y-185588095D02*
X285661723Y-184288095D01*
X285971247Y-184288095D01*
X286156961Y-184350000D01*
X286280771Y-184473809D01*
X286342676Y-184597619D01*
X286404580Y-184845238D01*
X286404580Y-185030952D01*
X286342676Y-185278571D01*
X286280771Y-185402380D01*
X286156961Y-185526190D01*
X285971247Y-185588095D01*
X285661723Y-185588095D01*
D10*
D11*
X200434342Y-193785771D02*
X200434342Y-192285771D01*
X200791485Y-192285771D01*
X201005771Y-192357200D01*
X201148628Y-192500057D01*
X201220057Y-192642914D01*
X201291485Y-192928628D01*
X201291485Y-193142914D01*
X201220057Y-193428628D01*
X201148628Y-193571485D01*
X201005771Y-193714342D01*
X200791485Y-193785771D01*
X200434342Y-193785771D01*
X202577200Y-193785771D02*
X202577200Y-193000057D01*
X202505771Y-192857200D01*
X202362914Y-192785771D01*
X202077200Y-192785771D01*
X201934342Y-192857200D01*
X202577200Y-193714342D02*
X202434342Y-193785771D01*
X202077200Y-193785771D01*
X201934342Y-193714342D01*
X201862914Y-193571485D01*
X201862914Y-193428628D01*
X201934342Y-193285771D01*
X202077200Y-193214342D01*
X202434342Y-193214342D01*
X202577200Y-193142914D01*
X203077200Y-192785771D02*
X203648628Y-192785771D01*
X203291485Y-192285771D02*
X203291485Y-193571485D01*
X203362914Y-193714342D01*
X203505771Y-193785771D01*
X203648628Y-193785771D01*
X204720057Y-193714342D02*
X204577200Y-193785771D01*
X204291485Y-193785771D01*
X204148628Y-193714342D01*
X204077200Y-193571485D01*
X204077200Y-193000057D01*
X204148628Y-192857200D01*
X204291485Y-192785771D01*
X204577200Y-192785771D01*
X204720057Y-192857200D01*
X204791485Y-193000057D01*
X204791485Y-193142914D01*
X204077200Y-193285771D01*
X205434342Y-193642914D02*
X205505771Y-193714342D01*
X205434342Y-193785771D01*
X205362914Y-193714342D01*
X205434342Y-193642914D01*
X205434342Y-193785771D01*
X205434342Y-192857200D02*
X205505771Y-192928628D01*
X205434342Y-193000057D01*
X205362914Y-192928628D01*
X205434342Y-192857200D01*
X205434342Y-193000057D01*
D10*
D11*
X177002200Y-194507200D02*
X285002200Y-194507200D01*
D10*
D11*
X178434342Y-196585771D02*
X178434342Y-195085771D01*
X179291485Y-196585771D02*
X178648628Y-195728628D01*
X179291485Y-195085771D02*
X178434342Y-195942914D01*
X179934342Y-196585771D02*
X179934342Y-195585771D01*
X179934342Y-195085771D02*
X179862914Y-195157200D01*
X179934342Y-195228628D01*
X180005771Y-195157200D01*
X179934342Y-195085771D01*
X179934342Y-195228628D01*
X181505771Y-196442914D02*
X181434342Y-196514342D01*
X181220057Y-196585771D01*
X181077200Y-196585771D01*
X180862914Y-196514342D01*
X180720057Y-196371485D01*
X180648628Y-196228628D01*
X180577200Y-195942914D01*
X180577200Y-195728628D01*
X180648628Y-195442914D01*
X180720057Y-195300057D01*
X180862914Y-195157200D01*
X181077200Y-195085771D01*
X181220057Y-195085771D01*
X181434342Y-195157200D01*
X181505771Y-195228628D01*
X182791485Y-196585771D02*
X182791485Y-195800057D01*
X182720057Y-195657200D01*
X182577200Y-195585771D01*
X182291485Y-195585771D01*
X182148628Y-195657200D01*
X182791485Y-196514342D02*
X182648628Y-196585771D01*
X182291485Y-196585771D01*
X182148628Y-196514342D01*
X182077200Y-196371485D01*
X182077200Y-196228628D01*
X182148628Y-196085771D01*
X182291485Y-196014342D01*
X182648628Y-196014342D01*
X182791485Y-195942914D01*
X184148628Y-196585771D02*
X184148628Y-195085771D01*
X184148628Y-196514342D02*
X184005771Y-196585771D01*
X183720057Y-196585771D01*
X183577200Y-196514342D01*
X183505771Y-196442914D01*
X183434342Y-196300057D01*
X183434342Y-195871485D01*
X183505771Y-195728628D01*
X183577200Y-195657200D01*
X183720057Y-195585771D01*
X184005771Y-195585771D01*
X184148628Y-195657200D01*
X186005771Y-195800057D02*
X186505771Y-195800057D01*
X186720057Y-196585771D02*
X186005771Y-196585771D01*
X186005771Y-195085771D01*
X186720057Y-195085771D01*
X187362914Y-196442914D02*
X187434342Y-196514342D01*
X187362914Y-196585771D01*
X187291485Y-196514342D01*
X187362914Y-196442914D01*
X187362914Y-196585771D01*
X188077200Y-196585771D02*
X188077200Y-195085771D01*
X188434342Y-195085771D01*
X188648628Y-195157200D01*
X188791485Y-195300057D01*
X188862914Y-195442914D01*
X188934342Y-195728628D01*
X188934342Y-195942914D01*
X188862914Y-196228628D01*
X188791485Y-196371485D01*
X188648628Y-196514342D01*
X188434342Y-196585771D01*
X188077200Y-196585771D01*
X189577200Y-196442914D02*
X189648628Y-196514342D01*
X189577200Y-196585771D01*
X189505771Y-196514342D01*
X189577200Y-196442914D01*
X189577200Y-196585771D01*
X190220057Y-196157200D02*
X190934342Y-196157200D01*
X190077200Y-196585771D02*
X190577200Y-195085771D01*
X191077200Y-196585771D01*
X191577200Y-196442914D02*
X191648628Y-196514342D01*
X191577200Y-196585771D01*
X191505771Y-196514342D01*
X191577200Y-196442914D01*
X191577200Y-196585771D01*
X194577200Y-196585771D02*
X194577200Y-195085771D01*
X194720057Y-196014342D02*
X195148628Y-196585771D01*
X195148628Y-195585771D02*
X194577200Y-196157200D01*
X195791485Y-196585771D02*
X195791485Y-195585771D01*
X195791485Y-195085771D02*
X195720057Y-195157200D01*
X195791485Y-195228628D01*
X195862914Y-195157200D01*
X195791485Y-195085771D01*
X195791485Y-195228628D01*
X197148628Y-196514342D02*
X197005771Y-196585771D01*
X196720057Y-196585771D01*
X196577200Y-196514342D01*
X196505771Y-196442914D01*
X196434342Y-196300057D01*
X196434342Y-195871485D01*
X196505771Y-195728628D01*
X196577200Y-195657200D01*
X196720057Y-195585771D01*
X197005771Y-195585771D01*
X197148628Y-195657200D01*
X198434342Y-196585771D02*
X198434342Y-195800057D01*
X198362914Y-195657200D01*
X198220057Y-195585771D01*
X197934342Y-195585771D01*
X197791485Y-195657200D01*
X198434342Y-196514342D02*
X198291485Y-196585771D01*
X197934342Y-196585771D01*
X197791485Y-196514342D01*
X197720057Y-196371485D01*
X197720057Y-196228628D01*
X197791485Y-196085771D01*
X197934342Y-196014342D01*
X198291485Y-196014342D01*
X198434342Y-195942914D01*
X199791485Y-196585771D02*
X199791485Y-195085771D01*
X199791485Y-196514342D02*
X199648628Y-196585771D01*
X199362914Y-196585771D01*
X199220057Y-196514342D01*
X199148628Y-196442914D01*
X199077200Y-196300057D01*
X199077200Y-195871485D01*
X199148628Y-195728628D01*
X199220057Y-195657200D01*
X199362914Y-195585771D01*
X199648628Y-195585771D01*
X199791485Y-195657200D01*
X202077200Y-197157200D02*
X202005771Y-197085771D01*
X201862914Y-196871485D01*
X201791485Y-196728628D01*
X201720057Y-196514342D01*
X201648628Y-196157200D01*
X201648628Y-195871485D01*
X201720057Y-195514342D01*
X201791485Y-195300057D01*
X201862914Y-195157200D01*
X202005771Y-194942914D01*
X202077200Y-194871485D01*
X203291485Y-195085771D02*
X203005771Y-195085771D01*
X202862914Y-195157200D01*
X202791485Y-195228628D01*
X202648628Y-195442914D01*
X202577200Y-195728628D01*
X202577200Y-196300057D01*
X202648628Y-196442914D01*
X202720057Y-196514342D01*
X202862914Y-196585771D01*
X203148628Y-196585771D01*
X203291485Y-196514342D01*
X203362914Y-196442914D01*
X203434342Y-196300057D01*
X203434342Y-195942914D01*
X203362914Y-195800057D01*
X203291485Y-195728628D01*
X203148628Y-195657200D01*
X202862914Y-195657200D01*
X202720057Y-195728628D01*
X202648628Y-195800057D01*
X202577200Y-195942914D01*
X204077200Y-196442914D02*
X204148628Y-196514342D01*
X204077200Y-196585771D01*
X204005771Y-196514342D01*
X204077200Y-196442914D01*
X204077200Y-196585771D01*
X205077200Y-195085771D02*
X205220057Y-195085771D01*
X205362914Y-195157200D01*
X205434342Y-195228628D01*
X205505771Y-195371485D01*
X205577200Y-195657200D01*
X205577200Y-196014342D01*
X205505771Y-196300057D01*
X205434342Y-196442914D01*
X205362914Y-196514342D01*
X205220057Y-196585771D01*
X205077200Y-196585771D01*
X204934342Y-196514342D01*
X204862914Y-196442914D01*
X204791485Y-196300057D01*
X204720057Y-196014342D01*
X204720057Y-195657200D01*
X204791485Y-195371485D01*
X204862914Y-195228628D01*
X204934342Y-195157200D01*
X205077200Y-195085771D01*
X206220057Y-196442914D02*
X206291485Y-196514342D01*
X206220057Y-196585771D01*
X206148628Y-196514342D01*
X206220057Y-196442914D01*
X206220057Y-196585771D01*
X207720057Y-196585771D02*
X206862914Y-196585771D01*
X207291485Y-196585771D02*
X207291485Y-195085771D01*
X207148628Y-195300057D01*
X207005771Y-195442914D01*
X206862914Y-195514342D01*
X208220057Y-197157200D02*
X208291485Y-197085771D01*
X208434342Y-196871485D01*
X208505771Y-196728628D01*
X208577200Y-196514342D01*
X208648628Y-196157200D01*
X208648628Y-195871485D01*
X208577200Y-195514342D01*
X208505771Y-195300057D01*
X208434342Y-195157200D01*
X208291485Y-194942914D01*
X208220057Y-194871485D01*
D10*
D11*
X177002200Y-191507200D02*
X285002200Y-191507200D01*
D10*
D12*
X264411485Y-193785771D02*
X263911485Y-193071485D01*
X263554342Y-193785771D02*
X263554342Y-192285771D01*
X264125771Y-192285771D01*
X264268628Y-192357200D01*
X264340057Y-192428628D01*
X264411485Y-192571485D01*
X264411485Y-192785771D01*
X264340057Y-192928628D01*
X264268628Y-193000057D01*
X264125771Y-193071485D01*
X263554342Y-193071485D01*
X265625771Y-193714342D02*
X265482914Y-193785771D01*
X265197200Y-193785771D01*
X265054342Y-193714342D01*
X264982914Y-193571485D01*
X264982914Y-193000057D01*
X265054342Y-192857200D01*
X265197200Y-192785771D01*
X265482914Y-192785771D01*
X265625771Y-192857200D01*
X265697200Y-193000057D01*
X265697200Y-193142914D01*
X264982914Y-193285771D01*
X266197200Y-192785771D02*
X266554342Y-193785771D01*
X266911485Y-192785771D01*
X267482914Y-193642914D02*
X267554342Y-193714342D01*
X267482914Y-193785771D01*
X267411485Y-193714342D01*
X267482914Y-193642914D01*
X267482914Y-193785771D01*
X267482914Y-192857200D02*
X267554342Y-192928628D01*
X267482914Y-193000057D01*
X267411485Y-192928628D01*
X267482914Y-192857200D01*
X267482914Y-193000057D01*
D10*
D11*
X178362914Y-193714342D02*
X178577200Y-193785771D01*
X178934342Y-193785771D01*
X179077200Y-193714342D01*
X179148628Y-193642914D01*
X179220057Y-193500057D01*
X179220057Y-193357200D01*
X179148628Y-193214342D01*
X179077200Y-193142914D01*
X178934342Y-193071485D01*
X178648628Y-193000057D01*
X178505771Y-192928628D01*
X178434342Y-192857200D01*
X178362914Y-192714342D01*
X178362914Y-192571485D01*
X178434342Y-192428628D01*
X178505771Y-192357200D01*
X178648628Y-192285771D01*
X179005771Y-192285771D01*
X179220057Y-192357200D01*
X179862914Y-193785771D02*
X179862914Y-192785771D01*
X179862914Y-192285771D02*
X179791485Y-192357200D01*
X179862914Y-192428628D01*
X179934342Y-192357200D01*
X179862914Y-192285771D01*
X179862914Y-192428628D01*
X180434342Y-192785771D02*
X181220057Y-192785771D01*
X180434342Y-193785771D01*
X181220057Y-193785771D01*
X182362914Y-193714342D02*
X182220057Y-193785771D01*
X181934342Y-193785771D01*
X181791485Y-193714342D01*
X181720057Y-193571485D01*
X181720057Y-193000057D01*
X181791485Y-192857200D01*
X181934342Y-192785771D01*
X182220057Y-192785771D01*
X182362914Y-192857200D01*
X182434342Y-193000057D01*
X182434342Y-193142914D01*
X181720057Y-193285771D01*
X183077200Y-193642914D02*
X183148628Y-193714342D01*
X183077200Y-193785771D01*
X183005771Y-193714342D01*
X183077200Y-193642914D01*
X183077200Y-193785771D01*
X183077200Y-192857200D02*
X183148628Y-192928628D01*
X183077200Y-193000057D01*
X183005771Y-192928628D01*
X183077200Y-192857200D01*
X183077200Y-193000057D01*
X184862914Y-193357200D02*
X185577200Y-193357200D01*
X184720057Y-193785771D02*
X185220057Y-192285771D01*
X185720057Y-193785771D01*
X186862914Y-192785771D02*
X186862914Y-193785771D01*
X186505771Y-192214342D02*
X186148628Y-193285771D01*
X187077200Y-193285771D01*
D10*
D11*
X263434342Y-196585771D02*
X263434342Y-195085771D01*
X264791485Y-196585771D02*
X264791485Y-195085771D01*
X264791485Y-196514342D02*
X264648628Y-196585771D01*
X264362914Y-196585771D01*
X264220057Y-196514342D01*
X264148628Y-196442914D01*
X264077200Y-196300057D01*
X264077200Y-195871485D01*
X264148628Y-195728628D01*
X264220057Y-195657200D01*
X264362914Y-195585771D01*
X264648628Y-195585771D01*
X264791485Y-195657200D01*
X265505771Y-196442914D02*
X265577200Y-196514342D01*
X265505771Y-196585771D01*
X265434342Y-196514342D01*
X265505771Y-196442914D01*
X265505771Y-196585771D01*
X265505771Y-195657200D02*
X265577200Y-195728628D01*
X265505771Y-195800057D01*
X265434342Y-195728628D01*
X265505771Y-195657200D01*
X265505771Y-195800057D01*
X268148628Y-196585771D02*
X267291485Y-196585771D01*
X267720057Y-196585771D02*
X267720057Y-195085771D01*
X267577200Y-195300057D01*
X267434342Y-195442914D01*
X267291485Y-195514342D01*
X269862914Y-195014342D02*
X268577200Y-196942914D01*
X271148628Y-196585771D02*
X270291485Y-196585771D01*
X270720057Y-196585771D02*
X270720057Y-195085771D01*
X270577200Y-195300057D01*
X270434342Y-195442914D01*
X270291485Y-195514342D01*
D10*
D11*
X177002200Y-187507200D02*
X285002200Y-187507200D01*
D10*
D13*
X178714580Y-188211961D02*
X179857438Y-188211961D01*
X179036009Y-190211961D02*
X179286009Y-188211961D01*
X180274104Y-190211961D02*
X180440771Y-188878628D01*
X180524104Y-188211961D02*
X180416961Y-188307200D01*
X180500295Y-188402438D01*
X180607438Y-188307200D01*
X180524104Y-188211961D01*
X180500295Y-188402438D01*
X181107438Y-188878628D02*
X181869342Y-188878628D01*
X181476485Y-188211961D02*
X181262200Y-189926247D01*
X181333628Y-190116723D01*
X181512200Y-190211961D01*
X181702676Y-190211961D01*
X182655057Y-190211961D02*
X182476485Y-190116723D01*
X182405057Y-189926247D01*
X182619342Y-188211961D01*
X184190771Y-190116723D02*
X183988390Y-190211961D01*
X183607438Y-190211961D01*
X183428866Y-190116723D01*
X183357438Y-189926247D01*
X183452676Y-189164342D01*
X183571723Y-188973866D01*
X183774104Y-188878628D01*
X184155057Y-188878628D01*
X184333628Y-188973866D01*
X184405057Y-189164342D01*
X184381247Y-189354819D01*
X183405057Y-189545295D01*
X185155057Y-190021485D02*
X185238390Y-190116723D01*
X185131247Y-190211961D01*
X185047914Y-190116723D01*
X185155057Y-190021485D01*
X185131247Y-190211961D01*
X185286009Y-188973866D02*
X185369342Y-189069104D01*
X185262200Y-189164342D01*
X185178866Y-189069104D01*
X185286009Y-188973866D01*
X185262200Y-189164342D01*
D10*
D11*
X178934342Y-185600057D02*
X178434342Y-185600057D01*
X178434342Y-186385771D02*
X178434342Y-184885771D01*
X179148628Y-184885771D01*
X179720057Y-186385771D02*
X179720057Y-185385771D01*
X179720057Y-184885771D02*
X179648628Y-184957200D01*
X179720057Y-185028628D01*
X179791485Y-184957200D01*
X179720057Y-184885771D01*
X179720057Y-185028628D01*
X180648628Y-186385771D02*
X180505771Y-186314342D01*
X180434342Y-186171485D01*
X180434342Y-184885771D01*
X181791485Y-186314342D02*
X181648628Y-186385771D01*
X181362914Y-186385771D01*
X181220057Y-186314342D01*
X181148628Y-186171485D01*
X181148628Y-185600057D01*
X181220057Y-185457200D01*
X181362914Y-185385771D01*
X181648628Y-185385771D01*
X181791485Y-185457200D01*
X181862914Y-185600057D01*
X181862914Y-185742914D01*
X181148628Y-185885771D01*
X182505771Y-186242914D02*
X182577200Y-186314342D01*
X182505771Y-186385771D01*
X182434342Y-186314342D01*
X182505771Y-186242914D01*
X182505771Y-186385771D01*
X182505771Y-185457200D02*
X182577200Y-185528628D01*
X182505771Y-185600057D01*
X182434342Y-185528628D01*
X182505771Y-185457200D01*
X182505771Y-185600057D01*
X184291485Y-185957200D02*
X185005771Y-185957200D01*
X184148628Y-186385771D02*
X184648628Y-184885771D01*
X185148628Y-186385771D01*
X185648628Y-185385771D02*
X185648628Y-186385771D01*
X185648628Y-185528628D02*
X185720057Y-185457200D01*
X185862914Y-185385771D01*
X186077200Y-185385771D01*
X186220057Y-185457200D01*
X186291485Y-185600057D01*
X186291485Y-186385771D01*
X186791485Y-185385771D02*
X187362914Y-185385771D01*
X187005771Y-184885771D02*
X187005771Y-186171485D01*
X187077200Y-186314342D01*
X187220057Y-186385771D01*
X187362914Y-186385771D01*
X188434342Y-186314342D02*
X188291485Y-186385771D01*
X188005771Y-186385771D01*
X187862914Y-186314342D01*
X187791485Y-186171485D01*
X187791485Y-185600057D01*
X187862914Y-185457200D01*
X188005771Y-185385771D01*
X188291485Y-185385771D01*
X188434342Y-185457200D01*
X188505771Y-185600057D01*
X188505771Y-185742914D01*
X187791485Y-185885771D01*
X189148628Y-185385771D02*
X189148628Y-186385771D01*
X189148628Y-185528628D02*
X189220057Y-185457200D01*
X189362914Y-185385771D01*
X189577200Y-185385771D01*
X189720057Y-185457200D01*
X189791485Y-185600057D01*
X189791485Y-186385771D01*
X190505771Y-185385771D02*
X190505771Y-186385771D01*
X190505771Y-185528628D02*
X190577200Y-185457200D01*
X190720057Y-185385771D01*
X190934342Y-185385771D01*
X191077200Y-185457200D01*
X191148628Y-185600057D01*
X191148628Y-186385771D01*
X192434342Y-186314342D02*
X192291485Y-186385771D01*
X192005771Y-186385771D01*
X191862914Y-186314342D01*
X191791485Y-186171485D01*
X191791485Y-185600057D01*
X191862914Y-185457200D01*
X192005771Y-185385771D01*
X192291485Y-185385771D01*
X192434342Y-185457200D01*
X192505771Y-185600057D01*
X192505771Y-185742914D01*
X191791485Y-185885771D01*
X194005771Y-186242914D02*
X193934342Y-186314342D01*
X193720057Y-186385771D01*
X193577200Y-186385771D01*
X193362914Y-186314342D01*
X193220057Y-186171485D01*
X193148628Y-186028628D01*
X193077200Y-185742914D01*
X193077200Y-185528628D01*
X193148628Y-185242914D01*
X193220057Y-185100057D01*
X193362914Y-184957200D01*
X193577200Y-184885771D01*
X193720057Y-184885771D01*
X193934342Y-184957200D01*
X194005771Y-185028628D01*
X195220057Y-186314342D02*
X195077200Y-186385771D01*
X194791485Y-186385771D01*
X194648628Y-186314342D01*
X194577200Y-186171485D01*
X194577200Y-185600057D01*
X194648628Y-185457200D01*
X194791485Y-185385771D01*
X195077200Y-185385771D01*
X195220057Y-185457200D01*
X195291485Y-185600057D01*
X195291485Y-185742914D01*
X194577200Y-185885771D01*
X195934342Y-185385771D02*
X195934342Y-186385771D01*
X195934342Y-185528628D02*
X196005771Y-185457200D01*
X196148628Y-185385771D01*
X196362914Y-185385771D01*
X196505771Y-185457200D01*
X196577200Y-185600057D01*
X196577200Y-186385771D01*
X197077200Y-185385771D02*
X197648628Y-185385771D01*
X197291485Y-184885771D02*
X197291485Y-186171485D01*
X197362914Y-186314342D01*
X197505771Y-186385771D01*
X197648628Y-186385771D01*
X198148628Y-186385771D02*
X198148628Y-185385771D01*
X198148628Y-185671485D02*
X198220057Y-185528628D01*
X198291485Y-185457200D01*
X198434342Y-185385771D01*
X198577200Y-185385771D01*
X199720057Y-186385771D02*
X199720057Y-185600057D01*
X199648628Y-185457200D01*
X199505771Y-185385771D01*
X199220057Y-185385771D01*
X199077200Y-185457200D01*
X199720057Y-186314342D02*
X199577200Y-186385771D01*
X199220057Y-186385771D01*
X199077200Y-186314342D01*
X199005771Y-186171485D01*
X199005771Y-186028628D01*
X199077200Y-185885771D01*
X199220057Y-185814342D01*
X199577200Y-185814342D01*
X199720057Y-185742914D01*
X200648628Y-186385771D02*
X200505771Y-186314342D01*
X200434342Y-186171485D01*
X200434342Y-184885771D01*
X201791485Y-186314342D02*
X201648628Y-186385771D01*
X201362914Y-186385771D01*
X201220057Y-186314342D01*
X201148628Y-186171485D01*
X201148628Y-185600057D01*
X201220057Y-185457200D01*
X201362914Y-185385771D01*
X201648628Y-185385771D01*
X201791485Y-185457200D01*
X201862914Y-185600057D01*
X201862914Y-185742914D01*
X201148628Y-185885771D01*
X202505771Y-186385771D02*
X202505771Y-184885771D01*
X202862914Y-184885771D01*
X203077200Y-184957200D01*
X203220057Y-185100057D01*
X203291485Y-185242914D01*
X203362914Y-185528628D01*
X203362914Y-185742914D01*
X203291485Y-186028628D01*
X203220057Y-186171485D01*
X203077200Y-186314342D01*
X202862914Y-186385771D01*
X202505771Y-186385771D01*
X204005771Y-186385771D02*
X204005771Y-185385771D01*
X204005771Y-184885771D02*
X203934342Y-184957200D01*
X204005771Y-185028628D01*
X204077200Y-184957200D01*
X204005771Y-184885771D01*
X204005771Y-185028628D01*
X204720057Y-185385771D02*
X204720057Y-186885771D01*
X204720057Y-185457200D02*
X204862914Y-185385771D01*
X205148628Y-185385771D01*
X205291485Y-185457200D01*
X205362914Y-185528628D01*
X205434342Y-185671485D01*
X205434342Y-186100057D01*
X205362914Y-186242914D01*
X205291485Y-186314342D01*
X205148628Y-186385771D01*
X204862914Y-186385771D01*
X204720057Y-186314342D01*
X206291485Y-186385771D02*
X206148628Y-186314342D01*
X206077200Y-186242914D01*
X206005771Y-186100057D01*
X206005771Y-185671485D01*
X206077200Y-185528628D01*
X206148628Y-185457200D01*
X206291485Y-185385771D01*
X206505771Y-185385771D01*
X206648628Y-185457200D01*
X206720057Y-185528628D01*
X206791485Y-185671485D01*
X206791485Y-186100057D01*
X206720057Y-186242914D01*
X206648628Y-186314342D01*
X206505771Y-186385771D01*
X206291485Y-186385771D01*
X207648628Y-186385771D02*
X207505771Y-186314342D01*
X207434342Y-186171485D01*
X207434342Y-184885771D01*
X208434342Y-186385771D02*
X208291485Y-186314342D01*
X208220057Y-186242914D01*
X208148628Y-186100057D01*
X208148628Y-185671485D01*
X208220057Y-185528628D01*
X208291485Y-185457200D01*
X208434342Y-185385771D01*
X208648628Y-185385771D01*
X208791485Y-185457200D01*
X208862914Y-185528628D01*
X208934342Y-185671485D01*
X208934342Y-186100057D01*
X208862914Y-186242914D01*
X208791485Y-186314342D01*
X208648628Y-186385771D01*
X208434342Y-186385771D01*
X209505771Y-186314342D02*
X209720057Y-186385771D01*
X210077200Y-186385771D01*
X210220057Y-186314342D01*
X210291485Y-186242914D01*
X210362914Y-186100057D01*
X210362914Y-185957200D01*
X210291485Y-185814342D01*
X210220057Y-185742914D01*
X210077200Y-185671485D01*
X209791485Y-185600057D01*
X209648628Y-185528628D01*
X209577200Y-185457200D01*
X209505771Y-185314342D01*
X209505771Y-185171485D01*
X209577200Y-185028628D01*
X209648628Y-184957200D01*
X209791485Y-184885771D01*
X210148628Y-184885771D01*
X210362914Y-184957200D01*
X210791485Y-185385771D02*
X211362914Y-185385771D01*
X211005771Y-184885771D02*
X211005771Y-186171485D01*
X211077200Y-186314342D01*
X211220057Y-186385771D01*
X211362914Y-186385771D01*
X211862914Y-186385771D02*
X211862914Y-185385771D01*
X211862914Y-185671485D02*
X211934342Y-185528628D01*
X212005771Y-185457200D01*
X212148628Y-185385771D01*
X212291485Y-185385771D01*
X213434342Y-185385771D02*
X213434342Y-186385771D01*
X212791485Y-185385771D02*
X212791485Y-186171485D01*
X212862914Y-186314342D01*
X213005771Y-186385771D01*
X213220057Y-186385771D01*
X213362914Y-186314342D01*
X213434342Y-186242914D01*
X214148628Y-186385771D02*
X214148628Y-185385771D01*
X214148628Y-185528628D02*
X214220057Y-185457200D01*
X214362914Y-185385771D01*
X214577200Y-185385771D01*
X214720057Y-185457200D01*
X214791485Y-185600057D01*
X214791485Y-186385771D01*
X214791485Y-185600057D02*
X214862914Y-185457200D01*
X215005771Y-185385771D01*
X215220057Y-185385771D01*
X215362914Y-185457200D01*
X215434342Y-185600057D01*
X215434342Y-186385771D01*
X216720057Y-186314342D02*
X216577200Y-186385771D01*
X216291485Y-186385771D01*
X216148628Y-186314342D01*
X216077200Y-186171485D01*
X216077200Y-185600057D01*
X216148628Y-185457200D01*
X216291485Y-185385771D01*
X216577200Y-185385771D01*
X216720057Y-185457200D01*
X216791485Y-185600057D01*
X216791485Y-185742914D01*
X216077200Y-185885771D01*
X217434342Y-185385771D02*
X217434342Y-186385771D01*
X217434342Y-185528628D02*
X217505771Y-185457200D01*
X217648628Y-185385771D01*
X217862914Y-185385771D01*
X218005771Y-185457200D01*
X218077200Y-185600057D01*
X218077200Y-186385771D01*
X218577200Y-185385771D02*
X219148628Y-185385771D01*
X218791485Y-184885771D02*
X218791485Y-186171485D01*
X218862914Y-186314342D01*
X219005771Y-186385771D01*
X219148628Y-186385771D01*
X220291485Y-186385771D02*
X220291485Y-185600057D01*
X220220057Y-185457200D01*
X220077200Y-185385771D01*
X219791485Y-185385771D01*
X219648628Y-185457200D01*
X220291485Y-186314342D02*
X220148628Y-186385771D01*
X219791485Y-186385771D01*
X219648628Y-186314342D01*
X219577200Y-186171485D01*
X219577200Y-186028628D01*
X219648628Y-185885771D01*
X219791485Y-185814342D01*
X220148628Y-185814342D01*
X220291485Y-185742914D01*
X220791485Y-185385771D02*
X221362914Y-185385771D01*
X221005771Y-184885771D02*
X221005771Y-186171485D01*
X221077200Y-186314342D01*
X221220057Y-186385771D01*
X221362914Y-186385771D01*
X222077200Y-186385771D02*
X221934342Y-186314342D01*
X221862914Y-186242914D01*
X221791485Y-186100057D01*
X221791485Y-185671485D01*
X221862914Y-185528628D01*
X221934342Y-185457200D01*
X222077200Y-185385771D01*
X222291485Y-185385771D01*
X222434342Y-185457200D01*
X222505771Y-185528628D01*
X222577200Y-185671485D01*
X222577200Y-186100057D01*
X222505771Y-186242914D01*
X222434342Y-186314342D01*
X222291485Y-186385771D01*
X222077200Y-186385771D01*
X223220057Y-186242914D02*
X223291485Y-186314342D01*
X223220057Y-186385771D01*
X223148628Y-186314342D01*
X223220057Y-186242914D01*
X223220057Y-186385771D01*
X223934342Y-186385771D02*
X223934342Y-184885771D01*
X224077200Y-185814342D02*
X224505771Y-186385771D01*
X224505771Y-185385771D02*
X223934342Y-185957200D01*
X225148628Y-186385771D02*
X225148628Y-185385771D01*
X225148628Y-184885771D02*
X225077200Y-184957200D01*
X225148628Y-185028628D01*
X225220057Y-184957200D01*
X225148628Y-184885771D01*
X225148628Y-185028628D01*
X226505771Y-186314342D02*
X226362914Y-186385771D01*
X226077200Y-186385771D01*
X225934342Y-186314342D01*
X225862914Y-186242914D01*
X225791485Y-186100057D01*
X225791485Y-185671485D01*
X225862914Y-185528628D01*
X225934342Y-185457200D01*
X226077200Y-185385771D01*
X226362914Y-185385771D01*
X226505771Y-185457200D01*
X227791485Y-186385771D02*
X227791485Y-185600057D01*
X227720057Y-185457200D01*
X227577200Y-185385771D01*
X227291485Y-185385771D01*
X227148628Y-185457200D01*
X227791485Y-186314342D02*
X227648628Y-186385771D01*
X227291485Y-186385771D01*
X227148628Y-186314342D01*
X227077200Y-186171485D01*
X227077200Y-186028628D01*
X227148628Y-185885771D01*
X227291485Y-185814342D01*
X227648628Y-185814342D01*
X227791485Y-185742914D01*
X229148628Y-186385771D02*
X229148628Y-184885771D01*
X229148628Y-186314342D02*
X229005771Y-186385771D01*
X228720057Y-186385771D01*
X228577200Y-186314342D01*
X228505771Y-186242914D01*
X228434342Y-186100057D01*
X228434342Y-185671485D01*
X228505771Y-185528628D01*
X228577200Y-185457200D01*
X228720057Y-185385771D01*
X229005771Y-185385771D01*
X229148628Y-185457200D01*
X229505771Y-186528628D02*
X230648628Y-186528628D01*
X231005771Y-185385771D02*
X231005771Y-186885771D01*
X231005771Y-185457200D02*
X231148628Y-185385771D01*
X231434342Y-185385771D01*
X231577200Y-185457200D01*
X231648628Y-185528628D01*
X231720057Y-185671485D01*
X231720057Y-186100057D01*
X231648628Y-186242914D01*
X231577200Y-186314342D01*
X231434342Y-186385771D01*
X231148628Y-186385771D01*
X231005771Y-186314342D01*
X233005771Y-186314342D02*
X232862914Y-186385771D01*
X232577200Y-186385771D01*
X232434342Y-186314342D01*
X232362914Y-186242914D01*
X232291485Y-186100057D01*
X232291485Y-185671485D01*
X232362914Y-185528628D01*
X232434342Y-185457200D01*
X232577200Y-185385771D01*
X232862914Y-185385771D01*
X233005771Y-185457200D01*
X233648628Y-186385771D02*
X233648628Y-184885771D01*
X233648628Y-185457200D02*
X233791485Y-185385771D01*
X234077200Y-185385771D01*
X234220057Y-185457200D01*
X234291485Y-185528628D01*
X234362914Y-185671485D01*
X234362914Y-186100057D01*
X234291485Y-186242914D01*
X234220057Y-186314342D01*
X234077200Y-186385771D01*
X233791485Y-186385771D01*
X233648628Y-186314342D01*
D10*
D11*
X177002200Y-181507200D02*
X285002200Y-181507200D01*
D10*
D11*
X178362914Y-183614342D02*
X178577200Y-183685771D01*
X178934342Y-183685771D01*
X179077200Y-183614342D01*
X179148628Y-183542914D01*
X179220057Y-183400057D01*
X179220057Y-183257200D01*
X179148628Y-183114342D01*
X179077200Y-183042914D01*
X178934342Y-182971485D01*
X178648628Y-182900057D01*
X178505771Y-182828628D01*
X178434342Y-182757200D01*
X178362914Y-182614342D01*
X178362914Y-182471485D01*
X178434342Y-182328628D01*
X178505771Y-182257200D01*
X178648628Y-182185771D01*
X179005771Y-182185771D01*
X179220057Y-182257200D01*
X179862914Y-183685771D02*
X179862914Y-182185771D01*
X180505771Y-183685771D02*
X180505771Y-182900057D01*
X180434342Y-182757200D01*
X180291485Y-182685771D01*
X180077200Y-182685771D01*
X179934342Y-182757200D01*
X179862914Y-182828628D01*
X181791485Y-183614342D02*
X181648628Y-183685771D01*
X181362914Y-183685771D01*
X181220057Y-183614342D01*
X181148628Y-183471485D01*
X181148628Y-182900057D01*
X181220057Y-182757200D01*
X181362914Y-182685771D01*
X181648628Y-182685771D01*
X181791485Y-182757200D01*
X181862914Y-182900057D01*
X181862914Y-183042914D01*
X181148628Y-183185771D01*
X183077200Y-183614342D02*
X182934342Y-183685771D01*
X182648628Y-183685771D01*
X182505771Y-183614342D01*
X182434342Y-183471485D01*
X182434342Y-182900057D01*
X182505771Y-182757200D01*
X182648628Y-182685771D01*
X182934342Y-182685771D01*
X183077200Y-182757200D01*
X183148628Y-182900057D01*
X183148628Y-183042914D01*
X182434342Y-183185771D01*
X183577200Y-182685771D02*
X184148628Y-182685771D01*
X183791485Y-182185771D02*
X183791485Y-183471485D01*
X183862914Y-183614342D01*
X184005771Y-183685771D01*
X184148628Y-183685771D01*
X184648628Y-183542914D02*
X184720057Y-183614342D01*
X184648628Y-183685771D01*
X184577200Y-183614342D01*
X184648628Y-183542914D01*
X184648628Y-183685771D01*
X184648628Y-182757200D02*
X184720057Y-182828628D01*
X184648628Y-182900057D01*
X184577200Y-182828628D01*
X184648628Y-182757200D01*
X184648628Y-182900057D01*
D10*
D12*
D10*
D11*
D10*
D11*
D10*
D11*
D10*
D11*
D10*
D11*
X197002200Y-191507200D02*
X197002200Y-194507200D01*
D10*
D11*
X261002200Y-191507200D02*
X261002200Y-198007200D01*
D14*
X147762500Y-113741200D03*
X150687500Y-113741200D03*
D15*
X161116875Y-116848479D03*
X158465925Y-115612321D03*
D16*
X121744940Y-86436477D03*
X119504260Y-84556323D03*
D17*
X163245800Y-82154300D03*
X163245800Y-85079300D03*
D18*
X136169300Y-113799610D03*
X137744300Y-116527590D03*
D19*
X163002500Y-79476600D03*
X165927500Y-79476600D03*
D20*
X110083600Y-93127100D03*
X110083600Y-96052100D03*
D21*
X98302199Y-95661227D03*
X97785801Y-89758773D03*
D22*
X140928100Y-92566500D03*
D23*
X141210236Y-96413868D03*
X138647681Y-94846919D03*
X137635811Y-93730398D03*
X137215082Y-90904092D03*
X140645964Y-88719132D03*
X137080732Y-92284364D03*
X143862593Y-95500993D03*
X139265692Y-88853482D03*
X143208519Y-90286081D03*
X144775468Y-92848636D03*
X144641118Y-94228908D03*
X142590508Y-96279518D03*
X144220389Y-91402602D03*
X142091998Y-89274211D03*
X137993607Y-89632007D03*
X139764202Y-95858789D03*
X193344800Y-97513800D03*
X195731285Y-103275285D03*
X189969800Y-100888800D03*
X196719800Y-100888800D03*
D24*
X193344800Y-100888800D03*
D23*
X190958315Y-103275285D03*
X195731285Y-98502315D03*
X190958315Y-98502315D03*
X193344800Y-104263800D03*
D25*
X119670800Y-105231800D03*
D26*
X121970800Y-111531800D03*
D25*
X121970800Y-105231800D03*
X124270800Y-105231800D03*
D23*
X156181864Y-104153432D03*
X153171711Y-109164698D03*
X154801592Y-104287782D03*
X155300102Y-111293089D03*
X153529507Y-105066307D03*
X152750982Y-106338392D03*
X160177018Y-109663208D03*
X159756289Y-106836902D03*
X152616632Y-107718664D03*
X160311368Y-108282936D03*
D27*
X156464000Y-108000800D03*
D23*
X158126408Y-111713818D03*
X157627898Y-104708511D03*
X156746136Y-111848168D03*
X158744419Y-105720381D03*
X159398493Y-110935293D03*
X154183581Y-110281219D03*
D28*
X118792362Y-94213950D03*
X116259238Y-95676450D03*
D29*
X115308600Y-89020900D03*
D30*
X114014505Y-93850529D03*
X120138229Y-90314995D03*
X116602695Y-84191271D03*
D31*
X127258700Y-121849800D03*
D32*
X117444894Y-124479401D03*
D17*
X134442200Y-109514100D03*
X134442200Y-106589100D03*
D33*
X112627810Y-82372856D03*
X110231790Y-80695144D03*
D19*
X129783300Y-107924600D03*
X126858300Y-107924600D03*
D23*
X189129515Y-87679685D03*
X188141000Y-85293200D03*
X193902485Y-82906715D03*
X191516000Y-81918200D03*
X193902485Y-87679685D03*
X189129515Y-82906715D03*
D24*
X191516000Y-85293200D03*
D23*
X191516000Y-88668200D03*
X194891000Y-85293200D03*
D14*
X190997300Y-108153200D03*
X188072300Y-108153200D03*
D17*
X160655000Y-84110100D03*
X160655000Y-87035100D03*
D23*
X116076885Y-110795915D03*
X111303915Y-110795915D03*
X116076885Y-115568885D03*
X110315400Y-113182400D03*
X113690400Y-109807400D03*
X113690400Y-116557400D03*
D24*
X113690400Y-113182400D03*
D23*
X111303915Y-115568885D03*
X117065400Y-113182400D03*
D20*
X128346200Y-102779100D03*
X128346200Y-105704100D03*
D23*
X164671400Y-115011200D03*
X170432885Y-117397685D03*
X171421400Y-115011200D03*
X165659915Y-112624715D03*
X168046400Y-118386200D03*
X170432885Y-112624715D03*
X165659915Y-117397685D03*
X168046400Y-111636200D03*
D24*
X168046400Y-115011200D03*
D34*
X112334039Y-120113835D03*
X106766361Y-118087365D03*
D35*
X112750800Y-104843150D03*
X107619600Y-107805650D03*
D23*
X155249302Y-89265311D03*
D36*
X156413200Y-92557600D03*
D23*
X160260568Y-92275464D03*
X156695336Y-88710232D03*
X160126218Y-90895192D03*
X159347693Y-89623107D03*
X156131064Y-96404968D03*
X152700182Y-94220008D03*
X158693619Y-94838019D03*
X154750792Y-96270618D03*
X153478707Y-95492093D03*
X152565832Y-92839736D03*
X154132781Y-90277181D03*
X159705489Y-93721498D03*
X158075608Y-88844582D03*
X153120911Y-91393702D03*
X157577098Y-95849889D03*
D17*
X115443000Y-100878100D03*
X115443000Y-97953100D03*
D37*
X130007600Y-99440600D03*
D38*
X127467600Y-99440600D03*
X124927600Y-99440600D03*
D39*
X102565240Y-79545281D03*
X103073160Y-76664719D03*
D23*
X105867200Y-81918200D03*
X103480715Y-82906715D03*
X103480715Y-87679685D03*
X105867200Y-88668200D03*
X108253685Y-87679685D03*
D24*
X105867200Y-85293200D03*
D23*
X102492200Y-85293200D03*
X108253685Y-82906715D03*
X109242200Y-85293200D03*
D40*
X114028396Y-121592500D03*
X115028804Y-118843900D03*
D41*
X145151267Y-113845277D03*
X142325933Y-114602323D03*
D42*
X156200267Y-114881723D03*
X153374933Y-114124677D03*
D23*
X180216200Y-113131600D03*
X181204715Y-110745115D03*
X185977685Y-110745115D03*
X183591200Y-109756600D03*
X181204715Y-115518085D03*
X185977685Y-115518085D03*
X186966200Y-113131600D03*
X183591200Y-116506600D03*
D24*
X183591200Y-113131600D03*
D23*
X144724918Y-106448892D03*
X143292319Y-110391719D03*
X142674308Y-104398282D03*
X138731481Y-105830881D03*
X137298882Y-109773708D03*
X139349492Y-111824318D03*
X140729764Y-111958668D03*
X138077407Y-111045793D03*
X144304189Y-109275198D03*
X139848002Y-104819011D03*
X142175798Y-111403589D03*
X143946393Y-105176807D03*
X144859268Y-107829164D03*
X137719611Y-106947402D03*
X141294036Y-104263932D03*
X137164532Y-108393436D03*
D43*
X141011900Y-108111300D03*
D44*
X101482300Y-92862400D03*
X107407300Y-92862400D03*
D45*
X102062000Y-109652800D03*
D46*
X103967000Y-112952357D03*
D37*
X199212600Y-93497800D03*
D38*
X199212600Y-90957800D03*
X199212600Y-88417800D03*
X199212600Y-85877800D03*
X199212600Y-83337800D03*
X199212600Y-80797800D03*
D47*
X135407400Y-104803400D03*
X135407400Y-102003400D03*
D48*
X99891300Y-75845400D03*
D49*
X98127035Y-85851047D03*
D19*
X189066900Y-105460800D03*
X186141900Y-105460800D03*
D14*
X117337300Y-103073200D03*
X114412300Y-103073200D03*
D23*
X104038400Y-104162200D03*
X101651915Y-98400715D03*
X100663400Y-100787200D03*
X106424885Y-103173685D03*
D24*
X104038400Y-100787200D03*
D23*
X106424885Y-98400715D03*
X107413400Y-100787200D03*
X101651915Y-103173685D03*
X104038400Y-97412200D03*
D47*
X118821200Y-100764800D03*
X118821200Y-97964800D03*
D50*
X174209200Y-96501600D03*
D51*
X183709200Y-89001600D03*
X183709200Y-90271600D03*
X183709200Y-91541600D03*
X183709200Y-92811600D03*
X183709200Y-94081600D03*
X183709200Y-95351600D03*
X183709200Y-96621600D03*
X183709200Y-97891600D03*
X183709200Y-99161600D03*
X183709200Y-100431600D03*
X183709200Y-101701600D03*
X183709200Y-102971600D03*
X183709200Y-104241600D03*
X183709200Y-105511600D03*
D52*
X180924200Y-106511600D03*
X179654200Y-106511600D03*
X178384200Y-106511600D03*
X177114200Y-106511600D03*
X175844200Y-106511600D03*
X174574200Y-106511600D03*
X173304200Y-106511600D03*
X172034200Y-106511600D03*
X170764200Y-106511600D03*
X169494200Y-106511600D03*
D51*
X166709200Y-105511600D03*
X166709200Y-104241600D03*
X166709200Y-102971600D03*
X166709200Y-101701600D03*
X166709200Y-100431600D03*
X166709200Y-99161600D03*
X166709200Y-97891600D03*
X166709200Y-96621600D03*
X166709200Y-95351600D03*
X166709200Y-94081600D03*
X166709200Y-92811600D03*
X166709200Y-91541600D03*
X166709200Y-90271600D03*
X166709200Y-89001600D03*
D40*
X116619196Y-121744900D03*
X117619604Y-118996300D03*
D53*
X110207600Y-98679000D03*
X113007600Y-98679000D03*
D54*
X107970164Y-79160783D03*
X105389836Y-77354017D03*
D23*
X129235200Y-111636200D03*
X131621685Y-117397685D03*
X125860200Y-115011200D03*
X129235200Y-118386200D03*
X126848715Y-112624715D03*
D24*
X129235200Y-115011200D03*
D23*
X131621685Y-112624715D03*
X132610200Y-115011200D03*
X126848715Y-117397685D03*
D20*
X163220400Y-87412100D03*
X163220400Y-90337100D03*
D47*
X149123400Y-110696200D03*
X149123400Y-107896200D03*
D55*
X121234200Y-115168200D03*
X119908375Y-115717375D03*
X122560025Y-118369025D03*
X123109200Y-117043200D03*
X122560025Y-115717375D03*
X119908375Y-118369025D03*
X121234200Y-118918200D03*
X119359200Y-117043200D03*
D56*
X121234200Y-117043200D03*
M02*
