%TF.GenerationSoftware,KiCad,Pcbnew,(6.0.1)*%
%TF.CreationDate,2022-01-29T22:41:37+01:00*%
%TF.ProjectId,AntenneCentraleDipoloStrumentato,416e7465-6e6e-4654-9365-6e7472616c65,rev?*%
%TF.SameCoordinates,Original*%
%TF.FileFunction,Soldermask,Top*%
%TF.FilePolarity,Negative*%
%FSLAX46Y46*%
G04 Gerber Fmt 4.6, Leading zero omitted, Abs format (unit mm)*
G04 Created by KiCad (PCBNEW (6.0.1)) date 2022-01-29 22:41:37*
%MOMM*%
%LPD*%
G01*
G04 APERTURE LIST*
G04 Aperture macros list*
%AMRoundRect*
0 Rectangle with rounded corners*
0 $1 Rounding radius*
0 $2 $3 $4 $5 $6 $7 $8 $9 X,Y pos of 4 corners*
0 Add a 4 corners polygon primitive as box body*
4,1,4,$2,$3,$4,$5,$6,$7,$8,$9,$2,$3,0*
0 Add four circle primitives for the rounded corners*
1,1,$1+$1,$2,$3*
1,1,$1+$1,$4,$5*
1,1,$1+$1,$6,$7*
1,1,$1+$1,$8,$9*
0 Add four rect primitives between the rounded corners*
20,1,$1+$1,$2,$3,$4,$5,0*
20,1,$1+$1,$4,$5,$6,$7,0*
20,1,$1+$1,$6,$7,$8,$9,0*
20,1,$1+$1,$8,$9,$2,$3,0*%
%AMHorizOval*
0 Thick line with rounded ends*
0 $1 width*
0 $2 $3 position (X,Y) of the first rounded end (center of the circle)*
0 $4 $5 position (X,Y) of the second rounded end (center of the circle)*
0 Add line between two ends*
20,1,$1,$2,$3,$4,$5,0*
0 Add two circle primitives to create the rounded ends*
1,1,$1,$2,$3*
1,1,$1,$4,$5*%
%AMRotRect*
0 Rectangle, with rotation*
0 The origin of the aperture is its center*
0 $1 length*
0 $2 width*
0 $3 Rotation angle, in degrees counterclockwise*
0 Add horizontal line*
21,1,$1,$2,0,0,$3*%
G04 Aperture macros list end*
%ADD10RoundRect,0.250000X-0.312500X-0.625000X0.312500X-0.625000X0.312500X0.625000X-0.312500X0.625000X0*%
%ADD11RoundRect,0.250000X0.547358X0.434374X-0.019085X0.698511X-0.547358X-0.434374X0.019085X-0.698511X0*%
%ADD12RoundRect,0.250000X0.641131X0.277907X0.162353X0.679649X-0.641131X-0.277907X-0.162353X-0.679649X0*%
%ADD13RoundRect,0.250000X0.625000X-0.312500X0.625000X0.312500X-0.625000X0.312500X-0.625000X-0.312500X0*%
%ADD14RoundRect,0.250000X0.743718X0.111843X0.468718X0.588157X-0.743718X-0.111843X-0.468718X-0.588157X0*%
%ADD15RoundRect,0.250000X0.312500X0.625000X-0.312500X0.625000X-0.312500X-0.625000X0.312500X-0.625000X0*%
%ADD16RoundRect,0.250000X-0.625000X0.312500X-0.625000X-0.312500X0.625000X-0.312500X0.625000X0.312500X0*%
%ADD17RoundRect,0.250000X1.451171X-0.236924X1.387983X0.485318X-1.451171X0.236924X-1.387983X-0.485318X0*%
%ADD18HorizOval,7.500000X1.060660X-1.060660X-1.060660X1.060660X0*%
%ADD19C,0.900000*%
%ADD20C,9.000000*%
%ADD21R,1.500000X2.000000*%
%ADD22R,3.800000X2.000000*%
%ADD23HorizOval,7.500000X-1.060660X1.060660X1.060660X-1.060660X0*%
%ADD24RoundRect,0.250000X-0.041867X0.697516X-0.583133X0.385016X0.041867X-0.697516X0.583133X-0.385016X0*%
%ADD25C,3.000000*%
%ADD26C,1.950000*%
%ADD27RotRect,1.800000X1.800000X195.000000*%
%ADD28HorizOval,1.800000X0.000000X0.000000X0.000000X0.000000X0*%
%ADD29RoundRect,0.250000X0.614470X0.332727X0.102500X0.691213X-0.614470X-0.332727X-0.102500X-0.691213X0*%
%ADD30RoundRect,0.250000X0.828017X1.215080X0.146740X1.463044X-0.828017X-1.215080X-0.146740X-1.463044X0*%
%ADD31RoundRect,0.250000X-0.398566X1.415336X-1.026434X1.052836X0.398566X-1.415336X1.026434X-1.052836X0*%
%ADD32HorizOval,7.500000X1.060660X1.060660X-1.060660X-1.060660X0*%
%ADD33R,1.700000X1.700000*%
%ADD34O,1.700000X1.700000*%
%ADD35RoundRect,0.250000X0.561240X-0.416283X0.669770X0.199222X-0.561240X0.416283X-0.669770X-0.199222X0*%
%ADD36RoundRect,0.250000X0.480427X-0.507417X0.694189X0.079891X-0.480427X0.507417X-0.694189X-0.079891X0*%
%ADD37RoundRect,0.250000X0.140090X0.684585X-0.463614X0.522823X-0.140090X-0.684585X0.463614X-0.522823X0*%
%ADD38RoundRect,0.250000X0.463614X0.522823X-0.140090X0.684585X-0.463614X-0.522823X0.140090X-0.684585X0*%
%ADD39HorizOval,7.500000X-1.060660X-1.060660X1.060660X1.060660X0*%
%ADD40RoundRect,0.250000X-0.362500X-1.425000X0.362500X-1.425000X0.362500X1.425000X-0.362500X1.425000X0*%
%ADD41RoundRect,0.250000X-1.667339X-0.212083X-1.017339X-1.337917X1.667339X0.212083X1.017339X1.337917X0*%
%ADD42HorizOval,1.800000X-0.779423X-0.450000X0.779423X0.450000X0*%
%ADD43RoundRect,0.250000X1.075000X-0.375000X1.075000X0.375000X-1.075000X0.375000X-1.075000X-0.375000X0*%
%ADD44RotRect,1.800000X1.800000X260.000000*%
%ADD45HorizOval,1.800000X0.000000X0.000000X0.000000X0.000000X0*%
%ADD46R,5.000000X5.000000*%
%ADD47R,2.000000X0.900000*%
%ADD48R,0.900000X2.000000*%
%ADD49RoundRect,0.250000X-0.375000X-1.075000X0.375000X-1.075000X0.375000X1.075000X-0.375000X1.075000X0*%
%ADD50RoundRect,0.250000X0.626770X0.415673X0.176237X0.731140X-0.626770X-0.415673X-0.176237X-0.731140X0*%
%ADD51C,0.800000*%
%ADD52C,5.000000*%
G04 APERTURE END LIST*
D10*
%TO.C,R9*%
X147762500Y-113741200D03*
X150687500Y-113741200D03*
%TD*%
D11*
%TO.C,R10*%
X161116875Y-116848479D03*
X158465925Y-115612321D03*
%TD*%
D12*
%TO.C,R5*%
X121744940Y-86436477D03*
X119504260Y-84556323D03*
%TD*%
D13*
%TO.C,C10*%
X163245800Y-82154300D03*
X163245800Y-85079300D03*
%TD*%
D14*
%TO.C,L2*%
X136169300Y-113799610D03*
X137744300Y-116527590D03*
%TD*%
D15*
%TO.C,C9*%
X163002500Y-79476600D03*
X165927500Y-79476600D03*
%TD*%
D16*
%TO.C,R8*%
X110083600Y-93127100D03*
X110083600Y-96052100D03*
%TD*%
D17*
%TO.C,R1*%
X98302199Y-95661227D03*
X97785801Y-89758773D03*
%TD*%
D18*
%TO.C,H7*%
X140928100Y-92566500D03*
D19*
X141210236Y-96413868D03*
X138647681Y-94846919D03*
X137635811Y-93730398D03*
X137215082Y-90904092D03*
X140645964Y-88719132D03*
X137080732Y-92284364D03*
X143862593Y-95500993D03*
X139265692Y-88853482D03*
X143208519Y-90286081D03*
X144775468Y-92848636D03*
X144641118Y-94228908D03*
X142590508Y-96279518D03*
X144220389Y-91402602D03*
X142091998Y-89274211D03*
X137993607Y-89632007D03*
X139764202Y-95858789D03*
%TD*%
%TO.C,H10*%
X193344800Y-97513800D03*
X195731285Y-103275285D03*
X189969800Y-100888800D03*
X196719800Y-100888800D03*
D20*
X193344800Y-100888800D03*
D19*
X190958315Y-103275285D03*
X195731285Y-98502315D03*
X190958315Y-98502315D03*
X193344800Y-104263800D03*
%TD*%
D21*
%TO.C,U2*%
X119670800Y-105231800D03*
D22*
X121970800Y-111531800D03*
D21*
X121970800Y-105231800D03*
X124270800Y-105231800D03*
%TD*%
D19*
%TO.C,H9*%
X156181864Y-104153432D03*
X153171711Y-109164698D03*
X154801592Y-104287782D03*
X155300102Y-111293089D03*
X153529507Y-105066307D03*
X152750982Y-106338392D03*
X160177018Y-109663208D03*
X159756289Y-106836902D03*
X152616632Y-107718664D03*
X160311368Y-108282936D03*
D23*
X156464000Y-108000800D03*
D19*
X158126408Y-111713818D03*
X157627898Y-104708511D03*
X156746136Y-111848168D03*
X158744419Y-105720381D03*
X159398493Y-110935293D03*
X154183581Y-110281219D03*
%TD*%
D24*
%TO.C,R7*%
X118792362Y-94213950D03*
X116259238Y-95676450D03*
%TD*%
D25*
%TO.C,C3*%
X115308600Y-89020900D03*
D26*
X114014505Y-93850529D03*
X120138229Y-90314995D03*
X116602695Y-84191271D03*
%TD*%
D27*
%TO.C,D2*%
X127258700Y-121849800D03*
D28*
X117444894Y-124479401D03*
%TD*%
D13*
%TO.C,R13*%
X134442200Y-109514100D03*
X134442200Y-106589100D03*
%TD*%
D29*
%TO.C,C1*%
X112627810Y-82372856D03*
X110231790Y-80695144D03*
%TD*%
D15*
%TO.C,C11*%
X129783300Y-107924600D03*
X126858300Y-107924600D03*
%TD*%
D19*
%TO.C,H11*%
X189129515Y-87679685D03*
X188141000Y-85293200D03*
X193902485Y-82906715D03*
X191516000Y-81918200D03*
X193902485Y-87679685D03*
X189129515Y-82906715D03*
D20*
X191516000Y-85293200D03*
D19*
X191516000Y-88668200D03*
X194891000Y-85293200D03*
%TD*%
D10*
%TO.C,R12*%
X190997300Y-108153200D03*
X188072300Y-108153200D03*
%TD*%
D13*
%TO.C,R6*%
X160655000Y-84110100D03*
X160655000Y-87035100D03*
%TD*%
D19*
%TO.C,H5*%
X116076885Y-110795915D03*
X111303915Y-110795915D03*
X116076885Y-115568885D03*
X110315400Y-113182400D03*
X113690400Y-109807400D03*
X113690400Y-116557400D03*
D20*
X113690400Y-113182400D03*
D19*
X111303915Y-115568885D03*
X117065400Y-113182400D03*
%TD*%
D16*
%TO.C,C12*%
X128346200Y-102779100D03*
X128346200Y-105704100D03*
%TD*%
D19*
%TO.C,H12*%
X164671400Y-115011200D03*
X170432885Y-117397685D03*
X171421400Y-115011200D03*
X165659915Y-112624715D03*
X168046400Y-118386200D03*
X170432885Y-112624715D03*
X165659915Y-117397685D03*
X168046400Y-111636200D03*
D20*
X168046400Y-115011200D03*
%TD*%
D30*
%TO.C,R4*%
X112334039Y-120113835D03*
X106766361Y-118087365D03*
%TD*%
D31*
%TO.C,R3*%
X112750800Y-104843150D03*
X107619600Y-107805650D03*
%TD*%
D19*
%TO.C,H6*%
X155249302Y-89265311D03*
D32*
X156413200Y-92557600D03*
D19*
X160260568Y-92275464D03*
X156695336Y-88710232D03*
X160126218Y-90895192D03*
X159347693Y-89623107D03*
X156131064Y-96404968D03*
X152700182Y-94220008D03*
X158693619Y-94838019D03*
X154750792Y-96270618D03*
X153478707Y-95492093D03*
X152565832Y-92839736D03*
X154132781Y-90277181D03*
X159705489Y-93721498D03*
X158075608Y-88844582D03*
X153120911Y-91393702D03*
X157577098Y-95849889D03*
%TD*%
D13*
%TO.C,R11*%
X115443000Y-100878100D03*
X115443000Y-97953100D03*
%TD*%
D33*
%TO.C,J2*%
X130007600Y-99440600D03*
D34*
X127467600Y-99440600D03*
X124927600Y-99440600D03*
%TD*%
D35*
%TO.C,C2*%
X102565240Y-79545281D03*
X103073160Y-76664719D03*
%TD*%
D19*
%TO.C,H2*%
X105867200Y-81918200D03*
X103480715Y-82906715D03*
X103480715Y-87679685D03*
X105867200Y-88668200D03*
X108253685Y-87679685D03*
D20*
X105867200Y-85293200D03*
D19*
X102492200Y-85293200D03*
X108253685Y-82906715D03*
X109242200Y-85293200D03*
%TD*%
D36*
%TO.C,C5*%
X114028396Y-121592500D03*
X115028804Y-118843900D03*
%TD*%
D37*
%TO.C,C6*%
X145151267Y-113845277D03*
X142325933Y-114602323D03*
%TD*%
D38*
%TO.C,C7*%
X156200267Y-114881723D03*
X153374933Y-114124677D03*
%TD*%
D19*
%TO.C,H13*%
X180216200Y-113131600D03*
X181204715Y-110745115D03*
X185977685Y-110745115D03*
X183591200Y-109756600D03*
X181204715Y-115518085D03*
X185977685Y-115518085D03*
X186966200Y-113131600D03*
X183591200Y-116506600D03*
D20*
X183591200Y-113131600D03*
%TD*%
D19*
%TO.C,H8*%
X144724918Y-106448892D03*
X143292319Y-110391719D03*
X142674308Y-104398282D03*
X138731481Y-105830881D03*
X137298882Y-109773708D03*
X139349492Y-111824318D03*
X140729764Y-111958668D03*
X138077407Y-111045793D03*
X144304189Y-109275198D03*
X139848002Y-104819011D03*
X142175798Y-111403589D03*
X143946393Y-105176807D03*
X144859268Y-107829164D03*
X137719611Y-106947402D03*
X141294036Y-104263932D03*
X137164532Y-108393436D03*
D39*
X141011900Y-108111300D03*
%TD*%
D40*
%TO.C,R2*%
X101482300Y-92862400D03*
X107407300Y-92862400D03*
%TD*%
D41*
%TO.C,J1*%
X102062000Y-109652800D03*
D42*
X103967000Y-112952357D03*
%TD*%
D33*
%TO.C,J3*%
X199212600Y-93497800D03*
D34*
X199212600Y-90957800D03*
X199212600Y-88417800D03*
X199212600Y-85877800D03*
X199212600Y-83337800D03*
X199212600Y-80797800D03*
%TD*%
D43*
%TO.C,D5*%
X135407400Y-104803400D03*
X135407400Y-102003400D03*
%TD*%
D44*
%TO.C,D1*%
X99891300Y-75845400D03*
D45*
X98127035Y-85851047D03*
%TD*%
D15*
%TO.C,C14*%
X189066900Y-105460800D03*
X186141900Y-105460800D03*
%TD*%
D10*
%TO.C,C8*%
X117337300Y-103073200D03*
X114412300Y-103073200D03*
%TD*%
D19*
%TO.C,H4*%
X104038400Y-104162200D03*
X101651915Y-98400715D03*
X100663400Y-100787200D03*
X106424885Y-103173685D03*
D20*
X104038400Y-100787200D03*
D19*
X106424885Y-98400715D03*
X107413400Y-100787200D03*
X101651915Y-103173685D03*
X104038400Y-97412200D03*
%TD*%
D43*
%TO.C,D4*%
X118821200Y-100764800D03*
X118821200Y-97964800D03*
%TD*%
D46*
%TO.C,U1*%
X174209200Y-96501600D03*
D47*
X183709200Y-89001600D03*
X183709200Y-90271600D03*
X183709200Y-91541600D03*
X183709200Y-92811600D03*
X183709200Y-94081600D03*
X183709200Y-95351600D03*
X183709200Y-96621600D03*
X183709200Y-97891600D03*
X183709200Y-99161600D03*
X183709200Y-100431600D03*
X183709200Y-101701600D03*
X183709200Y-102971600D03*
X183709200Y-104241600D03*
X183709200Y-105511600D03*
D48*
X180924200Y-106511600D03*
X179654200Y-106511600D03*
X178384200Y-106511600D03*
X177114200Y-106511600D03*
X175844200Y-106511600D03*
X174574200Y-106511600D03*
X173304200Y-106511600D03*
X172034200Y-106511600D03*
X170764200Y-106511600D03*
X169494200Y-106511600D03*
D47*
X166709200Y-105511600D03*
X166709200Y-104241600D03*
X166709200Y-102971600D03*
X166709200Y-101701600D03*
X166709200Y-100431600D03*
X166709200Y-99161600D03*
X166709200Y-97891600D03*
X166709200Y-96621600D03*
X166709200Y-95351600D03*
X166709200Y-94081600D03*
X166709200Y-92811600D03*
X166709200Y-91541600D03*
X166709200Y-90271600D03*
X166709200Y-89001600D03*
%TD*%
D36*
%TO.C,C4*%
X116619196Y-121744900D03*
X117619604Y-118996300D03*
%TD*%
D49*
%TO.C,D3*%
X110207600Y-98679000D03*
X113007600Y-98679000D03*
%TD*%
D50*
%TO.C,L1*%
X107970164Y-79160783D03*
X105389836Y-77354017D03*
%TD*%
D19*
%TO.C,H1*%
X129235200Y-111636200D03*
X131621685Y-117397685D03*
X125860200Y-115011200D03*
X129235200Y-118386200D03*
X126848715Y-112624715D03*
D20*
X129235200Y-115011200D03*
D19*
X131621685Y-112624715D03*
X132610200Y-115011200D03*
X126848715Y-117397685D03*
%TD*%
D16*
%TO.C,C13*%
X163220400Y-87412100D03*
X163220400Y-90337100D03*
%TD*%
D43*
%TO.C,D6*%
X149123400Y-110696200D03*
X149123400Y-107896200D03*
%TD*%
D51*
%TO.C,H3*%
X121234200Y-115168200D03*
X119908375Y-115717375D03*
X122560025Y-118369025D03*
X123109200Y-117043200D03*
X122560025Y-115717375D03*
X119908375Y-118369025D03*
X121234200Y-118918200D03*
X119359200Y-117043200D03*
D52*
X121234200Y-117043200D03*
%TD*%
M02*
