%TF.GenerationSoftware,KiCad,Pcbnew,(6.0.1)*%
%TF.CreationDate,2022-01-29T22:41:37+01:00*%
%TF.ProjectId,AntenneCentraleDipoloStrumentato,416e7465-6e6e-4654-9365-6e7472616c65,rev?*%
%TF.SameCoordinates,Original*%
%TF.FileFunction,Profile,NP*%
%FSLAX46Y46*%
G04 Gerber Fmt 4.6, Leading zero omitted, Abs format (unit mm)*
G04 Created by KiCad (PCBNEW (6.0.1)) date 2022-01-29 22:41:37*
%MOMM*%
%LPD*%
G01*
G04 APERTURE LIST*
%TA.AperFunction,Profile*%
%ADD10C,0.200000*%
%TD*%
%ADD11C,0.200000*%
G04 APERTURE END LIST*
D10*
X163700021Y-120843757D02*
G75*
G03*
X133700000Y-120843757I-15000011J-17761409D01*
G01*
D11*
X95356700Y-78184000D02*
X95655704Y-76882760D01*
X96006408Y-75776751D01*
X96406860Y-74855877D01*
X96855104Y-74110044D01*
X97349188Y-73529158D01*
X97887158Y-73103124D01*
X98467060Y-72821847D01*
X99086942Y-72675234D01*
X99744849Y-72653189D01*
X100438827Y-72745619D01*
X101166924Y-72942429D01*
X101927186Y-73233525D01*
X102717660Y-73608812D01*
X103536391Y-74058195D01*
X104381426Y-74571581D01*
X105250812Y-75138875D01*
X106142595Y-75749982D01*
X107054822Y-76394808D01*
X107985539Y-77063259D01*
X108932792Y-77745240D01*
X109894629Y-78430657D01*
X110869095Y-79109415D01*
X111854237Y-79771420D01*
X112848101Y-80406578D01*
X113848734Y-81004793D01*
X114854183Y-81555973D01*
X115862493Y-82050022D01*
X116871712Y-82476845D01*
X117879886Y-82826349D01*
X118885060Y-83088439D01*
X119885283Y-83253021D01*
X120878600Y-83310000D01*
X133700000Y-120843757D02*
X130502380Y-122725672D01*
X127469630Y-124203622D01*
X124598162Y-125297259D01*
X121884388Y-126026238D01*
X119324720Y-126410214D01*
X116915571Y-126468841D01*
X114653353Y-126221774D01*
X112534479Y-125688667D01*
X110555361Y-124889176D01*
X108712411Y-123842953D01*
X107002042Y-122569655D01*
X105420665Y-121088935D01*
X103964694Y-119420449D01*
X102630541Y-117583849D01*
X101414618Y-115598792D01*
X100313337Y-113484932D01*
X99323111Y-111261922D01*
X98440352Y-108949419D01*
X97661473Y-106567075D01*
X96982885Y-104134546D01*
X96401002Y-101671487D01*
X95912235Y-99197551D01*
X95512998Y-96732394D01*
X95199701Y-94295669D01*
X94968758Y-91907032D01*
X94816582Y-89586137D01*
X94739583Y-87352638D01*
X94734175Y-85226190D01*
X94796771Y-83226448D01*
X94923782Y-81373066D01*
X95111621Y-79685698D01*
X95356700Y-78184000D01*
D10*
X155700000Y-77221000D02*
G75*
G03*
X155700000Y-77221000I-7000000J0D01*
G01*
D11*
X148700000Y-63221000D02*
X149522237Y-63278625D01*
X150344776Y-63446597D01*
X151167918Y-63717560D01*
X151991964Y-64084158D01*
X152817216Y-64539033D01*
X153643975Y-65074830D01*
X154472542Y-65684193D01*
X155303218Y-66359765D01*
X156136306Y-67094190D01*
X156972106Y-67880112D01*
X157810921Y-68710174D01*
X158653050Y-69577021D01*
X159498797Y-70473296D01*
X160348461Y-71391642D01*
X161202345Y-72324704D01*
X162060750Y-73265125D01*
X162923976Y-74205548D01*
X163792327Y-75138619D01*
X164666103Y-76056980D01*
X165545605Y-76953275D01*
X166431135Y-77820148D01*
X167322994Y-78650242D01*
X168221484Y-79436202D01*
X169126906Y-80170671D01*
X170039561Y-80846293D01*
X170959751Y-81455712D01*
X171887777Y-81991570D01*
X172823941Y-82446513D01*
X173768544Y-82813184D01*
X174721887Y-83084226D01*
X175684272Y-83252283D01*
X176656000Y-83310000D01*
D10*
X153900000Y-100313000D02*
G75*
G03*
X153900000Y-100313000I-5200000J0D01*
G01*
D11*
X202043000Y-78184000D02*
X202288106Y-79685698D01*
X202475970Y-81373066D01*
X202603005Y-83226448D01*
X202665623Y-85226190D01*
X202660236Y-87352638D01*
X202583257Y-89586137D01*
X202431098Y-91907032D01*
X202200172Y-94295669D01*
X201886891Y-96732394D01*
X201487667Y-99197551D01*
X200998913Y-101671487D01*
X200417042Y-104134546D01*
X199738465Y-106567075D01*
X198959595Y-108949419D01*
X198076845Y-111261922D01*
X197086627Y-113484932D01*
X195985353Y-115598792D01*
X194769437Y-117583849D01*
X193435289Y-119420449D01*
X191979323Y-121088935D01*
X190397951Y-122569655D01*
X188687586Y-123842953D01*
X186844639Y-124889176D01*
X184865524Y-125688667D01*
X182746653Y-126221774D01*
X180484437Y-126468841D01*
X178075291Y-126410214D01*
X175515625Y-126026238D01*
X172801853Y-125297259D01*
X169930386Y-124203622D01*
X166897638Y-122725672D01*
X163700021Y-120843757D01*
X120878600Y-83310000D02*
X121838099Y-83252283D01*
X122789019Y-83084226D01*
X123731637Y-82813184D01*
X124666230Y-82446513D01*
X125593073Y-81991570D01*
X126512444Y-81455712D01*
X127424620Y-80846293D01*
X128329878Y-80170671D01*
X129228493Y-79436202D01*
X130120743Y-78650242D01*
X131006905Y-77820148D01*
X131887255Y-76953275D01*
X132762071Y-76056980D01*
X133631628Y-75138619D01*
X134496203Y-74205548D01*
X135356075Y-73265125D01*
X136211518Y-72324704D01*
X137062810Y-71391642D01*
X137910227Y-70473296D01*
X138754047Y-69577021D01*
X139594546Y-68710174D01*
X140432000Y-67880112D01*
X141266687Y-67094190D01*
X142098884Y-66359765D01*
X142928866Y-65684193D01*
X143756912Y-65074830D01*
X144583296Y-64539033D01*
X145408298Y-64084158D01*
X146232192Y-63717560D01*
X147055256Y-63446597D01*
X147877766Y-63278625D01*
X148700000Y-63221000D01*
X176656000Y-83310000D02*
X177637089Y-83253021D01*
X178625850Y-83088439D01*
X179620304Y-82826349D01*
X180618474Y-82476845D01*
X181618380Y-82050022D01*
X182618045Y-81555973D01*
X183615489Y-81004793D01*
X184608734Y-80406578D01*
X185595802Y-79771420D01*
X186574714Y-79109415D01*
X187543492Y-78430657D01*
X188500158Y-77745240D01*
X189442732Y-77063259D01*
X190369237Y-76394808D01*
X191277694Y-75749982D01*
X192166125Y-75138875D01*
X193032550Y-74571581D01*
X193874992Y-74058195D01*
X194691473Y-73608812D01*
X195480013Y-73233525D01*
X196238635Y-72942429D01*
X196965359Y-72745619D01*
X197658208Y-72653189D01*
X198315203Y-72675234D01*
X198934365Y-72821847D01*
X199513716Y-73103124D01*
X200051278Y-73529158D01*
X200545072Y-74110044D01*
X200993119Y-74855877D01*
X201393442Y-75776751D01*
X201744062Y-76882760D01*
X202043000Y-78184000D01*
M02*
