%TF.GenerationSoftware,KiCad,Pcbnew,(6.0.1)*%
%TF.CreationDate,2022-01-29T22:41:37+01:00*%
%TF.ProjectId,AntenneCentraleDipoloStrumentato,416e7465-6e6e-4654-9365-6e7472616c65,rev?*%
%TF.SameCoordinates,Original*%
%TF.FileFunction,Paste,Top*%
%TF.FilePolarity,Positive*%
%FSLAX46Y46*%
G04 Gerber Fmt 4.6, Leading zero omitted, Abs format (unit mm)*
G04 Created by KiCad (PCBNEW (6.0.1)) date 2022-01-29 22:41:37*
%MOMM*%
%LPD*%
G01*
G04 APERTURE LIST*
G04 Aperture macros list*
%AMRoundRect*
0 Rectangle with rounded corners*
0 $1 Rounding radius*
0 $2 $3 $4 $5 $6 $7 $8 $9 X,Y pos of 4 corners*
0 Add a 4 corners polygon primitive as box body*
4,1,4,$2,$3,$4,$5,$6,$7,$8,$9,$2,$3,0*
0 Add four circle primitives for the rounded corners*
1,1,$1+$1,$2,$3*
1,1,$1+$1,$4,$5*
1,1,$1+$1,$6,$7*
1,1,$1+$1,$8,$9*
0 Add four rect primitives between the rounded corners*
20,1,$1+$1,$2,$3,$4,$5,0*
20,1,$1+$1,$4,$5,$6,$7,0*
20,1,$1+$1,$6,$7,$8,$9,0*
20,1,$1+$1,$8,$9,$2,$3,0*%
G04 Aperture macros list end*
%ADD10RoundRect,0.250000X-0.312500X-0.625000X0.312500X-0.625000X0.312500X0.625000X-0.312500X0.625000X0*%
%ADD11RoundRect,0.250000X0.547358X0.434374X-0.019085X0.698511X-0.547358X-0.434374X0.019085X-0.698511X0*%
%ADD12RoundRect,0.250000X0.641131X0.277907X0.162353X0.679649X-0.641131X-0.277907X-0.162353X-0.679649X0*%
%ADD13RoundRect,0.250000X0.625000X-0.312500X0.625000X0.312500X-0.625000X0.312500X-0.625000X-0.312500X0*%
%ADD14RoundRect,0.250000X0.743718X0.111843X0.468718X0.588157X-0.743718X-0.111843X-0.468718X-0.588157X0*%
%ADD15RoundRect,0.250000X0.312500X0.625000X-0.312500X0.625000X-0.312500X-0.625000X0.312500X-0.625000X0*%
%ADD16RoundRect,0.250000X-0.625000X0.312500X-0.625000X-0.312500X0.625000X-0.312500X0.625000X0.312500X0*%
%ADD17RoundRect,0.250000X1.451171X-0.236924X1.387983X0.485318X-1.451171X0.236924X-1.387983X-0.485318X0*%
%ADD18R,1.500000X2.000000*%
%ADD19R,3.800000X2.000000*%
%ADD20RoundRect,0.250000X-0.041867X0.697516X-0.583133X0.385016X0.041867X-0.697516X0.583133X-0.385016X0*%
%ADD21RoundRect,0.250000X0.614470X0.332727X0.102500X0.691213X-0.614470X-0.332727X-0.102500X-0.691213X0*%
%ADD22RoundRect,0.250000X0.828017X1.215080X0.146740X1.463044X-0.828017X-1.215080X-0.146740X-1.463044X0*%
%ADD23RoundRect,0.250000X-0.398566X1.415336X-1.026434X1.052836X0.398566X-1.415336X1.026434X-1.052836X0*%
%ADD24RoundRect,0.250000X0.561240X-0.416283X0.669770X0.199222X-0.561240X0.416283X-0.669770X-0.199222X0*%
%ADD25RoundRect,0.250000X0.480427X-0.507417X0.694189X0.079891X-0.480427X0.507417X-0.694189X-0.079891X0*%
%ADD26RoundRect,0.250000X0.140090X0.684585X-0.463614X0.522823X-0.140090X-0.684585X0.463614X-0.522823X0*%
%ADD27RoundRect,0.250000X0.463614X0.522823X-0.140090X0.684585X-0.463614X-0.522823X0.140090X-0.684585X0*%
%ADD28RoundRect,0.250000X-0.362500X-1.425000X0.362500X-1.425000X0.362500X1.425000X-0.362500X1.425000X0*%
%ADD29RoundRect,0.250000X1.075000X-0.375000X1.075000X0.375000X-1.075000X0.375000X-1.075000X-0.375000X0*%
%ADD30R,5.000000X5.000000*%
%ADD31R,2.000000X0.900000*%
%ADD32R,0.900000X2.000000*%
%ADD33RoundRect,0.250000X-0.375000X-1.075000X0.375000X-1.075000X0.375000X1.075000X-0.375000X1.075000X0*%
%ADD34RoundRect,0.250000X0.626770X0.415673X0.176237X0.731140X-0.626770X-0.415673X-0.176237X-0.731140X0*%
G04 APERTURE END LIST*
D10*
%TO.C,R9*%
X147762500Y-113741200D03*
X150687500Y-113741200D03*
%TD*%
D11*
%TO.C,R10*%
X161116875Y-116848479D03*
X158465925Y-115612321D03*
%TD*%
D12*
%TO.C,R5*%
X121744940Y-86436477D03*
X119504260Y-84556323D03*
%TD*%
D13*
%TO.C,C10*%
X163245800Y-82154300D03*
X163245800Y-85079300D03*
%TD*%
D14*
%TO.C,L2*%
X136169300Y-113799610D03*
X137744300Y-116527590D03*
%TD*%
D15*
%TO.C,C9*%
X163002500Y-79476600D03*
X165927500Y-79476600D03*
%TD*%
D16*
%TO.C,R8*%
X110083600Y-93127100D03*
X110083600Y-96052100D03*
%TD*%
D17*
%TO.C,R1*%
X98302199Y-95661227D03*
X97785801Y-89758773D03*
%TD*%
D18*
%TO.C,U2*%
X119670800Y-105231800D03*
D19*
X121970800Y-111531800D03*
D18*
X121970800Y-105231800D03*
X124270800Y-105231800D03*
%TD*%
D20*
%TO.C,R7*%
X118792362Y-94213950D03*
X116259238Y-95676450D03*
%TD*%
D13*
%TO.C,R13*%
X134442200Y-109514100D03*
X134442200Y-106589100D03*
%TD*%
D21*
%TO.C,C1*%
X112627810Y-82372856D03*
X110231790Y-80695144D03*
%TD*%
D15*
%TO.C,C11*%
X129783300Y-107924600D03*
X126858300Y-107924600D03*
%TD*%
D10*
%TO.C,R12*%
X190997300Y-108153200D03*
X188072300Y-108153200D03*
%TD*%
D13*
%TO.C,R6*%
X160655000Y-84110100D03*
X160655000Y-87035100D03*
%TD*%
D16*
%TO.C,C12*%
X128346200Y-102779100D03*
X128346200Y-105704100D03*
%TD*%
D22*
%TO.C,R4*%
X112334039Y-120113835D03*
X106766361Y-118087365D03*
%TD*%
D23*
%TO.C,R3*%
X112750800Y-104843150D03*
X107619600Y-107805650D03*
%TD*%
D13*
%TO.C,R11*%
X115443000Y-100878100D03*
X115443000Y-97953100D03*
%TD*%
D24*
%TO.C,C2*%
X102565240Y-79545281D03*
X103073160Y-76664719D03*
%TD*%
D25*
%TO.C,C5*%
X114028396Y-121592500D03*
X115028804Y-118843900D03*
%TD*%
D26*
%TO.C,C6*%
X145151267Y-113845277D03*
X142325933Y-114602323D03*
%TD*%
D27*
%TO.C,C7*%
X156200267Y-114881723D03*
X153374933Y-114124677D03*
%TD*%
D28*
%TO.C,R2*%
X101482300Y-92862400D03*
X107407300Y-92862400D03*
%TD*%
D29*
%TO.C,D5*%
X135407400Y-104803400D03*
X135407400Y-102003400D03*
%TD*%
D15*
%TO.C,C14*%
X189066900Y-105460800D03*
X186141900Y-105460800D03*
%TD*%
D10*
%TO.C,C8*%
X117337300Y-103073200D03*
X114412300Y-103073200D03*
%TD*%
D29*
%TO.C,D4*%
X118821200Y-100764800D03*
X118821200Y-97964800D03*
%TD*%
D30*
%TO.C,U1*%
X174209200Y-96501600D03*
D31*
X183709200Y-89001600D03*
X183709200Y-90271600D03*
X183709200Y-91541600D03*
X183709200Y-92811600D03*
X183709200Y-94081600D03*
X183709200Y-95351600D03*
X183709200Y-96621600D03*
X183709200Y-97891600D03*
X183709200Y-99161600D03*
X183709200Y-100431600D03*
X183709200Y-101701600D03*
X183709200Y-102971600D03*
X183709200Y-104241600D03*
X183709200Y-105511600D03*
D32*
X180924200Y-106511600D03*
X179654200Y-106511600D03*
X178384200Y-106511600D03*
X177114200Y-106511600D03*
X175844200Y-106511600D03*
X174574200Y-106511600D03*
X173304200Y-106511600D03*
X172034200Y-106511600D03*
X170764200Y-106511600D03*
X169494200Y-106511600D03*
D31*
X166709200Y-105511600D03*
X166709200Y-104241600D03*
X166709200Y-102971600D03*
X166709200Y-101701600D03*
X166709200Y-100431600D03*
X166709200Y-99161600D03*
X166709200Y-97891600D03*
X166709200Y-96621600D03*
X166709200Y-95351600D03*
X166709200Y-94081600D03*
X166709200Y-92811600D03*
X166709200Y-91541600D03*
X166709200Y-90271600D03*
X166709200Y-89001600D03*
%TD*%
D25*
%TO.C,C4*%
X116619196Y-121744900D03*
X117619604Y-118996300D03*
%TD*%
D33*
%TO.C,D3*%
X110207600Y-98679000D03*
X113007600Y-98679000D03*
%TD*%
D34*
%TO.C,L1*%
X107970164Y-79160783D03*
X105389836Y-77354017D03*
%TD*%
D16*
%TO.C,C13*%
X163220400Y-87412100D03*
X163220400Y-90337100D03*
%TD*%
D29*
%TO.C,D6*%
X149123400Y-110696200D03*
X149123400Y-107896200D03*
%TD*%
M02*
